<?xml version="1.0" encoding="utf-8"?>
<!-- Generator: Adobe Illustrator 22.0.1, SVG Export Plug-In . SVG Version: 6.00 Build 0)  -->
<svg version="1.1" id="SAMHSA_Logo" xmlns="http://www.w3.org/2000/svg" xmlns:xlink="http://www.w3.org/1999/xlink" x="0px"
	 y="0px" viewBox="0 0 385 100" style="enable-background:new 0 0 385 100;" xml:space="preserve">
<g id="SAMHSA">
	<path d="M115.8,23.7H96.4c-6.6,0-13.2,3.1-16.1,7.5c-3.3,4.9-5.9,9.7-7,13.9c-0.9,3.6,0.1,6.8,2.8,9c3.6,3.2,14,3.2,15.2,7.8
		c1.3,4.9-3.6,11.3-8.8,11.3H68.7c-3.2,0-5.1-0.7-4.7-3.7h-1.1l-4.3,10.9c-0.6,1.5-0.2,2.7,2.6,2.7h23.1c5.5,0,10.4-2.1,13.7-5.7
		c4.8-5,7.3-11.4,8.7-17.6c1.3-5.9-1.4-8.7-5.6-10.4c-3.4-1.4-11.7-3.5-12.4-6.1c-1.1-3.7,2.1-9.7,6.4-9.7c3.5,0,7.3,0,10.9,0
		c2.5,0,6.1,0.2,7.4-3.5L115.8,23.7"/>
	<path d="M157.5,26.2c0.1-1.2-0.2-2.6-2.1-2.6h-16.9v0.1l-0.5,0.9c2.7,0.5,0.6,3.8-0.6,5.4l-36.8,49.1c-1.9,2.4-1.2,4,0.6,4h13.1
		l0.3-0.9c-2.1,0-2.2-2-1.5-3l7.8-10.8h18.9l-1,10.8c-0.1,1.5-0.7,3.9,2.8,3.9h11.2l0.3-0.9c-1.4,0-1.7-1.8-1.5-3L157.5,26.2z
		 M141.1,59.5h-14l16.5-23.6L141.1,59.5z"/>
	<path d="M187,41.5l-18.4,37.7c-0.6,1.1,0.1,3,1.5,3l-0.3,0.9h-11.2c-3.5,0-2.5-2.3-1.8-3.9l25.3-49.1c0.9-1.7,2.6-5-0.1-5.5
		l0.5-0.9h14.1c2,0,2.1,1.4,2.1,2.6L197,59.6l16.3-29.4c0.9-1.7,3.1-5,0.4-5.5l0.5-0.9h14.7c2,0,2.2,1.4,2.1,2.6l-6.9,53
		c-0.2,1.2,0.1,3,1.5,3l-0.3,0.9h-11.6c-3.5,0-2.9-2.4-2.7-3.9l6.1-37.7l-23.7,41.6h-9.1L187,41.5z"/>
	<path d="M331.7,23.7h-19.4c-6.6,0-13.2,3.1-16.1,7.5c-3.3,4.9-5.9,9.7-7,13.9c-0.9,3.6,0.1,6.8,2.8,9c3.6,3.2,14,3.2,15.2,7.8
		c1.3,4.9-3.6,11.3-8.8,11.3h-13.7c-3.2,0-5.1-0.7-4.7-3.7h-1.1l-4.3,10.9c-0.6,1.5-0.2,2.7,2.6,2.7h23.1c5.5,0,10.4-2.1,13.7-5.7
		c4.8-5,7.3-11.4,8.7-17.6c1.3-5.9-1.4-8.7-5.6-10.4c-3.4-1.4-11.7-3.5-12.4-6.1c-1.1-3.7,2.1-9.7,6.4-9.7c3.5,0,7.3,0,10.9,0
		c2.5,0,6.1,0.2,7.4-3.5L331.7,23.7z"/>
	<path d="M260.6,26.2l-7.4,19.4h18.3l6.1-15.5c0.7-1.8,2.1-5.1-0.1-5.5l0.5-0.9h12.8c2,0,2.1,1.4,1.7,2.5l-20.2,53
		c-0.5,1.1,0.1,3,1.5,3l-0.3,0.9h-13.1c-3.5,0-2.4-2.2-1.8-3.9l9.4-24.2h-18.2l-9.2,24.2c-0.5,1.1,0.1,3,1.5,3l-0.3,0.9h-13.1
		c-3.5,0-2.4-2.2-1.8-3.9l18.8-49.1c0.7-1.8,2.1-5.1-0.1-5.5l0.5-0.9h12.8C260.8,23.7,261,25.1,260.6,26.2z"/>
	<path d="M374.7,26.3c0.1-1.2-0.2-2.6-2.1-2.6h-16.8l-0.5,0.9c2.7,0.5,0.6,3.8-0.6,5.4l-36.8,49.2c-1.9,2.4-1.2,4,0.6,4h13.1
		l0.3-0.9c-2.1,0-2.3-2-1.6-3l7.8-10.8H357l-1,10.8c-0.1,1.5-0.7,3.9,2.8,3.9H370l0.3-0.9c-1.4,0-1.7-1.8-1.5-3L374.7,26.3z
		 M358.3,59.5h-14l16.5-23.6L358.3,59.5z"/>
</g>
<g id="Tagline">
	<path d="M74.9,14.8c0.1,1.7,1.2,2.6,3.2,2.6s3.1-1,3.1-2.5c0-0.8-0.3-1.4-1-1.8c-0.5-0.3-1.1-0.4-1.9-0.6c-1.3-0.4-1.9-0.4-1.9-1.1
		c0-0.6,0.5-1,1.3-1c1,0,1.5,0.4,1.6,1.2H81c-0.1-1.6-1.1-2.4-2.9-2.4c-2,0-3,0.9-3,2.3c0,0.8,0.3,1.5,0.9,1.8
		c0.5,0.3,1.1,0.4,1.8,0.6c1.5,0.3,2.1,0.5,2.1,1.2c0,0.7-0.5,1-1.4,1c-1.1,0-1.7-0.4-1.8-1.3H74.9"/>
	<path d="M87.2,11.4h-1.6v3.4c0,0.8-0.5,1.2-1.2,1.2s-0.9-0.4-0.9-1.2v-3.5h-1.6v3.9c0,1.3,0.6,2,1.9,2c0.7,0,1.3-0.3,1.8-0.9V17
		h1.5L87.2,11.4"/>
	<path d="M92.4,14.3c0,1.2-0.5,1.8-1.3,1.8c-0.8,0-1.3-0.6-1.3-1.8c0-1.1,0.5-1.7,1.3-1.7C91.9,12.5,92.4,13.2,92.4,14.3 M88.4,9.4
		v7.8h1.5v-0.8c0.5,0.7,1,1,1.7,1c1.4,0,2.3-1.2,2.3-3c0-1.9-1-3.1-2.3-3.1c-0.8,0-1.4,0.3-1.7,0.9V9.4H88.4z"/>
	<path d="M94.5,15.3L94.5,15.3c0,1.3,1,2.1,2.5,2.1c1.8,0,2.7-0.7,2.7-2c0-1.1-0.7-1.4-2-1.8c-1.1-0.3-1.6-0.3-1.6-0.7
		s0.3-0.5,0.9-0.5c0.6,0,1,0.3,1,0.8h1.5c-0.1-1.3-1-2-2.5-2c-1.5,0-2.3,0.8-2.3,2c0,1,0.7,1.4,2,1.8c1,0.3,1.5,0.2,1.5,0.7
		c0,0.4-0.3,0.6-1,0.6c-0.8,0-1.2-0.3-1.2-0.9L94.5,15.3"/>
	<path d="M103.1,17.2V16h-0.4c-0.4,0-0.5-0.1-0.5-0.4v-3.2h0.9v-1.1h-0.9V9.9h-1.6v1.6h-0.8v1.1h0.8v3.1c0,1.2,0.3,1.7,1.6,1.7
		C102.3,17.2,102.6,17.2,103.1,17.2"/>
	<path d="M107.1,14.4V15c0,0.8-0.5,1.3-1.4,1.3c-0.5,0-0.8-0.3-0.8-0.7c0-0.5,0.2-0.6,0.7-0.8C106,14.7,106.5,14.6,107.1,14.4
		 M107.1,16.4c0,0.3,0.1,0.5,0.2,0.7h1.6v-0.3c-0.3-0.1-0.3-0.4-0.3-0.8v-3.2c0-1.1-0.9-1.7-2.4-1.7c-1.5,0-2.3,0.7-2.3,1.9v0.1h1.5
		l0,0c0-0.5,0.3-0.7,1-0.7c0.7,0,1,0.2,1,0.7c0,0.6-0.4,0.5-1.6,0.7c-1.4,0.2-2,0.7-2,1.9s0.7,1.9,1.8,1.9
		C106.1,17.3,106.7,17,107.1,16.4z"/>
	<path d="M109.7,17.1h1.6v-3.4c0-0.8,0.5-1.2,1.2-1.2c0.7,0,0.9,0.4,0.9,1.2v3.5h1.6v-3.9c0-1.3-0.6-2-1.9-2c-0.7,0-1.3,0.3-1.8,0.9
		v-0.7h-1.5L109.7,17.1"/>
	<path d="M119.4,15c-0.1,0.7-0.5,1.1-1.1,1.1c-0.7,0-1.2-0.6-1.2-1.8s0.4-1.8,1.2-1.8c0.6,0,0.9,0.3,1,1h1.6
		c-0.1-1.4-1.1-2.2-2.5-2.2c-1.7,0-2.7,1.2-2.7,3c0,2,1,3,2.6,3c1.5,0,2.4-0.9,2.6-2.3H119.4"/>
	<path d="M123,13.7c0.1-0.8,0.5-1.2,1.2-1.2c0.7,0,1.1,0.4,1.2,1.2H123 M125.2,15.4c-0.2,0.5-0.5,0.7-1.1,0.7
		c-0.8,0-1.2-0.5-1.2-1.4h3.8c0-0.1,0-0.3,0-0.4c0-2-1-3.1-2.7-3.1c-1.7,0-2.6,1.2-2.6,3c0,2,1.1,3.1,2.7,3.1c1.4,0,2.3-0.8,2.6-2
		L125.2,15.4z"/>
	<path d="M132.7,9.4l-2.7,7.8h1.7l0.5-1.6h3l0.5,1.6h1.7l-2.8-7.8L132.7,9.4 M133.6,11l1.1,3.3h-2.1L133.6,11z"/>
	<path d="M141.8,14.3c0,1.2-0.5,1.8-1.3,1.8c-0.8,0-1.3-0.6-1.3-1.8c0-1.1,0.5-1.7,1.3-1.7C141.4,12.5,141.8,13.2,141.8,14.3
		 M137.8,9.4v7.8h1.5v-0.8c0.5,0.7,1,1,1.7,1c1.4,0,2.3-1.2,2.3-3c0-1.9-1-3.1-2.3-3.1c-0.8,0-1.4,0.3-1.7,0.9V9.4H137.8z"/>
	<path d="M149.3,11.4h-1.6v3.4c0,0.8-0.5,1.2-1.2,1.2s-0.9-0.4-0.9-1.2v-3.5h-1.6v3.9c0,1.3,0.6,2,1.9,2c0.7,0,1.3-0.3,1.8-0.9V17
		h1.5L149.3,11.4"/>
	<path d="M150.1,15.3L150.1,15.3c0,1.3,1,2.1,2.5,2.1c1.8,0,2.7-0.7,2.7-2c0-1.1-0.7-1.4-2-1.8c-1.1-0.3-1.6-0.3-1.6-0.7
		s0.3-0.5,0.9-0.5c0.6,0,1,0.3,1,0.8h1.5c-0.1-1.3-1-2-2.5-2c-1.5,0-2.3,0.8-2.3,2c0,1,0.7,1.4,2,1.8c1,0.3,1.5,0.2,1.5,0.7
		c0,0.4-0.3,0.6-1,0.6c-0.8,0-1.2-0.3-1.2-0.9L150.1,15.3"/>
	<path d="M157.4,13.7c0.1-0.8,0.5-1.2,1.2-1.2c0.7,0,1.1,0.4,1.2,1.2H157.4 M159.7,15.4c-0.2,0.5-0.5,0.7-1.1,0.7
		c-0.8,0-1.2-0.5-1.2-1.4h3.8c0-0.1,0-0.3,0-0.4c0-2-1-3.1-2.7-3.1c-1.7,0-2.6,1.2-2.6,3c0,2,1.1,3.1,2.7,3.1c1.4,0,2.3-0.8,2.6-2
		L159.7,15.4z"/>
	<path d="M168.4,14.4V15c0,0.8-0.5,1.3-1.4,1.3c-0.5,0-0.8-0.3-0.8-0.7c0-0.5,0.2-0.6,0.7-0.8C167.3,14.7,167.8,14.6,168.4,14.4
		 M168.4,16.4c0,0.3,0.1,0.5,0.2,0.7h1.6v-0.3c-0.3-0.1-0.3-0.4-0.3-0.8v-3.2c0-1.1-0.9-1.7-2.4-1.7c-1.5,0-2.3,0.7-2.3,1.9v0.1h1.5
		l0,0c0-0.5,0.3-0.7,1-0.7c0.7,0,1,0.2,1,0.7c0,0.6-0.4,0.5-1.6,0.7c-1.4,0.2-2,0.7-2,1.9s0.7,1.9,1.8,1.9
		C167.4,17.3,168,17,168.4,16.4z"/>
	<path d="M171,17.1h1.6v-3.4c0-0.8,0.5-1.2,1.2-1.2c0.7,0,0.9,0.4,0.9,1.2v3.5h1.6v-3.9c0-1.3-0.6-2-1.9-2c-0.7,0-1.3,0.3-1.8,0.9
		v-0.7h-1.5L171,17.1"/>
	<path d="M178.5,14.3c0-1.1,0.5-1.7,1.3-1.7c0.8,0,1.3,0.6,1.3,1.7c0,1.2-0.5,1.8-1.3,1.8C178.9,16,178.5,15.4,178.5,14.3
		 M182.5,9.4h-1.5v2.7c-0.4-0.6-1-0.9-1.7-0.9c-1.4,0-2.3,1.2-2.3,3.1c0,1.9,1,3,2.3,3c0.8,0,1.3-0.3,1.8-1v0.8h1.5L182.5,9.4
		L182.5,9.4z"/>
	<polyline points="186.8,17.1 188.3,17.1 188.3,10.9 189.9,17.1 191.5,17.1 193.1,10.9 193.1,17.1 194.6,17.1 194.6,9.4 192.2,9.4 
		190.7,15.3 189.2,9.4 186.8,9.4 186.8,17.1 	"/>
	<path d="M197.1,13.7c0.1-0.8,0.5-1.2,1.2-1.2c0.7,0,1.1,0.4,1.2,1.2H197.1 M199.3,15.4c-0.2,0.5-0.5,0.7-1.1,0.7
		c-0.8,0-1.2-0.5-1.2-1.4h3.8c0-0.1,0-0.3,0-0.4c0-2-1-3.1-2.7-3.1c-1.7,0-2.6,1.2-2.6,3c0,2,1.1,3.1,2.7,3.1c1.4,0,2.3-0.8,2.6-2
		L199.3,15.4z"/>
	<path d="M201.8,17.1h1.6v-3.4c0-0.8,0.5-1.2,1.2-1.2c0.7,0,0.9,0.4,0.9,1.2v3.5h1.6v-3.9c0-1.3-0.6-2-1.9-2c-0.7,0-1.3,0.3-1.8,0.9
		v-0.7h-1.5L201.8,17.1"/>
	<path d="M210.6,17.2V16h-0.4c-0.4,0-0.5-0.1-0.5-0.4v-3.2h0.9v-1.1h-0.9V9.9h-1.6v1.6h-0.8v1.1h0.8v3.1c0,1.2,0.3,1.7,1.6,1.7
		C209.8,17.2,210.1,17.2,210.6,17.2"/>
	<path d="M214.6,14.4V15c0,0.8-0.5,1.3-1.4,1.3c-0.5,0-0.8-0.3-0.8-0.7c0-0.5,0.2-0.6,0.7-0.8C213.5,14.7,214,14.6,214.6,14.4
		 M214.6,16.4c0,0.3,0.1,0.5,0.2,0.7h1.6v-0.3c-0.3-0.1-0.3-0.4-0.3-0.8v-3.2c0-1.1-0.9-1.7-2.4-1.7c-1.5,0-2.3,0.7-2.3,1.9v0.1h1.5
		l0,0c0-0.5,0.3-0.7,1-0.7s1,0.2,1,0.7c0,0.6-0.4,0.5-1.6,0.7c-1.4,0.2-2,0.7-2,1.9s0.7,1.9,1.8,1.9C213.6,17.3,214.3,17,214.6,16.4
		z"/>
	<rect x="217.3" y="9.4" width="1.6" height="7.8"/>
	<polyline points="223.2,17.1 224.8,17.1 224.8,13.7 228,13.7 228,17.1 229.6,17.1 229.6,9.4 228,9.4 228,12.2 224.8,12.2 
		224.8,9.4 223.2,9.4 223.2,17.1 	"/>
	<path d="M232.1,13.7c0.1-0.8,0.5-1.2,1.2-1.2c0.7,0,1.1,0.4,1.2,1.2H232.1 M234.4,15.4c-0.2,0.5-0.5,0.7-1.1,0.7
		c-0.8,0-1.2-0.5-1.2-1.4h3.8c0-0.1,0-0.3,0-0.4c0-2-1-3.1-2.7-3.1c-1.7,0-2.6,1.2-2.6,3c0,2,1.1,3.1,2.7,3.1c1.4,0,2.3-0.8,2.6-2
		L234.4,15.4z"/>
	<path d="M240.1,14.4V15c0,0.8-0.5,1.3-1.4,1.3c-0.5,0-0.8-0.3-0.8-0.7c0-0.5,0.2-0.6,0.7-0.8C239,14.7,239.5,14.6,240.1,14.4
		 M240.1,16.4c0,0.3,0.1,0.5,0.2,0.7h1.6v-0.3c-0.3-0.1-0.3-0.4-0.3-0.8v-3.2c0-1.1-0.9-1.7-2.4-1.7c-1.5,0-2.3,0.7-2.3,1.9v0.1h1.5
		l0,0c0-0.5,0.3-0.7,1-0.7c0.7,0,1,0.2,1,0.7c0,0.6-0.4,0.5-1.6,0.7c-1.4,0.2-2,0.7-2,1.9s0.7,1.9,1.8,1.9
		C239.1,17.3,239.7,17,240.1,16.4z"/>
	<rect x="242.7" y="9.4" width="1.6" height="7.8"/>
	<path d="M248.1,17.2V16h-0.4c-0.4,0-0.5-0.1-0.5-0.4v-3.2h0.9v-1.1h-0.9V9.9h-1.6v1.6h-0.8v1.1h0.8v3.1c0,1.2,0.3,1.7,1.6,1.7
		C247.4,17.2,247.7,17.2,248.1,17.2"/>
	<path d="M248.9,17.1h1.6v-3.4c0-0.8,0.5-1.2,1.2-1.2c0.9,0,0.9,0.6,0.9,1.6v3h1.6v-3.8c0-0.6,0-1-0.3-1.4c-0.3-0.4-0.9-0.7-1.6-0.7
		c-0.7,0-1.3,0.3-1.7,0.8V9.4H249L248.9,17.1"/>
	<path d="M257.9,14.8c0.1,1.7,1.3,2.6,3.2,2.6c2.1,0,3.1-1,3.1-2.5c0-0.8-0.3-1.4-1-1.8c-0.5-0.3-1.1-0.4-1.9-0.6
		c-1.3-0.3-1.9-0.3-1.9-1.1c0-0.6,0.5-1,1.3-1c1,0,1.5,0.4,1.6,1.2h1.6c-0.1-1.6-1.1-2.4-2.9-2.4c-2,0-3,0.9-3,2.3
		c0,0.8,0.3,1.5,0.9,1.8c0.5,0.3,1.1,0.4,1.8,0.6c1.5,0.3,2.1,0.5,2.1,1.2c0,0.7-0.5,1-1.4,1c-1.1,0-1.7-0.4-1.8-1.3L257.9,14.8"/>
	<path d="M266.4,13.7c0.1-0.8,0.5-1.2,1.2-1.2c0.7,0,1.1,0.4,1.2,1.2H266.4 M268.7,15.4c-0.2,0.5-0.5,0.7-1.1,0.7
		c-0.8,0-1.2-0.5-1.2-1.4h3.8c0-0.1,0-0.3,0-0.4c0-2-1-3.1-2.7-3.1c-1.7,0-2.6,1.2-2.6,3c0,2,1.1,3.1,2.7,3.1c1.4,0,2.3-0.8,2.6-2
		L268.7,15.4z"/>
	<path d="M271.1,17.1h1.6v-3c0-0.9,0.4-1.3,1.3-1.3h0.5v-1.6c-0.1,0-0.2,0-0.2,0c-0.8,0-1.3,0.4-1.7,1.2v-1h-1.5L271.1,17.1"/>
	<polyline points="276.5,17.1 278,17.1 280.1,11.4 278.5,11.4 277.4,15.5 276.2,11.4 274.4,11.4 276.5,17.1 	"/>
	<path d="M280.7,17.1h1.6v-5.8h-1.6V17.1z M280.7,10.8h1.6V9.4h-1.6V10.8z"/>
	<path d="M286.9,15c-0.1,0.7-0.5,1.1-1.1,1.1c-0.7,0-1.2-0.6-1.2-1.8s0.4-1.8,1.2-1.8c0.6,0,0.9,0.3,1,1h1.6
		c-0.1-1.4-1.1-2.2-2.5-2.2c-1.7,0-2.7,1.2-2.7,3c0,2,1,3,2.6,3c1.5,0,2.4-0.9,2.6-2.3H286.9"/>
	<path d="M290.5,13.7c0.1-0.8,0.5-1.2,1.1-1.2c0.7,0,1.1,0.4,1.2,1.2H290.5 M292.8,15.4c-0.2,0.5-0.5,0.7-1.1,0.7
		c-0.8,0-1.2-0.5-1.2-1.4h3.8c0-0.1,0-0.3,0-0.4c0-2-1-3.1-2.7-3.1c-1.7,0-2.6,1.2-2.6,3c0,2,1.1,3.1,2.7,3.1c1.4,0,2.3-0.8,2.6-2
		L292.8,15.4z"/>
	<path d="M294.9,15.3L294.9,15.3c0,1.3,1,2.1,2.5,2.1c1.8,0,2.7-0.7,2.7-2c0-1.1-0.7-1.4-2-1.8c-1.1-0.3-1.6-0.3-1.6-0.7
		s0.3-0.5,0.9-0.5s1,0.3,1,0.8h1.5c-0.1-1.3-1-2-2.5-2c-1.5,0-2.3,0.8-2.3,2c0,1,0.7,1.4,2,1.8c1,0.3,1.5,0.2,1.5,0.7
		c0,0.4-0.3,0.6-1,0.6c-0.8,0-1.2-0.3-1.2-0.9L294.9,15.3"/>
	<path d="M306,9.4l-2.7,7.8h1.7l0.5-1.6h3l0.5,1.6h1.7l-2.8-7.8L306,9.4 M306.9,11l1.1,3.3h-2.1L306.9,11z"/>
	<path d="M312.3,14.3c0-1.1,0.5-1.7,1.3-1.7c0.8,0,1.3,0.6,1.3,1.7c0,1.2-0.5,1.8-1.3,1.8C312.8,16,312.3,15.4,312.3,14.3
		 M316.3,9.4h-1.5v2.7c-0.4-0.6-1-0.9-1.7-0.9c-1.4,0-2.3,1.2-2.3,3.1c0,1.9,1,3,2.3,3c0.8,0,1.3-0.3,1.8-1v0.8h1.5L316.3,9.4
		L316.3,9.4z"/>
	<path d="M317.5,17.1h1.5v-3.5c0-0.7,0.4-1.1,1-1.1c0.5,0,0.9,0.3,0.9,0.9v3.7h1.5v-3.5c0-0.7,0.4-1.1,1-1.1c0.5,0,0.9,0.3,0.9,0.9
		v3.7h1.5v-4c0-1.2-0.7-1.9-1.9-1.9c-0.7,0-1.3,0.3-1.7,0.9c-0.4-0.6-0.9-0.9-1.6-0.9s-1.2,0.3-1.6,0.8v-0.7h-1.5L317.5,17.1"/>
	<path d="M326.8,17.1h1.6v-5.8h-1.6V17.1z M326.8,10.8h1.6V9.4h-1.6V10.8z"/>
	<path d="M329.6,17.1h1.6v-3.4c0-0.8,0.5-1.2,1.2-1.2s0.9,0.4,0.9,1.2v3.5h1.6v-3.9c0-1.3-0.6-2-1.9-2c-0.7,0-1.3,0.3-1.8,0.9v-0.7
		h-1.5L329.6,17.1"/>
	<path d="M335.9,17.1h1.6v-5.8h-1.6V17.1z M335.9,10.8h1.6V9.4h-1.6V10.8z"/>
	<path d="M338.3,15.3L338.3,15.3c0,1.3,1,2.1,2.5,2.1c1.8,0,2.7-0.7,2.7-2c0-1.1-0.7-1.4-2-1.8c-1.1-0.3-1.6-0.3-1.6-0.7
		s0.3-0.5,0.9-0.5c0.6,0,1,0.3,1,0.8h1.5c-0.1-1.3-1-2-2.5-2c-1.5,0-2.3,0.8-2.3,2c0,1,0.7,1.4,2,1.8c1,0.3,1.6,0.2,1.6,0.7
		c0,0.4-0.3,0.6-1,0.6c-0.8,0-1.2-0.3-1.2-0.9L338.3,15.3"/>
	<path d="M346.9,17.2V16h-0.4c-0.4,0-0.5-0.1-0.5-0.4v-3.2h0.9v-1.1H346V9.9h-1.6v1.6h-0.7v1.1h0.8v3.1c0,1.2,0.3,1.7,1.6,1.7
		C346.2,17.2,346.5,17.2,346.9,17.2"/>
	<path d="M347.7,17.1h1.6v-3c0-0.9,0.4-1.3,1.3-1.3h0.5v-1.6c-0.1,0-0.2,0-0.2,0c-0.8,0-1.3,0.4-1.7,1.2v-1h-1.5V17.1"/>
	<path d="M355,14.4V15c0,0.8-0.5,1.3-1.4,1.3c-0.5,0-0.8-0.3-0.8-0.7c0-0.5,0.2-0.6,0.7-0.8C353.9,14.7,354.4,14.6,355,14.4
		 M355,16.4c0,0.3,0.1,0.5,0.2,0.7h1.6v-0.3c-0.3-0.1-0.3-0.4-0.3-0.8v-3.2c0-1.1-0.9-1.7-2.4-1.7c-1.5,0-2.3,0.7-2.3,1.9v0.1h1.5
		l0,0c0-0.5,0.3-0.7,1-0.7s1,0.2,1,0.7c0,0.6-0.4,0.5-1.6,0.7c-1.4,0.2-2,0.7-2,1.9s0.7,1.9,1.8,1.9C354,17.3,354.6,17,355,16.4z"/>
	<path d="M360.2,17.2V16h-0.4c-0.4,0-0.5-0.1-0.5-0.4v-3.2h0.9v-1.1h-0.9V9.9h-1.6v1.6h-0.8v1.1h0.8v3.1c0,1.2,0.3,1.7,1.6,1.7
		C359.5,17.2,359.8,17.2,360.2,17.2"/>
	<path d="M360.9,17.1h1.6v-5.8h-1.6V17.1z M360.9,10.8h1.6V9.4h-1.6V10.8z"/>
	<path d="M363.5,14.3c0,2,1.1,3,2.9,3c1.8,0,2.9-1.2,2.9-3c0-2-1.1-3-2.9-3C364.6,11.3,363.5,12.3,363.5,14.3 M365,14.3
		c0-1.2,0.5-1.8,1.4-1.8s1.4,0.6,1.4,1.8s-0.5,1.8-1.4,1.8S365,15.4,365,14.3z"/>
	<path d="M370.1,17.1h1.6v-3.4c0-0.8,0.5-1.2,1.2-1.2c0.7,0,0.9,0.4,0.9,1.2v3.5h1.6v-3.9c0-1.3-0.6-2-1.9-2c-0.7,0-1.3,0.3-1.8,0.9
		v-0.7h-1.6V17.1"/>
</g>
<g id="Icon">
	<path d="M43,53.3c-0.8-1.5-2.3-3.5-4.4-3.4c-0.9,0.1-2.1,0.7-3.4,1.8c-1.3,1.1-2.8,2.6-4.3,4.5c-1.5,1.9-3.1,4-4.9,6.4
		c-2.6,3.7-5.2,7.8-7.8,11.9c-2.6,4.1-5,8.2-7.1,11.9c-2.1,3.7-3.8,6.9-5.1,9.2s-2,3.7-2,3.7s3.9-4.6,9.2-10.3s11.7-12.6,16.8-17
		c3.3-2.8,5.9-4.7,7.2-4.7c1.6,0,3.4,1.6,5,3.7c4.1,5.5,7.6,14.9,7.6,14.9s-0.1-1.5-0.3-3.8c-0.2-2.3-0.6-5.6-1.2-9.2
		c-0.6-3.5-1.3-7.3-2.1-10.8C45.4,58.7,44.3,55.5,43,53.3"/>
	<path d="M35.1,46.1c0.8,1.5,2.3,3.5,4.4,3.4c0.9-0.1,2.1-0.7,3.4-1.8c1.3-1.1,2.8-2.6,4.3-4.5c1.5-1.9,3.1-4,4.9-6.4
		c2.6-3.7,5.2-7.8,7.8-11.9c2.6-4.1,5-8.2,7.1-11.9s3.8-6.9,5.1-9.2c1.3-2.3,2-3.7,2-3.7s-3.9,4.6-9.2,10.3
		C59.6,16,53.1,22.9,48,27.3c-3.3,2.8-5.9,4.7-7.3,4.7c-1.6,0-3.4-1.6-5-3.7c-4.1-5.5-7.6-14.9-7.6-14.9s0.1,1.5,0.3,3.8
		c0.2,2.3,0.6,5.6,1.2,9.2c0.6,3.5,1.3,7.3,2.1,10.8C32.8,40.7,33.9,43.9,35.1,46.1"/>
	<ellipse cx="41.8" cy="21.1" rx="5.7" ry="5.9"/>
</g>
</svg>
