<svg xmlns="http://www.w3.org/2000/svg" width="11" height="12" viewBox="0 0 11 12">
  <path fill="#1E384B" fill-rule="evenodd" d="M5.60003125,0 C5.6973125,0 5.78342187,0.0364375 5.8581875,0.11 L6.41935937,0.66103125 C6.49395312,0.734421875 6.53125,0.818984375 6.53125,0.91471875 C6.53125,1.0099375 6.494125,1.09467187 6.41935937,1.1680625 L2.70857812,4.8125 L10.6230781,4.8125 C10.7155469,4.8125 10.7958125,4.83896875 10.8637031,4.89173437 L10.888625,4.91270313 C10.9615,4.97973437 10.9979375,5.0606875 10.9979375,5.15625 L10.9979375,5.84375 C10.9979375,5.9393125 10.9615,6.0204375 10.888625,6.08729687 C10.81575,6.15415625 10.7270625,6.1875 10.6230781,6.1875 L2.70875,6.1875 L6.41884375,9.83176563 C6.48535937,9.89707813 6.5223125,9.97098438 6.52970312,10.0538281 L6.53107812,10.0852813 C6.53107812,10.1806719 6.49360938,10.2652344 6.41884375,10.3387969 L5.85801563,10.8896563 C5.78325,10.9632187 5.69714063,11 5.59985938,11 C5.50257812,11 5.41664063,10.9633906 5.34170313,10.8898281 L0.112234375,5.75351563 C0.03746875,5.680125 0,5.59539063 0,5.5 C0,5.4044375 0.03746875,5.319875 0.112234375,5.24665625 L5.341875,0.109828125 C5.41664063,0.0364375 5.50275,0 5.60003125,0 Z" transform="translate(0 .456)"/>
</svg>
