<svg id="Layer_1" data-name="Layer 1" xmlns="http://www.w3.org/2000/svg" width="19" height="25" viewBox="0 0 19 25">
  <defs>
    <style>
      .cls-1 {
        fill: #556080;
      }

      .cls-2, .cls-3 {
        fill: #fff;
      }

      .cls-2 {
        opacity: 0.49;
      }
    </style>
  </defs>
  <title>zip</title>
  <g id="Symbols">
    <g id="Download-Block-x3-bastard">
      <g id="Group-11">
        <g id="Group-10-Copy">
          <g id="PDF-2">
            <g id="PDF">
              <polygon id="Shape-Copy-22" class="cls-1" points="18.947 24.851 0 24.851 0 0 13.026 0 18.947 5.917 18.947 24.851"/>
              <polygon id="Shape-Copy-21" class="cls-2" points="18.137 6.556 12.512 6.556 12.512 0.935 18.137 6.556"/>
            </g>
          </g>
        </g>
      </g>
    </g>
  </g>
  <g>
    <path class="cls-3" d="M9.89847,17.029v-.84767h.84769v-.85035H9.89847v-.85035h.84769v-.84766H9.89847v-.85035h.84769v-.8477H9.89847v-.85033h.84769v-.85034H9.89847V9.38652H9.04812v.84769H8.1978v.85034h.85032v.85033H8.1978v.8477h.85032v.85035H8.1978v.84766h.85032v.85035H8.1978v.85035h.85032V17.029H7.3501v2.1232a2.12319,2.12319,0,1,0,4.24637,0V17.029Zm.84769,2.1232a1.27418,1.27418,0,1,1-2.54836,0V17.8793h2.54836Zm0,0"/>
    <path class="cls-3" d="M9.04812,19.57733h.85035a.42517.42517,0,0,0,0-.85033H9.04812a.42517.42517,0,0,0,0,.85033Zm0,0"/>
  </g>
</svg>
