<svg id="Layer_1" data-name="Layer 1" xmlns="http://www.w3.org/2000/svg" width="19" height="25" viewBox="0 0 19 25">
  <defs>
    <style>
      .cls-1 {
        fill: #c61716;
      }

      .cls-2 {
        fill: #ff7f7f;
      }

      .cls-3 {
        fill: #fff;
        fill-rule: evenodd;
      }
    </style>
  </defs>
  <title>pdf</title>
  <g id="Symbols">
    <g id="Download-Block-x3-bastard">
      <g id="Group-11">
        <g id="Group-10-Copy">
          <g id="PDF-2">
            <g id="PDF">
              <polygon id="Shape-Copy-22" class="cls-1" points="18.947 24.851 0 24.851 0 0 13.026 0 18.947 5.917 18.947 24.851"/>
              <polygon id="Shape-Copy-21" class="cls-2" points="18.137 6.556 12.512 6.556 12.512 0.935 18.137 6.556"/>
              <path id="_" data-name="" class="cls-3" d="M8.96944,14.63214a5.22074,5.22074,0,0,0,.49918.89056,3.6648,3.6648,0,0,0,.61439.68406l.29439.23232q-.47358.09035-1.10717.25168a11.23457,11.23457,0,0,0-1.32477.43238l-.0768.02581.35839-.7615q.24319-.47754.42879-.91637T8.96944,14.63214ZM13.67972,17.42a.57818.57818,0,0,0,.1536-.213.67977.67977,0,0,0,.0512-.26459.476.476,0,0,0,0-.21941.44906.44906,0,0,0-.0896-.1807.95167.95167,0,0,0-.56318-.3872,3.72621,3.72621,0,0,0-1.088-.12906l-.94718.05162-.62718-.42592a3.09742,3.09742,0,0,1-.64639-.768,5.60071,5.60071,0,0,1-.51838-1.10353l.0256-.10325A11.61908,11.61908,0,0,0,9.69262,12.167a1.34406,1.34406,0,0,0-.27519-1.13579.58872.58872,0,0,0-.2048-.13552.66025.66025,0,0,0-.24319-.04517H8.803a.49649.49649,0,0,0-.37119.18069.7805.7805,0,0,0-.2048.3872,3.004,3.004,0,0,0-.128,1.2326A8.58585,8.58585,0,0,0,8.38065,13.819v.01291q-.128.47755-.32,1.02609a11.47116,11.47116,0,0,1-.46079,1.11643l-.704,1.32939-.65279.36139a3.738,3.738,0,0,0-.97918.83894,1.811,1.811,0,0,0-.37759.70987.65044.65044,0,0,0-.0192.2.708.708,0,0,0,.0448.20006l.0256.03871.34559.21942.32.09035a1.42711,1.42711,0,0,0,.96637-.54209,9.32842,9.32842,0,0,0,1.19677-1.71659l.1408-.05163a10.032,10.032,0,0,1,1.28-.30976q.71679-.12906,1.65116-.24523a5.03837,5.03837,0,0,0,1.16477.41947,4.78377,4.78377,0,0,0,1.024.13552,1.20761,1.20761,0,0,0,.39679-.05808A.53572.53572,0,0,0,13.67972,17.42Zm-.29439-.51627.064.07744q0,.06455-.0192.07744a.41719.41719,0,0,1-.0448.02582h-.0256l-.14079.0129a2.34481,2.34481,0,0,1-.62079-.10325,6.5255,6.5255,0,0,1-.76158-.271.28688.28688,0,0,1,.0832-.06454.22555.22555,0,0,1,.08319-.0129,3.53261,3.53261,0,0,1,1.04958.10325A1.21223,1.21223,0,0,1,13.38533,16.90372ZM6.70389,17.975a5.22107,5.22107,0,0,1-.66558,1.01963,1.57635,1.57635,0,0,1-.56319.45174,1.37466,1.37466,0,0,1,.26239-.54854,4.10036,4.10036,0,0,1,.62079-.69051Zm2.20155-5.07234a3.78242,3.78242,0,0,1-.1344-.88411,1.70431,1.70431,0,0,1,.0832-.626l.0512-.07744.11519.02581A.69491.69491,0,0,1,9.123,11.67a2.115,2.115,0,0,1-.0384.484l-.0256.11616-.11519.60661Z"/>
            </g>
          </g>
        </g>
      </g>
    </g>
  </g>
</svg>
