<?xml version="1.0" encoding="UTF-8"?>
<svg width="21px" height="19px" viewBox="0 0 21 19" version="1.1" xmlns="http://www.w3.org/2000/svg" xmlns:xlink="http://www.w3.org/1999/xlink">
    <!-- Generator: Sketch 61.1 (89650) - https://sketch.com -->
    <title>shopping-cart</title>
    <desc>Created with Sketch.</desc>
    <defs>
        <path d="M32.0041735,23.0932488 L33.6455976,15.7807469 C33.7641046,15.2527702 33.3677503,14.7500006 32.8329932,14.7500006 L19.1947258,14.7500006 L18.8764618,13.1746486 C18.7971563,12.7819884 18.4559062,12.5 18.060038,12.5 L14.5000024,12.5 C14.0397592,12.5 13.6666688,12.877754 13.6666688,13.3437502 L13.6666688,13.9062504 C13.6666688,14.3722466 14.0397592,14.7500006 14.5000024,14.7500006 L16.926496,14.7500006 L19.3656633,26.8238904 C18.7821215,27.1636757 18.3888923,27.8007774 18.3888923,28.5312541 C18.3888923,29.6185669 19.259448,30.5 20.3333372,30.5 C21.4072264,30.5 22.2777821,29.6185669 22.2777821,28.5312541 C22.2777821,27.9802149 22.0539279,27.4823671 21.6936153,27.1250038 L28.9730269,27.1250038 C28.6127491,27.4823671 28.3888948,27.9802149 28.3888948,28.5312541 C28.3888948,29.6185669 29.2594506,30.5 30.3333398,30.5 C31.4072289,30.5 32.2777847,29.6185669 32.2777847,28.5312541 C32.2777847,27.7517696 31.8302846,27.0781756 31.1812914,26.7592029 L31.3728539,25.9057496 C31.4913609,25.3777729 31.0950066,24.8750032 30.5602496,24.8750032 L21.2401777,24.8750032 L21.0129207,23.7500029 L31.1915692,23.7500029 C31.5806665,23.7500029 31.9179582,23.4774013 32.0041735,23.0932488 Z" id="path-1"></path>
    </defs>
    <g id="Home" stroke="none" stroke-width="1" fill="none" fill-rule="evenodd">
        <g id="Desktop-Head-A---Product" transform="translate(-997.000000, -710.000000)">
            <g id="Group-4" transform="translate(984.000000, 698.000000)">
                <mask id="mask-2" fill="white">
                    <use xlink:href="#path-1"></use>
                </mask>
                <use id="shopping-cart" fill="#1D384C" fill-rule="nonzero" xlink:href="#path-1"></use>
            </g>
        </g>
    </g>
</svg>