<?xml version="1.0" encoding="utf-8"?>
<!-- Generator: Adobe Illustrator 22.0.1, SVG Export Plug-In . SVG Version: 6.00 Build 0)  -->
<svg version="1.1" id="Layer_1" xmlns="http://www.w3.org/2000/svg" xmlns:xlink="http://www.w3.org/1999/xlink" x="0px" y="0px"
	 viewBox="0 0 32 32" style="enable-background:new 0 0 32 32;" xml:space="preserve">
<style type="text/css">
	.st0{fill:#FFFFFF;}
</style>
<g>
	<path class="st0" d="M29.1,31.6c-0.6,0-1.3-0.3-1.7-0.7L21,24.5c-2.2,1.5-4.8,2.3-7.5,2.3c-7.3,0-13.2-5.9-13.2-13.2
		S6.3,0.5,13.6,0.5s13.2,5.9,13.2,13.2c0,2.7-0.8,5.3-2.3,7.5l6.4,6.4c0.4,0.4,0.7,1,0.7,1.7C31.5,30.5,30.4,31.6,29.1,31.6z
		 M13.6,5.2c-4.6,0-8.4,3.8-8.4,8.4S8.9,22,13.6,22s8.4-3.8,8.4-8.4S18.2,5.2,13.6,5.2z"/>
</g>
</svg>
