<?xml version="1.0" encoding="UTF-8"?>
<svg width="20px" height="20px" viewBox="0 0 20 20" version="1.1" xmlns="http://www.w3.org/2000/svg" xmlns:xlink="http://www.w3.org/1999/xlink">
    <!-- Generator: Sketch 61.1 (89650) - https://sketch.com -->
    <title>download</title>
    <desc>Created with Sketch.</desc>
    <g id="Symbols" stroke="none" stroke-width="1" fill="none" fill-rule="evenodd">
        <g id="Download-Block-x3-bastard" transform="translate(-12.000000, -10.000000)" fill="#1D384C" fill-rule="nonzero">
            <g id="Group-11">
                <path d="M20.4375,10 L23.5625,10 C24.0820312,10 24.5,10.4179688 24.5,10.9375 L24.5,17.5 L27.9257812,17.5 C28.6210937,17.5 28.96875,18.3398438 28.4765625,18.8320312 L22.5351562,24.7773438 C22.2421875,25.0703125 21.7617187,25.0703125 21.46875,24.7773438 L15.5195312,18.8320312 C15.0273438,18.3398438 15.375,17.5 16.0703125,17.5 L19.5,17.5 L19.5,10.9375 C19.5,10.4179688 19.9179688,10 20.4375,10 Z M32,24.6875 L32,29.0625 C32,29.5820312 31.5820312,30 31.0625,30 L12.9375,30 C12.4179688,30 12,29.5820312 12,29.0625 L12,24.6875 C12,24.1679688 12.4179688,23.75 12.9375,23.75 L18.6679688,23.75 L20.5820312,25.6640625 C21.3671875,26.4492188 22.6328125,26.4492188 23.4179688,25.6640625 L25.3320312,23.75 L31.0625,23.75 C31.5820312,23.75 32,24.1679688 32,24.6875 Z M27.15625,28.125 C27.15625,27.6953125 26.8046875,27.34375 26.375,27.34375 C25.9453125,27.34375 25.59375,27.6953125 25.59375,28.125 C25.59375,28.5546875 25.9453125,28.90625 26.375,28.90625 C26.8046875,28.90625 27.15625,28.5546875 27.15625,28.125 Z M29.65625,28.125 C29.65625,27.6953125 29.3046875,27.34375 28.875,27.34375 C28.4453125,27.34375 28.09375,27.6953125 28.09375,28.125 C28.09375,28.5546875 28.4453125,28.90625 28.875,28.90625 C29.3046875,28.90625 29.65625,28.5546875 29.65625,28.125 Z" id="download"></path>
            </g>
        </g>
    </g>
</svg>