<?xml version="1.0" encoding="UTF-8"?>
<svg width="18px" height="20px" viewBox="0 0 18 20" version="1.1" xmlns="http://www.w3.org/2000/svg" xmlns:xlink="http://www.w3.org/1999/xlink">
    <!-- Generator: Sketch 61.1 (89650) - https://sketch.com -->
    <title>paperclip</title>
    <desc>Created with Sketch.</desc>
    <g id="Symbols" stroke="none" stroke-width="1" fill="none" fill-rule="evenodd">
        <g id="Related-Resources-bastard" transform="translate(-13.000000, -58.000000)" fill="#1F419A" fill-rule="nonzero">
            <g id="Group-11">
                <g id="Group-10" transform="translate(13.000000, 54.000000)">
                    <path d="M1.73755205,22.2086648 C-0.610079894,19.8536292 -0.566325466,16.0559004 1.79323951,13.7094194 L10.2210895,5.32814259 C12.0016416,3.55736393 14.8959026,3.55720768 16.6766153,5.32814259 C18.4400514,7.08181191 18.4421808,9.91129996 16.6766153,11.6670396 L9.33000993,18.9659352 C8.1304797,20.158785 6.17065099,20.1421444 4.99145109,18.9269509 C3.85540295,17.7562494 3.89184488,15.9006662 5.04979033,14.7491054 L10.8251739,9.01337158 C11.0735576,8.76673132 11.4805662,8.76251258 11.7342534,9.00395754 L12.652775,9.87813595 C12.9065025,10.11962 12.9108016,10.5153225 12.662458,10.7619628 L6.88767717,16.4971497 C6.68951663,16.6942197 6.67730235,17.0216802 6.86164148,17.2116799 C7.03730205,17.3926953 7.31344914,17.3957031 7.49196238,17.2181252 L14.8385678,9.9192687 C15.6265894,9.13559797 15.6265894,7.85970139 14.8381258,7.07560098 C14.0671399,6.30892241 12.8309266,6.30853179 12.0596192,7.07560098 L3.63172903,15.4568387 C2.23500253,16.8458992 2.21346683,19.0943334 3.58387639,20.469058 C4.95034845,21.8398763 7.15916355,21.841595 8.52816686,20.4802298 L15.441286,13.6052789 C15.6894689,13.3584434 16.0964774,13.3539902 16.3503656,13.595279 L17.26953,14.4688714 C17.5234182,14.7101601 17.5280387,15.1058627 17.2798157,15.3526983 L10.3666966,22.2276101 C7.97302001,24.6079972 4.10113488,24.5797942 1.73755205,22.2086648 Z" id="paperclip"></path>
                </g>
            </g>
        </g>
    </g>
</svg>