<svg xmlns="http://www.w3.org/2000/svg" width="11" height="12" viewBox="0 0 11 12">
  <path fill="#1E384B" d="M1.36363636,6.83667933 C1.36363636,5.762344 1.82045455,4.78567553 2.56363636,4.0759631 L1.59545455,3.15138361 C0.573677852,4.12964458 -9.05911127e-05,5.45497622 0,6.83667933 C0,9.49321758 2.07954545,11.680955 4.77272727,12 L4.77272727,10.6847531 C2.84318182,10.3722192 1.36363636,8.77048291 1.36363636,6.83667933 Z M10.9090909,6.83667933 C10.9090909,3.95876289 8.46818182,1.62778079 5.45454545,1.62778079 C5.41363636,1.62778079 5.37272727,1.63429192 5.33181818,1.63429192 L6.075,0.92457949 L5.11363636,0 L2.72727273,2.27889311 L5.11363636,4.55778622 L6.075,3.63971785 L5.33863636,2.93651655 C5.37954545,2.93651655 5.42045455,2.93000543 5.45454545,2.93000543 C7.71136364,2.93000543 9.54545455,4.68149756 9.54545455,6.83667933 C9.54545455,8.77048291 8.06590909,10.3722192 6.13636364,10.6847531 L6.13636364,12 C8.82954545,11.680955 10.9090909,9.49321758 10.9090909,6.83667933 Z"/>
</svg>
