<svg id="Layer_1" data-name="Layer 1" xmlns="http://www.w3.org/2000/svg" width="19" height="25" viewBox="0 0 19 25">
  <defs>
    <style>
      .cls-1 {
        fill: #0096e6;
      }

      .cls-2, .cls-3 {
        fill: #fff;
      }

      .cls-2 {
        opacity: 0.49;
      }
    </style>
  </defs>
  <title>doc</title>
  <g id="Symbols">
    <g id="Download-Block-x3-bastard">
      <g id="Group-11">
        <g id="Group-10-Copy">
          <g id="PDF-2">
            <g id="PDF">
              <polygon id="Shape-Copy-22" class="cls-1" points="18.973 24.851 0.027 24.851 0.027 0 13.052 0 18.973 5.917 18.973 24.851"/>
              <polygon id="Shape-Copy-21" class="cls-2" points="18.164 6.556 12.539 6.556 12.539 0.935 18.164 6.556"/>
            </g>
            <g>
              <path class="cls-3" d="M5.90389,12.07234H3.63129a.378.378,0,1,1,0-.756h2.2726a.378.378,0,0,1,0,.756Zm0,0"/>
              <path class="cls-3" d="M7.039,13.96577H3.63129a.378.378,0,1,1,0-.75594H7.039a.378.378,0,1,1,0,.75594Zm0,0"/>
              <path class="cls-3" d="M8.55329,13.96577a.37574.37574,0,0,1-.37916-.37679.38034.38034,0,0,1,.64944-.27028.387.387,0,0,1,0,.53821.40029.40029,0,0,1-.27028.10886Zm0,0"/>
              <path class="cls-3" d="M13.09849,13.96577H10.06756a.378.378,0,0,1,0-.75594h3.03093a.378.378,0,1,1,0,.75594Zm0,0"/>
              <path class="cls-3" d="M3.63129,19.64609a.40029.40029,0,0,1-.27029-.10886.387.387,0,0,1,0-.53821.39615.39615,0,0,1,.53822,0,.392.392,0,0,1,.11123.27028.37574.37574,0,0,1-.37916.37679Zm0,0"/>
              <path class="cls-3" d="M8.17413,19.64609H5.14558a.378.378,0,1,1,0-.75593H8.17413a.378.378,0,1,1,0,.75593Zm0,0"/>
              <path class="cls-3" d="M15.37109,13.96577h-.75833a.378.378,0,1,1,0-.75594h.75833a.378.378,0,0,1,0,.75594Zm0,0"/>
              <path class="cls-3" d="M11.961,15.85922H3.63129a.378.378,0,1,1,0-.756H11.961a.378.378,0,1,1,0,.756Zm0,0"/>
              <path class="cls-3" d="M15.37109,15.85922h-2.2726a.378.378,0,1,1,0-.756h2.2726a.378.378,0,0,1,0,.756Zm0,0"/>
              <path class="cls-3" d="M5.14558,17.75267H3.63129a.378.378,0,1,1,0-.756H5.14558a.378.378,0,1,1,0,.756Zm0,0"/>
              <path class="cls-3" d="M10.44673,17.75267H6.65984a.378.378,0,1,1,0-.756h3.78689a.378.378,0,1,1,0,.756Zm0,0"/>
              <path class="cls-3" d="M15.37109,17.75267H11.961a.378.378,0,0,1,0-.756h3.41009a.378.378,0,0,1,0,.756Zm0,0"/>
            </g>
          </g>
        </g>
      </g>
    </g>
  </g>
</svg>
