<svg id="SAMHSA_Logo" xmlns="http://www.w3.org/2000/svg" viewBox="0 0 385 100"><path d="M115.8 23.7H96.4c-6.6 0-13.2 3.1-16.1 7.5-3.3 4.9-5.9 9.7-7 13.9-.9 3.6.1 6.8 2.8 9 3.6 3.2 14 3.2 15.2 7.8 1.3 4.9-3.6 11.3-8.8 11.3H68.7c-3.2 0-5.1-.7-4.7-3.7h-1.1l-4.3 10.9c-.6 1.5-.2 2.7 2.6 2.7h23.1c5.5 0 10.4-2.1 13.7-5.7 4.8-5 7.3-11.4 8.7-17.6 1.3-5.9-1.4-8.7-5.6-10.4-3.4-1.4-11.7-3.5-12.4-6.1-1.1-3.7 2.1-9.7 6.4-9.7H106c2.5 0 6.1.2 7.4-3.5l2.4-6.4m41.7 2.5c.1-1.2-.2-2.6-2.1-2.6h-16.9v.1l-.5.9c2.7.5.6 3.8-.6 5.4l-36.8 49.1c-1.9 2.4-1.2 4 .6 4h13.1l.3-.9c-2.1 0-2.2-2-1.5-3l7.8-10.8h18.9l-1 10.8c-.1 1.5-.7 3.9 2.8 3.9h11.2l.3-.9c-1.4 0-1.7-1.8-1.5-3l5.9-53zm-16.4 33.3h-14l16.5-23.6-2.5 23.6zm45.9-18l-18.4 37.7c-.6 1.1.1 3 1.5 3l-.3.9h-11.2c-3.5 0-2.5-2.3-1.8-3.9l25.3-49.1c.9-1.7 2.6-5-.1-5.5l.5-.9h14.1c2 0 2.1 1.4 2.1 2.6L197 59.6l16.3-29.4c.9-1.7 3.1-5 .4-5.5l.5-.9h14.7c2 0 2.2 1.4 2.1 2.6l-6.9 53c-.2 1.2.1 3 1.5 3l-.3.9h-11.6c-3.5 0-2.9-2.4-2.7-3.9l6.1-37.7-23.7 41.6h-9.1l2.7-41.8zm144.7-17.8h-19.4c-6.6 0-13.2 3.1-16.1 7.5-3.3 4.9-5.9 9.7-7 13.9-.9 3.6.1 6.8 2.8 9 3.6 3.2 14 3.2 15.2 7.8 1.3 4.9-3.6 11.3-8.8 11.3h-13.7c-3.2 0-5.1-.7-4.7-3.7h-1.1l-4.3 10.9c-.6 1.5-.2 2.7 2.6 2.7h23.1c5.5 0 10.4-2.1 13.7-5.7 4.8-5 7.3-11.4 8.7-17.6 1.3-5.9-1.4-8.7-5.6-10.4-3.4-1.4-11.7-3.5-12.4-6.1-1.1-3.7 2.1-9.7 6.4-9.7H322c2.5 0 6.1.2 7.4-3.5l2.3-6.4zm-71.1 2.5l-7.4 19.4h18.3l6.1-15.5c.7-1.8 2.1-5.1-.1-5.5l.5-.9h12.8c2 0 2.1 1.4 1.7 2.5l-20.2 53c-.5 1.1.1 3 1.5 3l-.3.9h-13.1c-3.5 0-2.4-2.2-1.8-3.9L268 55h-18.2l-9.2 24.2c-.5 1.1.1 3 1.5 3l-.3.9h-13.1c-3.5 0-2.4-2.2-1.8-3.9l18.8-49.1c.7-1.8 2.1-5.1-.1-5.5l.5-.9h12.8c1.9 0 2.1 1.4 1.7 2.5zm114.1.1c.1-1.2-.2-2.6-2.1-2.6h-16.8l-.5.9c2.7.5.6 3.8-.6 5.4l-36.8 49.2c-1.9 2.4-1.2 4 .6 4h13.1l.3-.9c-2.1 0-2.3-2-1.6-3l7.8-10.8H357l-1 10.8c-.1 1.5-.7 3.9 2.8 3.9H370l.3-.9c-1.4 0-1.7-1.8-1.5-3l5.9-53zm-16.4 33.2h-14l16.5-23.6-2.5 23.6z" id="SAMHSA"/><g id="Tagline"><path d="M74.9 14.8c.1 1.7 1.2 2.6 3.2 2.6s3.1-1 3.1-2.5c0-.8-.3-1.4-1-1.8-.5-.3-1.1-.4-1.9-.6-1.3-.4-1.9-.4-1.9-1.1 0-.6.5-1 1.3-1 1 0 1.5.4 1.6 1.2H81c-.1-1.6-1.1-2.4-2.9-2.4-2 0-3 .9-3 2.3 0 .8.3 1.5.9 1.8.5.3 1.1.4 1.8.6 1.5.3 2.1.5 2.1 1.2s-.5 1-1.4 1c-1.1 0-1.7-.4-1.8-1.3h-1.8m12.3-3.4h-1.6v3.4c0 .8-.5 1.2-1.2 1.2s-.9-.4-.9-1.2v-3.5h-1.6v3.9c0 1.3.6 2 1.9 2 .7 0 1.3-.3 1.8-.9v.7h1.5l.1-5.6m5.2 2.9c0 1.2-.5 1.8-1.3 1.8s-1.3-.6-1.3-1.8c0-1.1.5-1.7 1.3-1.7.8-.1 1.3.6 1.3 1.7m-4-4.9v7.8h1.5v-.8c.5.7 1 1 1.7 1 1.4 0 2.3-1.2 2.3-3 0-1.9-1-3.1-2.3-3.1-.8 0-1.4.3-1.7.9V9.4h-1.5zm6.1 5.9c0 1.3 1 2.1 2.5 2.1 1.8 0 2.7-.7 2.7-2 0-1.1-.7-1.4-2-1.8-1.1-.3-1.6-.3-1.6-.7s.3-.5.9-.5c.6 0 1 .3 1 .8h1.5c-.1-1.3-1-2-2.5-2s-2.3.8-2.3 2c0 1 .7 1.4 2 1.8 1 .3 1.5.2 1.5.7 0 .4-.3.6-1 .6-.8 0-1.2-.3-1.2-.9l-1.5-.1m8.6 1.9V16h-.4c-.4 0-.5-.1-.5-.4v-3.2h.9v-1.1h-.9V9.9h-1.6v1.6h-.8v1.1h.8v3.1c0 1.2.3 1.7 1.6 1.7.1-.2.4-.2.9-.2m4-2.8v.6c0 .8-.5 1.3-1.4 1.3-.5 0-.8-.3-.8-.7 0-.5.2-.6.7-.8.4-.1.9-.2 1.5-.4m0 2c0 .3.1.5.2.7h1.6v-.3c-.3-.1-.3-.4-.3-.8v-3.2c0-1.1-.9-1.7-2.4-1.7s-2.3.7-2.3 1.9v.1h1.5c0-.5.3-.7 1-.7s1 .2 1 .7c0 .6-.4.5-1.6.7-1.4.2-2 .7-2 1.9s.7 1.9 1.8 1.9c.5-.3 1.1-.6 1.5-1.2zm2.6.7h1.6v-3.4c0-.8.5-1.2 1.2-1.2s.9.4.9 1.2v3.5h1.6v-3.9c0-1.3-.6-2-1.9-2-.7 0-1.3.3-1.8.9v-.7h-1.5l-.1 5.6m9.7-2.1c-.1.7-.5 1.1-1.1 1.1-.7 0-1.2-.6-1.2-1.8s.4-1.8 1.2-1.8c.6 0 .9.3 1 1h1.6c-.1-1.4-1.1-2.2-2.5-2.2-1.7 0-2.7 1.2-2.7 3 0 2 1 3 2.6 3 1.5 0 2.4-.9 2.6-2.3h-1.5m3.6-1.3c.1-.8.5-1.2 1.2-1.2s1.1.4 1.2 1.2H123m2.2 1.7c-.2.5-.5.7-1.1.7-.8 0-1.2-.5-1.2-1.4h3.8v-.4c0-2-1-3.1-2.7-3.1-1.7 0-2.6 1.2-2.6 3 0 2 1.1 3.1 2.7 3.1 1.4 0 2.3-.8 2.6-2l-1.5.1zm7.5-6l-2.7 7.8h1.7l.5-1.6h3l.5 1.6h1.7l-2.8-7.8h-1.9m.9 1.6l1.1 3.3h-2.1l1-3.3zm8.2 3.3c0 1.2-.5 1.8-1.3 1.8s-1.3-.6-1.3-1.8c0-1.1.5-1.7 1.3-1.7.9-.1 1.3.6 1.3 1.7m-4-4.9v7.8h1.5v-.8c.5.7 1 1 1.7 1 1.4 0 2.3-1.2 2.3-3 0-1.9-1-3.1-2.3-3.1-.8 0-1.4.3-1.7.9V9.4h-1.5zm11.5 2h-1.6v3.4c0 .8-.5 1.2-1.2 1.2s-.9-.4-.9-1.2v-3.5H144v3.9c0 1.3.6 2 1.9 2 .7 0 1.3-.3 1.8-.9v.7h1.5l.1-5.6m.8 3.9c0 1.3 1 2.1 2.5 2.1 1.8 0 2.7-.7 2.7-2 0-1.1-.7-1.4-2-1.8-1.1-.3-1.6-.3-1.6-.7s.3-.5.9-.5c.6 0 1 .3 1 .8h1.5c-.1-1.3-1-2-2.5-2s-2.3.8-2.3 2c0 1 .7 1.4 2 1.8 1 .3 1.5.2 1.5.7 0 .4-.3.6-1 .6-.8 0-1.2-.3-1.2-.9l-1.5-.1m7.3-1.6c.1-.8.5-1.2 1.2-1.2s1.1.4 1.2 1.2h-2.4m2.3 1.7c-.2.5-.5.7-1.1.7-.8 0-1.2-.5-1.2-1.4h3.8v-.4c0-2-1-3.1-2.7-3.1-1.7 0-2.6 1.2-2.6 3 0 2 1.1 3.1 2.7 3.1 1.4 0 2.3-.8 2.6-2l-1.5.1zm8.7-1v.6c0 .8-.5 1.3-1.4 1.3-.5 0-.8-.3-.8-.7 0-.5.2-.6.7-.8.4-.1.9-.2 1.5-.4m0 2c0 .3.1.5.2.7h1.6v-.3c-.3-.1-.3-.4-.3-.8v-3.2c0-1.1-.9-1.7-2.4-1.7s-2.3.7-2.3 1.9v.1h1.5c0-.5.3-.7 1-.7s1 .2 1 .7c0 .6-.4.5-1.6.7-1.4.2-2 .7-2 1.9s.7 1.9 1.8 1.9c.5-.3 1.1-.6 1.5-1.2zm2.6.7h1.6v-3.4c0-.8.5-1.2 1.2-1.2s.9.4.9 1.2v3.5h1.6v-3.9c0-1.3-.6-2-1.9-2-.7 0-1.3.3-1.8.9v-.7h-1.5l-.1 5.6m7.5-2.8c0-1.1.5-1.7 1.3-1.7s1.3.6 1.3 1.7c0 1.2-.5 1.8-1.3 1.8-.9-.1-1.3-.7-1.3-1.8m4-4.9H181v2.7c-.4-.6-1-.9-1.7-.9-1.4 0-2.3 1.2-2.3 3.1 0 1.9 1 3 2.3 3 .8 0 1.3-.3 1.8-1v.8h1.5l-.1-7.7zm4.3 7.7h1.5v-6.2l1.6 6.2h1.6l1.6-6.2v6.2h1.5V9.4h-2.4l-1.5 5.9-1.5-5.9h-2.4v7.7m10.3-3.4c.1-.8.5-1.2 1.2-1.2s1.1.4 1.2 1.2h-2.4m2.2 1.7c-.2.5-.5.7-1.1.7-.8 0-1.2-.5-1.2-1.4h3.8v-.4c0-2-1-3.1-2.7-3.1-1.7 0-2.6 1.2-2.6 3 0 2 1.1 3.1 2.7 3.1 1.4 0 2.3-.8 2.6-2l-1.5.1zm2.5 1.7h1.6v-3.4c0-.8.5-1.2 1.2-1.2s.9.4.9 1.2v3.5h1.6v-3.9c0-1.3-.6-2-1.9-2-.7 0-1.3.3-1.8.9v-.7h-1.5l-.1 5.6m8.8.1V16h-.4c-.4 0-.5-.1-.5-.4v-3.2h.9v-1.1h-.9V9.9h-1.6v1.6h-.8v1.1h.8v3.1c0 1.2.3 1.7 1.6 1.7.1-.2.4-.2.9-.2m4-2.8v.6c0 .8-.5 1.3-1.4 1.3-.5 0-.8-.3-.8-.7 0-.5.2-.6.7-.8.4-.1.9-.2 1.5-.4m0 2c0 .3.1.5.2.7h1.6v-.3c-.3-.1-.3-.4-.3-.8v-3.2c0-1.1-.9-1.7-2.4-1.7s-2.3.7-2.3 1.9v.1h1.5c0-.5.3-.7 1-.7s1 .2 1 .7c0 .6-.4.5-1.6.7-1.4.2-2 .7-2 1.9s.7 1.9 1.8 1.9c.5-.3 1.2-.6 1.5-1.2zm2.7-7h1.6v7.8h-1.6zm5.9 7.7h1.6v-3.4h3.2v3.4h1.6V9.4H228v2.8h-3.2V9.4h-1.6v7.7m8.9-3.4c.1-.8.5-1.2 1.2-1.2s1.1.4 1.2 1.2h-2.4m2.3 1.7c-.2.5-.5.7-1.1.7-.8 0-1.2-.5-1.2-1.4h3.8v-.4c0-2-1-3.1-2.7-3.1-1.7 0-2.6 1.2-2.6 3 0 2 1.1 3.1 2.7 3.1 1.4 0 2.3-.8 2.6-2l-1.5.1zm5.7-1v.6c0 .8-.5 1.3-1.4 1.3-.5 0-.8-.3-.8-.7 0-.5.2-.6.7-.8.4-.1.9-.2 1.5-.4m0 2c0 .3.1.5.2.7h1.6v-.3c-.3-.1-.3-.4-.3-.8v-3.2c0-1.1-.9-1.7-2.4-1.7s-2.3.7-2.3 1.9v.1h1.5c0-.5.3-.7 1-.7s1 .2 1 .7c0 .6-.4.5-1.6.7-1.4.2-2 .7-2 1.9s.7 1.9 1.8 1.9c.5-.3 1.1-.6 1.5-1.2zm2.6-7h1.6v7.8h-1.6zm5.4 7.8V16h-.4c-.4 0-.5-.1-.5-.4v-3.2h.9v-1.1h-.9V9.9h-1.6v1.6h-.8v1.1h.8v3.1c0 1.2.3 1.7 1.6 1.7.2-.2.5-.2.9-.2m.8-.1h1.6v-3.4c0-.8.5-1.2 1.2-1.2.9 0 .9.6.9 1.6v3h1.6v-3.8c0-.6 0-1-.3-1.4-.3-.4-.9-.7-1.6-.7-.7 0-1.3.3-1.7.8V9.4H249l-.1 7.7m9-2.3c.1 1.7 1.3 2.6 3.2 2.6 2.1 0 3.1-1 3.1-2.5 0-.8-.3-1.4-1-1.8-.5-.3-1.1-.4-1.9-.6-1.3-.3-1.9-.3-1.9-1.1 0-.6.5-1 1.3-1 1 0 1.5.4 1.6 1.2h1.6c-.1-1.6-1.1-2.4-2.9-2.4-2 0-3 .9-3 2.3 0 .8.3 1.5.9 1.8.5.3 1.1.4 1.8.6 1.5.3 2.1.5 2.1 1.2s-.5 1-1.4 1c-1.1 0-1.7-.4-1.8-1.3h-1.7m8.5-1.1c.1-.8.5-1.2 1.2-1.2s1.1.4 1.2 1.2h-2.4m2.3 1.7c-.2.5-.5.7-1.1.7-.8 0-1.2-.5-1.2-1.4h3.8v-.4c0-2-1-3.1-2.7-3.1-1.7 0-2.6 1.2-2.6 3 0 2 1.1 3.1 2.7 3.1 1.4 0 2.3-.8 2.6-2l-1.5.1zm2.4 1.7h1.6v-3c0-.9.4-1.3 1.3-1.3h.5v-1.6h-.2c-.8 0-1.3.4-1.7 1.2v-1h-1.5v5.7"/><path d="M276.5 17.1h1.5l2.1-5.7h-1.6l-1.1 4.1-1.2-4.1h-1.8l2.1 5.7m4.2 0h1.6v-5.8h-1.6v5.8zm0-6.3h1.6V9.4h-1.6v1.4zm6.2 4.2c-.1.7-.5 1.1-1.1 1.1-.7 0-1.2-.6-1.2-1.8s.4-1.8 1.2-1.8c.6 0 .9.3 1 1h1.6c-.1-1.4-1.1-2.2-2.5-2.2-1.7 0-2.7 1.2-2.7 3 0 2 1 3 2.6 3 1.5 0 2.4-.9 2.6-2.3h-1.5m3.6-1.3c.1-.8.5-1.2 1.1-1.2.7 0 1.1.4 1.2 1.2h-2.3m2.3 1.7c-.2.5-.5.7-1.1.7-.8 0-1.2-.5-1.2-1.4h3.8v-.4c0-2-1-3.1-2.7-3.1-1.7 0-2.6 1.2-2.6 3 0 2 1.1 3.1 2.7 3.1 1.4 0 2.3-.8 2.6-2l-1.5.1zm2.1-.1c0 1.3 1 2.1 2.5 2.1 1.8 0 2.7-.7 2.7-2 0-1.1-.7-1.4-2-1.8-1.1-.3-1.6-.3-1.6-.7s.3-.5.9-.5 1 .3 1 .8h1.5c-.1-1.3-1-2-2.5-2s-2.3.8-2.3 2c0 1 .7 1.4 2 1.8 1 .3 1.5.2 1.5.7 0 .4-.3.6-1 .6-.8 0-1.2-.3-1.2-.9l-1.5-.1M306 9.4l-2.7 7.8h1.7l.5-1.6h3l.5 1.6h1.7l-2.8-7.8H306m.9 1.6l1.1 3.3h-2.1l1-3.3zm5.4 3.3c0-1.1.5-1.7 1.3-1.7s1.3.6 1.3 1.7c0 1.2-.5 1.8-1.3 1.8-.8-.1-1.3-.7-1.3-1.8m4-4.9h-1.5v2.7c-.4-.6-1-.9-1.7-.9-1.4 0-2.3 1.2-2.3 3.1 0 1.9 1 3 2.3 3 .8 0 1.3-.3 1.8-1v.8h1.5l-.1-7.7zm1.2 7.7h1.5v-3.5c0-.7.4-1.1 1-1.1.5 0 .9.3.9.9v3.7h1.5v-3.5c0-.7.4-1.1 1-1.1.5 0 .9.3.9.9v3.7h1.5v-4c0-1.2-.7-1.9-1.9-1.9-.7 0-1.3.3-1.7.9-.4-.6-.9-.9-1.6-.9s-1.2.3-1.6.8v-.7h-1.5v5.8m9.3 0h1.6v-5.8h-1.6v5.8zm0-6.3h1.6V9.4h-1.6v1.4zm2.8 6.3h1.6v-3.4c0-.8.5-1.2 1.2-1.2s.9.4.9 1.2v3.5h1.6v-3.9c0-1.3-.6-2-1.9-2-.7 0-1.3.3-1.8.9v-.7h-1.5l-.1 5.6m6.3 0h1.6v-5.8h-1.6v5.8zm0-6.3h1.6V9.4h-1.6v1.4zm2.4 4.5c0 1.3 1 2.1 2.5 2.1 1.8 0 2.7-.7 2.7-2 0-1.1-.7-1.4-2-1.8-1.1-.3-1.6-.3-1.6-.7s.3-.5.9-.5c.6 0 1 .3 1 .8h1.5c-.1-1.3-1-2-2.5-2s-2.3.8-2.3 2c0 1 .7 1.4 2 1.8 1 .3 1.6.2 1.6.7 0 .4-.3.6-1 .6-.8 0-1.2-.3-1.2-.9l-1.6-.1m8.6 1.9V16h-.4c-.4 0-.5-.1-.5-.4v-3.2h.9v-1.1h-.9V9.9h-1.6v1.6h-.7v1.1h.8v3.1c0 1.2.3 1.7 1.6 1.7.1-.2.4-.2.8-.2m.8-.1h1.6v-3c0-.9.4-1.3 1.3-1.3h.5v-1.6h-.2c-.8 0-1.3.4-1.7 1.2v-1h-1.5v5.7m7.3-2.7v.6c0 .8-.5 1.3-1.4 1.3-.5 0-.8-.3-.8-.7 0-.5.2-.6.7-.8.4-.1.9-.2 1.5-.4m0 2c0 .3.1.5.2.7h1.6v-.3c-.3-.1-.3-.4-.3-.8v-3.2c0-1.1-.9-1.7-2.4-1.7s-2.3.7-2.3 1.9v.1h1.5c0-.5.3-.7 1-.7s1 .2 1 .7c0 .6-.4.5-1.6.7-1.4.2-2 .7-2 1.9s.7 1.9 1.8 1.9c.5-.3 1.1-.6 1.5-1.2zm5.2.8V16h-.4c-.4 0-.5-.1-.5-.4v-3.2h.9v-1.1h-.9V9.9h-1.6v1.6h-.8v1.1h.8v3.1c0 1.2.3 1.7 1.6 1.7.2-.2.5-.2.9-.2m.7-.1h1.6v-5.8h-1.6v5.8zm0-6.3h1.6V9.4h-1.6v1.4zm2.6 3.5c0 2 1.1 3 2.9 3 1.8 0 2.9-1.2 2.9-3 0-2-1.1-3-2.9-3-1.8 0-2.9 1-2.9 3m1.5 0c0-1.2.5-1.8 1.4-1.8s1.4.6 1.4 1.8-.5 1.8-1.4 1.8-1.4-.7-1.4-1.8zm5.1 2.8h1.6v-3.4c0-.8.5-1.2 1.2-1.2s.9.4.9 1.2v3.5h1.6v-3.9c0-1.3-.6-2-1.9-2-.7 0-1.3.3-1.8.9v-.7h-1.6v5.6"/></g><g id="Icon"><path d="M43 53.3c-.8-1.5-2.3-3.5-4.4-3.4-.9.1-2.1.7-3.4 1.8-1.3 1.1-2.8 2.6-4.3 4.5s-3.1 4-4.9 6.4c-2.6 3.7-5.2 7.8-7.8 11.9-2.6 4.1-5 8.2-7.1 11.9C9 90.1 7.3 93.3 6 95.6s-2 3.7-2 3.7 3.9-4.6 9.2-10.3S24.9 76.4 30 72c3.3-2.8 5.9-4.7 7.2-4.7 1.6 0 3.4 1.6 5 3.7 4.1 5.5 7.6 14.9 7.6 14.9s-.1-1.5-.3-3.8c-.2-2.3-.6-5.6-1.2-9.2-.6-3.5-1.3-7.3-2.1-10.8-.8-3.4-1.9-6.6-3.2-8.8m-7.9-7.2c.8 1.5 2.3 3.5 4.4 3.4.9-.1 2.1-.7 3.4-1.8 1.3-1.1 2.8-2.6 4.3-4.5s3.1-4 4.9-6.4c2.6-3.7 5.2-7.8 7.8-11.9 2.6-4.1 5-8.2 7.1-11.9s3.8-6.9 5.1-9.2c1.3-2.3 2-3.7 2-3.7s-3.9 4.6-9.2 10.3C59.6 16 53.1 22.9 48 27.3c-3.3 2.8-5.9 4.7-7.3 4.7-1.6 0-3.4-1.6-5-3.7-4.1-5.5-7.6-14.9-7.6-14.9s.1 1.5.3 3.8c.2 2.3.6 5.6 1.2 9.2.6 3.5 1.3 7.3 2.1 10.8 1.1 3.5 2.2 6.7 3.4 8.9"/><ellipse cx="41.8" cy="21.1" rx="5.7" ry="5.9"/></g></svg>