<?xml version="1.0" encoding="utf-8"?>
<!-- Generator: Adobe Illustrator 22.0.1, SVG Export Plug-In . SVG Version: 6.00 Build 0)  -->
<svg version="1.1" id="Layer_3" xmlns="http://www.w3.org/2000/svg" xmlns:xlink="http://www.w3.org/1999/xlink" x="0px" y="0px"
	 viewBox="0 0 151 36" style="enable-background:new 0 0 151 36;" xml:space="preserve">
<style type="text/css">
	.st0{fill:#FFFFFF;}
</style>
<g>
	<g>
		<path class="st0" d="M45.8,32.9v-0.8l4.7,0v2.6c-0.7,0.4-1.5,0.6-2.2,0.8c-0.8,0.2-1.6,0.3-2.4,0.3c-1.1,0-2.1-0.1-3-0.4
			c-0.9-0.3-1.6-0.7-2-1.3c-0.5-0.6-0.7-1.2-0.7-1.9c0-0.7,0.2-1.3,0.7-1.9c0.5-0.6,1.1-1,1.9-1.3s1.8-0.4,2.9-0.4
			c0.8,0,1.5,0.1,2.2,0.2c0.6,0.2,1.2,0.4,1.5,0.7c0.4,0.3,0.6,0.7,0.8,1.2L49,30.8c-0.2-0.4-0.4-0.6-0.6-0.9
			c-0.2-0.2-0.6-0.4-1.1-0.5c-0.5-0.1-1-0.2-1.5-0.2c-0.7,0-1.2,0.1-1.7,0.2c-0.5,0.1-0.9,0.3-1.2,0.5c-0.3,0.2-0.5,0.4-0.7,0.7
			c-0.3,0.4-0.4,0.9-0.4,1.4c0,0.6,0.2,1.2,0.5,1.6c0.3,0.4,0.8,0.7,1.5,0.9c0.6,0.2,1.3,0.3,2.1,0.3c0.6,0,1.3-0.1,1.9-0.2
			c0.6-0.2,1.1-0.3,1.4-0.5v-1.3L45.8,32.9L45.8,32.9z"/>
		<path class="st0" d="M52.5,35.7v-7.1h4.9c1,0,1.7,0.1,2.2,0.2c0.5,0.1,0.9,0.4,1.2,0.7c0.3,0.3,0.5,0.7,0.5,1.1
			c0,0.5-0.3,0.9-0.8,1.3c-0.5,0.3-1.3,0.6-2.4,0.7c0.4,0.1,0.7,0.2,0.9,0.4c0.4,0.3,0.8,0.6,1.2,0.9l1.9,1.9h-1.8l-1.5-1.5
			c-0.4-0.4-0.8-0.8-1.1-1c-0.3-0.2-0.5-0.4-0.7-0.5c-0.2-0.1-0.4-0.2-0.7-0.2c-0.2,0-0.4,0-0.8,0H54v3.2L52.5,35.7L52.5,35.7z
			 M54,31.7h3.1c0.7,0,1.2,0,1.6-0.1c0.4-0.1,0.7-0.2,0.9-0.4c0.2-0.2,0.3-0.4,0.3-0.6c0-0.3-0.2-0.6-0.6-0.8
			c-0.4-0.2-1-0.3-1.8-0.3H54V31.7z"/>
		<path class="st0" d="M62.3,35.7l4.2-7.1h1.6l4.5,7.1h-1.7l-1.3-2.2H65l-1.2,2.2H62.3z M65.5,32.8h3.8l-1.2-2
			c-0.4-0.6-0.6-1.1-0.8-1.5c-0.1,0.5-0.3,0.9-0.6,1.4L65.5,32.8z"/>
		<path class="st0" d="M73.6,35.7v-7.1h1.5l5.8,5.6v-5.6h1.4v7.1h-1.5L75,30.1v5.6C75,35.7,73.6,35.7,73.6,35.7z"/>
		<path class="st0" d="M87.5,35.7v-6.3h-3.6v-0.8h8.8v0.8h-3.7v6.3C88.9,35.7,87.5,35.7,87.5,35.7z"/>
		<path class="st0" d="M93.4,33.4l1.4-0.1c0.1,0.4,0.2,0.6,0.5,0.9c0.2,0.2,0.6,0.4,1.1,0.6c0.5,0.1,1.1,0.2,1.7,0.2
			c0.6,0,1.1-0.1,1.5-0.2c0.4-0.1,0.7-0.3,1-0.4c0.2-0.2,0.3-0.4,0.3-0.6c0-0.2-0.1-0.4-0.3-0.6c-0.2-0.2-0.5-0.3-1-0.4
			c-0.3-0.1-1-0.2-2-0.3c-1-0.2-1.7-0.3-2.1-0.4c-0.5-0.2-0.9-0.4-1.2-0.7c-0.3-0.3-0.4-0.6-0.4-0.9c0-0.4,0.2-0.7,0.5-1
			c0.3-0.3,0.8-0.5,1.4-0.7c0.6-0.2,1.3-0.2,2-0.2c0.8,0,1.5,0.1,2.2,0.3c0.6,0.2,1.1,0.4,1.4,0.7c0.3,0.3,0.5,0.7,0.5,1.1l-1.4,0.1
			c-0.1-0.4-0.3-0.8-0.8-1c-0.4-0.2-1.1-0.3-1.9-0.3c-0.9,0-1.5,0.1-1.9,0.3c-0.4,0.2-0.6,0.5-0.6,0.8c0,0.3,0.1,0.5,0.4,0.6
			c0.3,0.2,1,0.3,2.2,0.5c1.2,0.2,2,0.3,2.4,0.5c0.6,0.2,1.1,0.4,1.4,0.7c0.3,0.3,0.5,0.6,0.5,1c0,0.4-0.2,0.7-0.5,1.1
			c-0.3,0.3-0.8,0.6-1.5,0.8c-0.6,0.2-1.3,0.3-2.1,0.3c-1,0-1.8-0.1-2.5-0.3c-0.7-0.2-1.2-0.5-1.6-0.8
			C93.7,34.3,93.5,33.9,93.4,33.4z"/>
		<path class="st0" d="M104.3,35.7v-1h1.5v1H104.3z"/>
		<path class="st0" d="M113.4,32.9v-0.8l4.7,0v2.6c-0.7,0.4-1.5,0.6-2.2,0.8c-0.8,0.2-1.6,0.3-2.4,0.3c-1.1,0-2.1-0.1-3-0.4
			c-0.9-0.3-1.6-0.7-2-1.3c-0.5-0.6-0.7-1.2-0.7-1.9c0-0.7,0.2-1.3,0.7-1.9c0.5-0.6,1.1-1,1.9-1.3c0.8-0.3,1.8-0.4,2.9-0.4
			c0.8,0,1.5,0.1,2.2,0.2c0.6,0.2,1.2,0.4,1.5,0.7c0.4,0.3,0.6,0.7,0.8,1.2l-1.3,0.2c-0.2-0.4-0.4-0.6-0.6-0.9
			c-0.2-0.2-0.6-0.4-1.1-0.5c-0.5-0.1-1-0.2-1.5-0.2c-0.7,0-1.2,0.1-1.7,0.2c-0.5,0.1-0.9,0.3-1.2,0.5c-0.3,0.2-0.5,0.4-0.7,0.7
			c-0.3,0.4-0.4,0.9-0.4,1.4c0,0.6,0.2,1.2,0.5,1.6c0.3,0.4,0.8,0.7,1.5,0.9c0.6,0.2,1.3,0.3,2.1,0.3c0.6,0,1.3-0.1,1.9-0.2
			c0.6-0.2,1.1-0.3,1.4-0.5v-1.3L113.4,32.9L113.4,32.9z"/>
		<path class="st0" d="M119.7,32.2c0-1.2,0.5-2.1,1.5-2.8c1-0.7,2.3-1,3.8-1c1,0,1.9,0.2,2.8,0.5c0.8,0.3,1.4,0.7,1.9,1.3
			c0.4,0.6,0.6,1.2,0.6,1.9c0,0.7-0.2,1.4-0.7,1.9c-0.5,0.6-1.1,1-1.9,1.3c-0.8,0.3-1.7,0.4-2.7,0.4c-1,0-2-0.2-2.8-0.5
			c-0.8-0.3-1.4-0.8-1.9-1.3C119.9,33.5,119.7,32.9,119.7,32.2z M121.2,32.3c0,0.9,0.4,1.5,1.1,2c0.7,0.5,1.6,0.7,2.7,0.7
			c1.1,0,2-0.2,2.7-0.7c0.7-0.5,1.1-1.2,1.1-2.1c0-0.6-0.2-1.1-0.5-1.5c-0.3-0.4-0.7-0.8-1.3-1c-0.6-0.2-1.2-0.4-2-0.4
			c-1,0-1.9,0.2-2.7,0.7C121.5,30.4,121.2,31.2,121.2,32.3z"/>
		<path class="st0" d="M135.1,35.7l-4.3-7.1h1.6l2.9,5.2c0.2,0.4,0.4,0.8,0.6,1.2c0.2-0.4,0.4-0.8,0.6-1.2l3-5.2h1.5l-4.3,7.1H135.1
			z"/>
	</g>
	<g>
		<path class="st0" d="M142.8,30.9l0.4,0c0,0.1,0.1,0.3,0.1,0.3c0.1,0.1,0.2,0.2,0.3,0.2c0.1,0.1,0.3,0.1,0.4,0.1
			c0.1,0,0.3,0,0.4-0.1c0.1,0,0.2-0.1,0.2-0.2c0.1-0.1,0.1-0.2,0.1-0.2c0-0.1,0-0.2-0.1-0.2c-0.1-0.1-0.1-0.1-0.3-0.2
			c-0.1,0-0.2-0.1-0.5-0.1c-0.3-0.1-0.4-0.1-0.5-0.2c-0.1-0.1-0.2-0.2-0.3-0.3c-0.1-0.1-0.1-0.2-0.1-0.3c0-0.1,0-0.3,0.1-0.4
			c0.1-0.1,0.2-0.2,0.4-0.3c0.2-0.1,0.3-0.1,0.5-0.1c0.2,0,0.4,0,0.6,0.1c0.2,0.1,0.3,0.2,0.4,0.3c0.1,0.1,0.1,0.3,0.1,0.4l-0.4,0
			c0-0.2-0.1-0.3-0.2-0.4c-0.1-0.1-0.3-0.1-0.5-0.1c-0.2,0-0.4,0-0.5,0.1c-0.1,0.1-0.2,0.2-0.2,0.3c0,0.1,0,0.2,0.1,0.2
			c0.1,0.1,0.3,0.1,0.6,0.2c0.3,0.1,0.5,0.1,0.6,0.2c0.2,0.1,0.3,0.2,0.4,0.3s0.1,0.2,0.1,0.4c0,0.1,0,0.3-0.1,0.4
			c-0.1,0.1-0.2,0.2-0.4,0.3c-0.2,0.1-0.3,0.1-0.5,0.1c-0.3,0-0.5,0-0.6-0.1c-0.2-0.1-0.3-0.2-0.4-0.3
			C142.9,31.2,142.8,31.1,142.8,30.9z"/>
		<path class="st0" d="M145.5,31.8V29h0.6l0.7,2c0.1,0.2,0.1,0.3,0.1,0.4c0-0.1,0.1-0.3,0.1-0.5l0.7-2h0.5v2.8h-0.4v-2.4l-0.8,2.4
			h-0.3l-0.8-2.4v2.4L145.5,31.8L145.5,31.8z"/>
	</g>
	<path class="st0" d="M14.4,16.8c0,0,8.2,11,24.7,1.1S56.7,0,56.7,0l2.8,6.1c0,0-18.7,20.3-45.2,18C14.4,24.1,14.4,16.8,14.4,16.8z"
		/>
	<path class="st0" d="M7.1,23.7v6.5c0,0,12.3,0.4,20-4.5C27,25.7,14.4,30.9,7.1,23.7z"/>
	<path class="st0" d="M0.1,28.8v6.8c0,0,15.3-1.1,20.3-4.5C20.5,31.2,7.1,36.1,0.1,28.8z"/>
</g>
</svg>
