<?xml version="1.0" encoding="utf-8"?>
<!-- Generator: Adobe Illustrator 22.0.1, SVG Export Plug-In . SVG Version: 6.00 Build 0)  -->
<svg version="1.1" id="Layer_2" xmlns="http://www.w3.org/2000/svg" xmlns:xlink="http://www.w3.org/1999/xlink" x="0px" y="0px"
	 viewBox="0 0 97 108" style="enable-background:new 0 0 97 108;" xml:space="preserve">
<style type="text/css">
	.st0{fill:#FFFFFF;}
	.st1{font-family:'TimesNewRomanPSMT';}
	.st2{font-size:10.1078px;}
</style>
<g>
	<g>
		<path class="st0" d="M79,19.9c0,0-1,2.6-3.2,5C74.1,26.7,55,42.7,54,43.7c-0.9,1-2.4,3.5-3.2,10.2c-0.6,5.5-1.5,3.6-5.7,3.9
			c-2.4,0.2-9.3-0.8-8.1,4.5c0,0,0.7-1.2,9.9-1.1c3.6,0.1,6.4-1.5,6.9-4.5c0.5-2.9,1.2-7.9,2.7-10.7c0.7-1.2,16-14.1,20.3-17.5
			C78.4,27.3,83.3,23.3,79,19.9z"/>
		<path class="st0" d="M31.8,66.8c0,0,1.3-1.3,5-0.3c3.7,1.1,13.8,4.3,16.6,5.9c1.7,0.9,6.2,2.4,5.4,4.8c-0.9,2.3-6.5,4-4.8,8.5
			c1.7,4.5,7.8,1.7,8.5,0.5c0.7-1.2-2.7,1.1-4.4-2.2c-1.3-2.6,0.2-4.5,2.5-6.6c1-1,2.6-1.9,2.1-4c-0.3-1.5-3-2.3-5.8-3.6
			C54,68.5,43.5,65,39.3,63.6C35,62.5,30.8,63.7,31.8,66.8z"/>
		<path class="st0" d="M83.7,25.1c-0.3,0.9-0.6,2.2-2.4,3.9C78,32,64.7,43.2,61.6,45.7c-1.7,1.4-3,3.8-3.3,4.9
			c-0.4,1.2-0.8,4-0.5,8.7c0.1,0.8-2,2.7-1.7,3.4c0.4,0.7,2,0,2.1,0.6c0.1,0.4-0.4,1.2-0.4,1.6c0.1,0.6,1-0.1,0.8,0.5
			c-0.3,0.9,0.4,1.1,0.8,1.6c0.4,0.7,0,1.4,0.4,2c0.6,0.9,2,0.9,4.4,0.6s3.6,1.3,3.4,2.7c-0.5,2.1-2,2.3-4.2,4.3
			c-2.2,2-2,4.3-0.4,5.9c1.3,1.3,5.5,1.5,7.7-1.6c0.5-0.6-1.1,0.4-3.8-0.7c0,0-1.7-1.1-1.1-2.7c0.7-1.7,2-2.6,3.3-3.7
			c1.4-1.2,3.4-1.9,3-3.8c-0.4-2-2.4-2-3.1-1.9c-0.8,0.1-2.1,0.3-3.1,0.4c-1.7,0.1-2.4-0.7-2.8-4c-0.1-1.1-1.6-0.4-1-1.9
			c0.3-0.8-0.9-0.3-1.8-0.6c-0.7-0.2,0.6-1.9,1.4-3.6c0.2-0.5-0.3-1-0.4-3.3c-0.1-2,0.4-4.5,2.7-6.7c1.2-1,6-5.1,7.4-6.3
			c2-1.5,11.6-9.8,13.1-11.4C87.3,27.5,83.2,24.8,83.7,25.1z"/>
		<g>
			<path class="st0" d="M52.2,83L52.2,83l-0.1,0.2c-0.1,0-0.3,0-0.3,0.2c0,0-0.1,0.2-0.1,0.4l0,2.4c0,0.3,0.1,0.4,0.1,0.4
				c0,0.1,0.2,0.1,0.3,0.1l0.1,0l0,0.1l-1.6,0.1c-0.6,0.1-1,0-1.3-0.1c-0.3-0.1-0.5-0.4-0.7-0.6c-0.2-0.3-0.2-0.7-0.3-1
				c-0.1-0.6,0.2-0.9,0.5-1.4c0.4-0.3,0.9-0.6,1.6-0.6L52.2,83z M51.1,83.3c-0.3-0.1-0.4-0.1-0.6-0.1c-0.4,0.1-0.8,0.1-1.1,0.4
				C49.2,84,49,84.4,49,84.8c0.1,0.6,0.1,1,0.4,1.2c0.3,0.2,0.6,0.5,1.1,0.4c0.1,0,0.4-0.1,0.6-0.1L51.1,83.3z"/>
			<path class="st0" d="M46.5,86.3l0.1-1.5l-0.7-0.1c-0.1,0-0.4,0.1-0.4,0.1c-0.1,0-0.1,0.2-0.2,0.5l-0.1,0l0.1-1.3l0.1,0
				c0,0.1,0,0.3,0.1,0.4c0,0,0,0.1,0.2,0.1c0,0,0.2,0.1,0.3,0.1l0.9,0l0.1-1.2c0-0.1,0-0.3,0-0.3s0,0,0-0.1c0,0-0.1,0-0.2-0.1
				L46,82.9c-0.1,0-0.4,0.1-0.4,0.1c-0.1,0-0.1,0-0.3,0.2s-0.2,0.3-0.4,0.5l-0.1,0l0.5-0.9l2.9,0.3l0,0.1l-0.1,0c-0.1,0-0.1,0-0.3,0
				c0,0-0.1,0-0.1,0.2c0,0-0.1,0.2-0.1,0.3l-0.3,2.5c0,0.3,0.1,0.4,0.1,0.4c0,0.1,0.2,0.1,0.3,0.1l0.1,0l0,0.1l-2.9-0.3l0-0.9l0.1,0
				c0,0.1,0,0.3,0.1,0.4c0,0.1,0.2,0.1,0.2,0.1s0.2,0.1,0.4,0.1L46.5,86.3z"/>
			<path class="st0" d="M43.2,84.1l0.3-1c0.1-0.3,0.1-0.4-0.1-0.4c0-0.1-0.2-0.1-0.3-0.1l-0.1,0l0-0.1l1.6,0.4l0,0.1l-0.1,0
				c-0.1,0-0.3,0-0.4,0.1c0,0-0.1,0.2-0.1,0.4l-0.6,2.4c-0.1,0.3-0.1,0.4-0.1,0.4c0,0.1,0.2,0.1,0.3,0.2l0.1,0l0,0.1l-1.3-0.3
				c-0.3-0.1-0.6-0.2-0.7-0.2c-0.2-0.1-0.3-0.2-0.3-0.4c-0.2-0.1-0.1-0.4-0.1-0.6c0.1-0.3,0.2-0.5,0.5-0.6c0.3-0.2,0.5-0.2,0.8-0.1
				c0.1,0,0.1,0,0.3,0.1C42.9,84,43,84,43.2,84.1z M43.1,84.3c-0.1,0-0.2-0.1-0.3-0.1c0,0-0.1,0-0.2-0.1c-0.1,0-0.4,0.1-0.6,0.1
				c-0.1,0.2-0.2,0.3-0.4,0.5c0,0.1-0.1,0.3,0.1,0.4c0,0.1,0.2,0.3,0.2,0.4c0.2,0.1,0.2,0.1,0.5,0.2c0.1,0,0.1,0,0.4-0.1L43.1,84.3z
				"/>
			<path class="st0" d="M39.1,82.5l1.3,0.4l0.4-0.5c0.1-0.2,0.1-0.2,0.2-0.3l0-0.1c0,0-0.2-0.1-0.3-0.2l0-0.1l1.2,0.3l0,0.1
				c-0.1,0-0.3,0-0.3,0c-0.1,0-0.3,0.2-0.5,0.5l-2.3,2.6l-0.1,0l-0.3-3.4c0-0.3-0.1-0.4-0.1-0.6c0-0.1-0.2-0.1-0.3-0.2l0-0.1
				l1.5,0.4l0,0.1c-0.1,0-0.3-0.1-0.3,0c0,0-0.1,0-0.1,0.2c0,0.1,0,0.1,0.1,0.4L39.1,82.5z M39.1,82.8l0.2,1.6l1.1-1.3L39.1,82.8z"
				/>
			<path class="st0" d="M34.4,79.4l0.9,0.5l0.4,2.1c0.1,0,0.2,0.1,0.2,0.1l0,0l0,0l0.4-1.1c0.1-0.2,0.1-0.3,0.1-0.4
				c0-0.1-0.2-0.1-0.2-0.3l-0.2-0.1l0-0.1l1.5,0.7l0,0.1l-0.1,0c-0.2-0.1-0.3-0.1-0.4,0.1c0,0-0.1,0.2-0.2,0.3l-0.6,2.2
				c-0.1,0.2-0.1,0.3-0.1,0.4c0,0.1,0.2,0.1,0.3,0.2l0.2,0.1l0,0.1l-1.2-0.6c-0.3-0.1-0.6-0.4-0.8-0.5c-0.2-0.1-0.3-0.2-0.4-0.5
				c0-0.1-0.1-0.4,0.1-0.6c0.1-0.2,0.2-0.3,0.5-0.5c0.3,0,0.4-0.1,0.8-0.1l-0.7-1.2c0-0.3-0.2-0.5-0.2-0.7
				C34.7,79.8,34.6,79.6,34.4,79.4L34.4,79.4z M36.2,82.2C36,82.2,36,82.2,36.2,82.2C36,82.2,36,82.2,36.2,82.2
				c-0.5-0.2-0.7-0.2-1-0.2s-0.4,0.2-0.5,0.5c-0.1,0.2-0.1,0.4-0.1,0.6c0,0.1,0.2,0.3,0.5,0.4c0.1,0,0.3,0.1,0.4,0.1L36.2,82.2z"/>
			<path class="st0" d="M30,81.2l0.3-0.8l0.1,0c-0.1,0.2-0.1,0.3-0.1,0.3c0,0.1,0,0.3,0,0.3c0,0.1,0.2,0.1,0.3,0.2l0.5,0.2l1.4-2.5
				c0.1-0.2,0.1-0.3,0.1-0.4c0-0.1-0.2-0.1-0.2-0.3l-0.2-0.1l0-0.1l1.4,0.8l0,0.1l0,0.1c-0.2-0.1-0.3-0.1-0.4-0.1
				c0,0-0.1,0.2-0.2,0.3L31.7,82l0.5,0.2c0.2,0.1,0.3,0.1,0.3,0.1c0.1,0,0.1,0,0.3,0c0.1,0,0.3-0.2,0.2-0.3l0.1,0l-0.5,0.8L30,81.2z
				"/>
			<path class="st0" d="M29.7,76.7L29,80.1l1.5-2.1c0.1-0.2,0.2-0.3,0.2-0.5c0-0.1,0-0.1-0.2-0.3l-0.2-0.1l0-0.1l1.1,0.7l0,0.1
				l-0.2-0.1c-0.2-0.1-0.3-0.1-0.3-0.1c-0.1,0-0.1,0.2-0.2,0.3L29.3,80c-0.1,0.2-0.1,0.3-0.1,0.3l0,0.1c0,0.1,0.2,0.1,0.2,0.3l0,0.1
				l-0.9-0.6l0.6-3.1l-2.8,1.7l-0.8-0.6l0.1-0.2l0.2,0.1c0.2,0.1,0.3,0.1,0.3,0.1s0.1-0.2,0.2-0.3l1.5-2.1c0.1-0.2,0.2-0.3,0.2-0.5
				c0-0.1,0-0.1-0.2-0.3L27.6,75l0.1-0.2l1.3,1L28.9,76l-0.2-0.1c-0.2-0.1-0.3-0.1-0.3-0.1s-0.1,0.2-0.2,0.3l-1.5,2.1L29.7,76.7
				L29.7,76.7z"/>
			<path class="st0" d="M24.3,76.9l1-1.1l-0.6-0.5c-0.2-0.1-0.3-0.2-0.3-0.2c-0.1,0-0.3,0-0.4,0.2l0-0.1l0.9-1l0,0.1
				c-0.1,0.2-0.1,0.3-0.2,0.3c0,0,0,0.1,0,0.3c0,0.1,0.2,0.1,0.2,0.3l0.6,0.5l0.9-1c0.1-0.2,0.1-0.2,0.3-0.2l0-0.1
				c0,0,0-0.1-0.2-0.1l-0.5-0.4c-0.2-0.1-0.3-0.2-0.3-0.2c-0.1,0-0.2-0.1-0.3-0.1c-0.1,0-0.4,0.1-0.6,0.1l-0.2-0.1l0.9-0.6l2.1,1.9
				l-0.1,0l-0.2-0.1l-0.2-0.1l-0.1,0c0,0-0.1,0.2-0.3,0.2l-1.6,1.8c-0.1,0.2-0.2,0.3-0.2,0.3c0,0.1,0,0.1,0.2,0.3l0.2,0.1l-0.1,0
				l-2.1-1.9l0.5-0.6l0.2,0.1c-0.1,0.2-0.1,0.3-0.2,0.5c0,0.1,0,0.1,0,0.3s0.2,0.1,0.3,0.2L24.3,76.9z"/>
			<path class="st0" d="M22.1,75.3l-0.7-0.8L22,71l-1.6,1.3c-0.1,0.2-0.2,0.3-0.2,0.3c0,0.1,0,0.1,0.2,0.3l0.2,0.1l-0.1,0l-0.9-1
				l0.1,0l0.2,0.1c0.2,0.1,0.2,0.1,0.3,0.1c0.1,0,0.1,0,0.4-0.2l2.5-2l0,0.1L22.1,74l1.7-1.5c0.1-0.2,0.2-0.3,0.2-0.3
				c0-0.1,0-0.1-0.2-0.3l0.1-0.2l0.1,0l0.9,1l-0.1,0l-0.2-0.1c-0.2-0.1-0.2-0.1-0.3-0.1c-0.1,0-0.1,0-0.4,0.2L22,74.5
				c0,0.1,0,0.3,0,0.3s0,0.1,0,0.3C22,75,22.1,75.2,22.1,75.3L22.1,75.3z"/>
			<path class="st0" d="M17.1,69.2l0.7-0.5l0,0.1c-0.1,0.2-0.1,0.2-0.2,0.3c0,0.1-0.1,0.2-0.1,0.3c0,0.1,0,0.3,0.2,0.4l0.3,0.4
				l2.4-1.7c0.1-0.2,0.3-0.2,0.2-0.3c0-0.1,0-0.1,0-0.3l0-0.1l0.1,0l0.9,1.3l-0.1,0l0-0.1c-0.2-0.1-0.2-0.3-0.3-0.2
				c-0.1,0-0.1,0-0.4,0.2l-2.4,1.7l0.3,0.4c0.2,0.1,0.2,0.3,0.3,0.2c0.1,0,0.2,0.1,0.3,0.1c0.1,0,0.3,0,0.4-0.2l0,0.1l-0.8,0.4
				L17.1,69.2z"/>
			<path class="st0" d="M14.9,65.6c-0.2-0.4-0.2-0.8,0-1.4c0.2-0.5,0.5-0.9,1-1.1c0.5-0.2,1-0.3,1.6-0.2c0.4,0.1,0.9,0.5,1.1,0.9
				c0.2,0.4,0.3,1,0.2,1.4c-0.2,0.5-0.5,0.8-1,1.1c-0.5,0.2-1.1,0.3-1.6,0.2C15.5,66.4,15.1,66,14.9,65.6z M15.1,65.6
				c0.2,0.3,0.4,0.5,0.6,0.5c0.4,0.1,0.9,0,1.4-0.3c0.5-0.2,0.9-0.6,1-1c0.1-0.3,0.1-0.6,0-0.9c-0.2-0.3-0.5-0.5-0.8-0.6
				s-0.9,0-1.4,0.3c-0.5,0.4-0.9,0.7-1.2,1C14.9,65,14.9,65.3,15.1,65.6z"/>
			<path class="st0" d="M13.7,62.3l1.4-0.6L14.8,61c0-0.1-0.2-0.3-0.2-0.3c-0.1,0-0.3,0-0.4,0.1l0-0.1l1.2-0.4l0,0.1
				c-0.1,0-0.3,0.2-0.3,0.2L15,60.7c0,0,0,0.1,0,0.3l0.2,0.7l1.1-0.4c0.1,0,0.3-0.2,0.3-0.2s0-0.1,0.1-0.2c0-0.1,0-0.1,0-0.3l0-0.1
				l0.1,0l0.6,1.5l-0.1,0l0-0.1c0-0.1-0.2-0.3-0.3-0.2c0,0-0.1,0-0.4,0.1l-2.3,0.9c-0.1,0-0.3,0.2-0.4,0.2c0,0,0,0.1-0.1,0.2
				c0,0.1,0,0.1,0,0.3l0,0.1l-0.1,0l-1-2.6l0.8-0.4l0,0.1c-0.1,0.2-0.3,0.2-0.2,0.3c0,0.1-0.1,0.2-0.1,0.3c0,0.1,0,0.3,0.1,0.4
				L13.7,62.3z"/>
			<path class="st0" d="M13.4,57l-0.4-1.7l-1.1,0.3c-0.1,0-0.3,0-0.4,0.2c0,0-0.1,0-0.1,0.2s0,0.1,0,0.3l0,0.1l-0.1,0L11,54.7l0.1,0
				l0,0.1c0,0.1,0,0.1,0.2,0.3l0.2,0.1c0,0,0.1,0,0.4-0.1l2.4-0.6c0.1,0,0.3,0,0.4-0.2c0,0,0.1,0,0.1-0.2c0-0.1,0-0.1,0-0.3l0-0.1
				l0.1,0l0.3,1.5l-0.1,0l0-0.1c0-0.1-0.2-0.3-0.2-0.3s-0.1,0-0.4,0.1l-1.1,0.3l0.4,1.7l1.1-0.3c0.1,0,0.3,0,0.4-0.2
				c0,0,0.1,0,0.1-0.2c0-0.1,0-0.1,0-0.3l0-0.1l0.1,0l0.3,1.5l-0.1,0l0-0.1c0-0.1-0.2-0.3-0.2-0.3s-0.1,0-0.4,0.1l-2.4,0.6
				c-0.1,0-0.3,0-0.4,0.2c0,0-0.1,0-0.1,0.2s0,0.1,0,0.3l0,0.1l-0.1,0l-0.3-1.5l0.1,0l0,0.1c0,0.1,0,0.1,0.2,0.3l0.2,0.1
				c0,0,0.1,0,0.4-0.1L13.4,57z"/>
			<path class="st0" d="M11,53l1.6-0.2L12.5,52c0-0.1,0-0.3-0.2-0.4c-0.2-0.1-0.3-0.1-0.4-0.1l0-0.1l1.3-0.2l0,0.1
				c-0.1,0-0.3,0-0.3,0.2l-0.1,0.2c0,0.1,0,0.1,0,0.3l0.1,0.8l1.3-0.2c0.1,0,0.3,0,0.3,0s0,0,0.1-0.2l0-0.1l-0.1-0.6
				c0-0.1-0.1-0.4-0.1-0.4c0-0.1-0.2-0.1-0.2-0.3c-0.2-0.1-0.3-0.2-0.6-0.2l0-0.1l1,0.2l0.4,2.8l-0.1,0l0-0.1c0-0.1,0-0.1,0-0.3
				l-0.2-0.1c0,0-0.1,0-0.4,0.1l-2.4,0.3c-0.3,0-0.4,0.1-0.4,0.2c-0.1,0-0.1,0.2-0.1,0.3l0,0.1l-0.1,0l-0.4-2.8l0.8-0.1l0,0.1
				c-0.1,0-0.3,0.2-0.4,0.2c-0.1,0-0.1,0.2-0.1,0.2c0,0.1,0,0.1,0.1,0.4L11,53z"/>
			<path class="st0" d="M12.8,47.7l0,1.4l0.6,0.2c0.2,0.1,0.3,0.1,0.3,0.1l0.1,0c0,0,0.1-0.2,0.1-0.3l0.1,0l0,1.2l-0.1,0
				c0-0.1,0-0.3-0.2-0.3c-0.2-0.1-0.3-0.2-0.6-0.4L10,48.5l0-0.1l3.1-1.4c0.3-0.2,0.4-0.2,0.5-0.4c0.1-0.2,0.1-0.2,0.1-0.3l0.1,0
				l0,1.4l-0.1,0c0-0.1,0-0.3,0-0.3l-0.2-0.1c-0.1,0-0.3,0-0.4,0.2L12.8,47.7z M12.7,47.8l-1.5,0.6l1.5,0.7L12.7,47.8z"/>
			<path class="st0" d="M13.3,42.8L13.3,42.8l1,0.3L14.2,46L14,46l0-0.1c0-0.1,0-0.3-0.2-0.4c0,0-0.2-0.1-0.4-0.1l-2.5-0.1
				c-0.3,0-0.4,0.1-0.4,0.1c-0.1,0-0.1,0.2-0.1,0.3l0,0.1l-0.1,0l0.1-1.6l0.1,0c0,0.1,0,0.3,0.1,0.4s0,0.1,0.2,0.1
				c0,0,0.2,0.1,0.4,0.1l2.3,0.1c0.1,0,0.3,0,0.3,0s0.1,0,0.1-0.2c0,0,0-0.1,0.1-0.4l0-0.3c0-0.3,0.1-0.4-0.1-0.6
				c0-0.1-0.2-0.3-0.2-0.3C13.7,43,13.5,42.9,13.3,42.8z"/>
			<path class="st0" d="M11,39.3l0.9,0l0,0.1c-0.1,0-0.3,0-0.3,0c-0.1,0-0.3,0.2-0.3,0.2c-0.1,0.2-0.1,0.2-0.1,0.3l-0.1,0.6l2.9,0.5
				c0.3,0,0.4,0.1,0.4-0.1c0.1,0,0.1-0.2,0.1-0.3l0-0.1l0.1,0l-0.2,1.6l-0.1,0l0-0.1c0-0.1,0-0.3-0.1-0.4c0,0-0.2-0.1-0.4-0.1
				L11,41.1l-0.1,0.4c0,0.1-0.1,0.3,0.1,0.4c0,0.1,0,0.1,0.2,0.3c0.2,0.1,0.2,0.1,0.5,0.2l0,0.1l-0.9-0.2L11,39.3z"/>
			<path class="st0" d="M13.2,38.1l0.5-1.6l-1-0.3c-0.1,0-0.3-0.1-0.4-0.1l-0.1,0c-0.1,0-0.1,0.2-0.1,0.2l0,0.1l-0.1,0l0.4-1.5
				l0.1,0l0,0.1c0,0.1,0,0.1,0,0.3c0,0,0,0.1,0.2,0.1c0,0,0.2,0.1,0.3,0.1l2.4,0.6c0.2,0.1,0.3,0.1,0.4,0.1l0.1,0
				c0.1,0,0.1-0.2,0.1-0.2l0-0.1l0.1,0l-0.4,1.5l-0.1,0l0-0.1c0-0.1,0-0.3-0.1-0.4c0,0-0.2-0.1-0.5-0.2l-1.2-0.3l-0.5,1.6l1.2,0.3
				c0.2,0.1,0.3,0.1,0.4,0.1l0.1,0c0.1,0,0.1-0.2,0.1-0.2l0-0.1l0.1,0l-0.4,1.5l-0.1,0l0-0.1c0-0.1,0-0.3-0.1-0.4
				c0,0-0.2-0.1-0.5-0.2l-2.4-0.6c-0.1,0-0.3-0.1-0.4-0.1l-0.1,0c-0.1,0-0.1,0.2-0.1,0.2l0,0.1l-0.1,0l0.4-1.5l0.1,0l0,0.1
				c0,0.1,0,0.1,0,0.3c0,0,0,0.1,0.2,0.1c0,0,0.2,0.1,0.3,0.1L13.2,38.1z"/>
			<path class="st0" d="M15.4,30.7l0.4-1.1l0.1,0c-0.1,0.2-0.1,0.3-0.1,0.3c0,0.1,0.2,0.3,0.4,0.5c0.2,0.3,0.4,0.5,0.5,0.8
				c0.3,0,0.4-0.2,0.5-0.2s0.3-0.2,0.2-0.3c0-0.1,0.1-0.3,0.1-0.3c0-0.1,0-0.3-0.2-0.3l0.1,0c0.2,0.1,0.3,0.4,0.4,0.5
				c0,0.1,0.1,0.4-0.1,0.6c-0.1,0.2-0.1,0.3-0.2,0.3c-0.1,0.2-0.4,0.2-0.5,0.4c0,0.3,0.1,0.6,0.1,0.7c0,0.1-0.1,0.4-0.1,0.6
				c-0.1,0.3-0.4,0.5-0.5,0.5c-0.3,0-0.4,0.1-0.7-0.1c-0.2-0.1-0.3-0.2-0.5-0.5c-0.2-0.3-0.2-0.5-0.3-1.1c-0.1,0-0.4,0.1-0.6-0.1
				c-0.1,0-0.3-0.1-0.3-0.1c-0.3-0.1-0.5-0.4-0.5-0.7c0-0.3-0.1-0.4,0.1-0.6c0.1-0.2,0.2-0.3,0.4-0.3s0.4-0.1,0.6,0.1
				c0.2,0.1,0.3,0.2,0.3,0.4c0,0.1,0.1,0.4,0.1,0.8c0.4-0.1,1-0.1,1.4-0.2c-0.2-0.4-0.4-0.8-0.7-0.9c-0.1,0-0.1,0-0.3,0
				C15.7,30.7,15.5,30.7,15.4,30.7L15.4,30.7z M15.1,31.8c0-0.3-0.1-0.4-0.1-0.6c0-0.1-0.2-0.3-0.3-0.4c-0.1,0-0.3-0.1-0.3,0
				c-0.1,0-0.1,0.2-0.3,0.2c-0.1,0.2-0.1,0.3,0.1,0.4c0,0.1,0.2,0.3,0.3,0.2s0.2,0.1,0.3,0.1C14.7,31.7,14.8,31.8,15.1,31.8z
				 M16.9,32.1c-0.4,0.1-0.7,0.1-0.8,0.1s-0.4,0.1-0.7,0.1c0,0.3,0.1,0.4,0.2,0.5s0.2,0.3,0.3,0.4c0.2,0.1,0.3,0.1,0.6,0.1
				c0.1,0,0.3-0.2,0.4-0.3c0-0.1,0.1-0.2,0.1-0.3C16.9,32.6,16.9,32.3,16.9,32.1z"/>
			<path class="st0" d="M18.1,26.9l1-1.4l-0.9-0.6c-0.2-0.1-0.3-0.1-0.3-0.2l-0.1,0c-0.1,0-0.1,0.2-0.3,0.2l-0.1,0.3l-0.1,0l0.8-1.3
				l0.1,0L18,24.1c0,0-0.1,0.2-0.1,0.3l0,0.1c0,0,0.2,0.1,0.3,0.2l2,1.3c0.2,0.1,0.3,0.1,0.3,0.2l0.1,0c0.1,0,0.1-0.2,0.3-0.2
				l0.1-0.2l0.1,0l-0.9,1.1l-0.1,0l0.1-0.2c0.1-0.2,0.1-0.3,0.1-0.3c0-0.1-0.2-0.1-0.3-0.2l-0.9-0.6l-1,1.4l0.9,0.6
				c0.2,0.1,0.3,0.1,0.3,0.2l0.1,0c0.1,0,0.1-0.2,0.3-0.2l0.1-0.2l0.1,0l-0.8,1.3l-0.1,0l0.1-0.2c0.1-0.2,0.1-0.3,0.1-0.3
				c0-0.1-0.2-0.1-0.3-0.2l-2-1.3c-0.5-0.2-0.5-0.2-0.6-0.2l-0.1,0c-0.1,0-0.1,0.2-0.3,0.2l0,0l-0.1,0l0.8-1.3l0.1,0l-0.1,0.2
				c0,0-0.1,0.2-0.1,0.3l0,0.1c0,0,0.2,0.1,0.3,0.2L18.1,26.9z"/>
			<path class="st0" d="M20.4,21.3L20.4,21.3l0.7-1.1l0,0.1v0C21,20.5,21,20.7,21,20.8c0,0,0.2,0.1,0.3,0.2l1.1,1
				c0.3,0.2,0.5,0.5,0.7,0.6c0.2,0.1,0.2,0.4,0.1,0.7c0,0.3-0.2,0.6-0.5,0.8c-0.2,0.3-0.5,0.5-0.8,0.5c-0.3,0-0.4,0.1-0.7-0.1
				c-0.2-0.1-0.5-0.2-0.8-0.5l-1.1-1c-0.2-0.1-0.3-0.2-0.5-0.2c-0.1,0-0.1,0-0.3,0.2l-0.1,0.2l0-0.1l1-1.1l0,0.1l-0.1,0.2
				c-0.1,0.2-0.1,0.2-0.1,0.3s0.2,0.1,0.3,0.2l1.3,1c0.2,0.1,0.3,0.2,0.5,0.2c0.2,0.1,0.3,0.1,0.5,0.2c0.1,0,0.3,0,0.4-0.1
				c0.1,0,0.3-0.2,0.4-0.3c0.1-0.2,0.2-0.3,0.4-0.6c0.1-0.2,0.1-0.4-0.1-0.6c0-0.1-0.3-0.4-0.5-0.7l-1.3-0.8
				c-0.2-0.1-0.3-0.2-0.3-0.2C20.6,21,20.5,21,20.4,21.3L20.4,21.3z"/>
			<path class="st0" d="M25.8,21.1l-3.2-1.5l1.7,1.8c0.2,0.1,0.3,0.2,0.3,0.2c0.1,0,0.3,0,0.3-0.2l0.1-0.2l0,0.1l-0.9,1.1l0-0.1
				l0.1-0.2c0.1-0.2,0.1-0.2,0.1-0.3c0,0,0-0.1-0.2-0.4l-1.7-1.8c-0.2-0.1-0.2-0.3-0.3-0.2l-0.1,0c-0.1,0-0.1,0-0.3,0.2l0-0.1
				l0.8-0.7l3,1.3l-1-3l0.8-0.7l0,0.1l-0.1,0.2c-0.1,0.2-0.1,0.2-0.1,0.3s0,0.1,0.2,0.4l1.7,1.8c0.2,0.1,0.3,0.2,0.3,0.2
				c0.1,0,0.3,0,0.3-0.2l0.1-0.2l0,0.1l-1.2,1l0-0.1l0.1-0.2c0.1-0.2,0.1-0.2,0.1-0.3c0-0.1,0-0.1-0.2-0.4l-1.7-1.8L25.8,21.1
				L25.8,21.1z"/>
			<path class="st0" d="M29.5,16.9l-1.2,0.9l0.1,0.6c0,0.1,0,0.3,0,0.3l0.2,0.1c0,0,0.1,0,0.4-0.2l0,0.1l-1.1,0.7l0-0.1
				c0.1-0.2,0.1-0.2,0.2-0.3c0-0.1,0-0.3-0.1-0.6L27.5,15l0.1,0l2.8,1.8c0.2,0.1,0.5,0.2,0.5,0.2c0.1,0,0.3,0,0.4-0.1l0,0.1L30,17.8
				l0-0.1c0.1-0.2,0.1-0.2,0.3-0.2l0-0.1c0-0.1-0.2-0.1-0.3-0.2L29.5,16.9z M29.2,16.8l-1.4-0.8l0.3,1.5L29.2,16.8z"/>
			<path class="st0" d="M29.6,13.7l1-0.4l3.3,1.4l-1-1.9c-0.2-0.3-0.2-0.3-0.3-0.4c-0.1,0-0.1,0-0.3,0l-0.1,0l0-0.1l1.2-0.6l0,0.1
				l-0.1,0c-0.1,0-0.3,0.2-0.2,0.3c0,0,0,0.1,0.2,0.4l1.5,2.8l-0.1,0L31,13.9l1,2c0.2,0.3,0.2,0.3,0.3,0.4c0.1,0,0.1,0,0.3,0l0.1,0
				l0,0.1L31.5,17l0-0.1l0.1,0c0.1,0,0.3-0.2,0.2-0.3c0,0,0-0.1-0.2-0.4l-1.2-2.3c-0.2-0.1-0.3-0.1-0.3-0.1s-0.1,0-0.3,0
				C29.8,13.8,29.8,13.8,29.6,13.7L29.6,13.7z"/>
			<path class="st0" d="M37.8,10.2l0.4,1.2l-0.1,0c-0.2-0.3-0.2-0.4-0.4-0.5c-0.2-0.1-0.3-0.2-0.5-0.2c-0.1,0-0.3,0-0.6,0.1
				c-0.1,0-0.3,0.2-0.4,0.3c-0.1,0.2-0.1,0.3-0.1,0.4c0,0.1,0.2,0.1,0.2,0.3c0.2,0.1,0.5,0.2,0.9,0.3s0.7,0.2,0.9,0.2
				c0.3,0,0.4,0.1,0.5,0.2c0.2,0.1,0.2,0.3,0.2,0.4c0,0.3,0.1,0.6-0.1,0.7c-0.1,0.3-0.4,0.5-0.8,0.5c-0.1,0-0.1,0-0.3,0
				c0,0-0.1,0-0.4,0.1c-0.1,0-0.3,0-0.4,0.1l-0.1,0l0,0.1l-0.1,0l-0.4-1.2l0.1,0c0.2,0.3,0.2,0.4,0.4,0.5c0.4,0.1,0.6,0.2,0.7,0.2
				c0.1,0,0.4-0.1,0.6-0.1c0.3,0,0.4-0.2,0.5-0.4c0.1-0.2,0.1-0.3,0.1-0.4s0-0.1-0.2-0.3c0-0.1-0.2-0.1-0.3-0.1
				c-0.1,0-0.3-0.1-0.7-0.2c-0.3-0.1-0.6-0.1-0.7-0.2c-0.2-0.1-0.3-0.1-0.5-0.2C36,12,36,11.9,36,11.7c0-0.3-0.1-0.6,0.1-0.7
				c0.1-0.3,0.4-0.5,0.7-0.5c0.1,0,0.4-0.1,0.7-0.1c0.1,0,0.1,0,0.3,0l0.1,0C37.7,10.4,37.7,10.4,37.8,10.2L37.8,10.2z"/>
			<path class="st0" d="M39.9,9.9l0.3,1.4l0.8-0.2c0.3,0,0.4-0.1,0.4-0.2c0.1-0.2,0.1-0.3,0.1-0.4l0.1,0l0.3,1.3l-0.1,0
				c0-0.1-0.2-0.3-0.2-0.3l-0.2-0.1c-0.1,0-0.1,0-0.4,0.1l-0.8,0.2l0.3,1.3c0,0.1,0,0.3,0,0.3s0,0,0.2,0.1c0,0,0.1,0,0.3,0l0.6-0.1
				c0.1,0,0.4-0.1,0.4-0.2c0.1,0,0.1-0.2,0.3-0.2c0.1-0.2,0.1-0.3,0.2-0.6l0.1,0l-0.2,1l-2.8,0.6l0-0.1l0.1,0c0.1,0,0.1,0,0.3-0.2
				l0.1-0.2c0,0,0-0.1-0.1-0.4l-0.6-2.4c0-0.3-0.1-0.4-0.2-0.4S39.2,10,39.1,10l-0.1,0l0-0.1l2.8-0.6l0.2,0.8l-0.1,0
				c0-0.1-0.2-0.3-0.2-0.4c0,0-0.2-0.1-0.3-0.1c-0.1,0-0.1,0-0.4,0.1L39.9,9.9z"/>
			<path class="st0" d="M46.9,12.5l-1,0.1l-1.5-1.5c-0.1,0-0.1,0-0.3,0c0,0,0,0-0.1,0c0,0,0,0-0.1,0l0.1,1.1c0,0.3,0.1,0.4,0.1,0.4
				c0,0.1,0.2,0.1,0.3,0.1l0.1,0l0,0.1l-1.6,0.2l0-0.1l0.1,0c0.1,0,0.3,0,0.3-0.2c0,0,0-0.1-0.1-0.4L43,10c0-0.3-0.1-0.4-0.1-0.4
				c0-0.1-0.2-0.1-0.3-0.1l-0.1,0l0-0.1l1.4-0.2c0.4-0.1,0.7-0.1,0.9,0c0.1,0,0.3,0.1,0.5,0.2c0.2,0.1,0.2,0.3,0.2,0.5
				s-0.1,0.4-0.2,0.6c-0.1,0.2-0.4,0.3-0.7,0.4l0.9,1c0.2,0.3,0.3,0.4,0.5,0.4C46.6,12.3,46.7,12.4,46.9,12.5L46.9,12.5z M44.1,10.8
				L44.1,10.8c0.1,0,0.1,0,0.1,0c0.3,0,0.6-0.1,0.8-0.4c0.1-0.2,0.2-0.3,0.2-0.6S45.2,9.4,45,9.3S44.7,9,44.4,9.1
				c-0.1,0-0.3,0-0.4,0.1L44.1,10.8z"/>
			<path class="st0" d="M50.4,8.7L50.4,8.7c-0.1,0.2-0.3,0.2-0.3,0.2c-0.1,0.2-0.3,0.2-0.2,0.5l-1.3,3.2l-0.1,0L47,9.3
				C47,9.2,46.9,9,46.9,9l-0.2-0.1c0,0-0.1,0-0.3-0.1l0-0.1L48,8.6l0,0.1c-0.1,0-0.3,0-0.3,0L47.6,9c0,0.1,0,0.3,0.2,0.4l0.9,2.3
				l1-2.1c0-0.3,0.1-0.4,0.1-0.4l0-0.1c0,0-0.2-0.1-0.3-0.1l0,0l0-0.1L50.4,8.7z"/>
			<path class="st0" d="M52.3,12.5L52.3,12.5l-1.6-0.1l0-0.1l0.1,0c0.1,0,0.3,0,0.4-0.1c0,0,0.1-0.2,0.1-0.4l0.3-2.5
				c0-0.1,0-0.3-0.1-0.4c0,0,0-0.1-0.2-0.1c0,0-0.2-0.1-0.3-0.1l-0.1,0l0-0.1l1.6,0.1l0,0.1l-0.1,0c-0.1,0-0.3,0-0.4,0.1
				c0,0-0.1,0.2-0.1,0.4l-0.3,2.5c0,0.1,0,0.3,0.1,0.4c0,0,0,0.1,0.2,0.1C52,12.4,52.2,12.5,52.3,12.5L52.3,12.5z"/>
			<path class="st0" d="M56.7,9.4l-0.1,1.3l-0.1,0c-0.1-0.4-0.2-0.7-0.4-0.8c-0.2-0.3-0.5-0.4-0.8-0.3c-0.3-0.1-0.4-0.1-0.7,0.1
				c-0.3,0-0.4,0.2-0.5,0.5c-0.1,0.3-0.2,0.6-0.3,1c-0.1,0.3-0.1,0.6,0,0.9c0,0.3,0.2,0.4,0.4,0.7c0.2,0.1,0.5,0.2,0.8,0.3
				c0.3,0,0.4,0.1,0.7-0.1c0.1,0,0.4-0.2,0.7-0.5l0,0.1c-0.2,0.3-0.5,0.5-0.8,0.7c-0.3,0.2-0.6,0.1-1,0.1c-0.6-0.1-1.1-0.4-1.3-1
				C53,12,52.9,11.6,53,11.1c0.1-0.3,0.2-0.7,0.5-0.9c0.2-0.3,0.5-0.5,0.8-0.5c0.3-0.2,0.7-0.1,1-0.1c0.3,0.1,0.6,0.2,0.8,0.3
				l0.2,0.1l0.1,0C56.4,9.6,56.4,9.4,56.7,9.4L56.7,9.4z"/>
			<path class="st0" d="M58.5,10.2l-0.4,1.3l0.7,0.2c0.2,0.1,0.3,0.1,0.4,0.1c0.1,0,0.3-0.2,0.2-0.3l0.1,0l-0.4,1.2l-0.1,0
				c0-0.1,0-0.3,0-0.3c0-0.1,0-0.1-0.2-0.1c0,0-0.2-0.1-0.3-0.1L57.9,12l-0.3,1.2c0,0.1-0.1,0.3-0.1,0.3l0,0.1l0.2,0.1l0.6,0.2
				c0.2,0.1,0.3,0.1,0.4,0.1s0.1,0,0.3,0c0.1,0,0.3-0.2,0.5-0.4l0.1,0l-0.4,0.5l-2.8-0.8l0-0.1l0.1,0c0.1,0,0.1,0,0.3,0
				c0,0,0.1,0,0.1-0.2c0,0,0.1-0.2,0.1-0.3l0.7-2.4c0.1-0.3,0.1-0.4,0.1-0.4c0-0.1-0.2-0.1-0.3-0.2l-0.1,0l0-0.1l2.8,0.8l-0.2,1
				l-0.1,0c0-0.1,0-0.3-0.1-0.4c0-0.1,0-0.1-0.2-0.3c0,0-0.2-0.1-0.3-0.1L58.5,10.2z"/>
			<path class="st0" d="M63.6,11.5l-0.4,1.2l-0.1,0c0.1-0.3,0.1-0.4,0.1-0.7c0-0.1,0-0.3-0.2-0.4s-0.3-0.2-0.5-0.2
				c-0.2-0.1-0.3-0.1-0.6-0.1c-0.1,0-0.3,0.2-0.4,0.3c0,0.1,0,0.1,0,0.3c0,0.1,0.2,0.4,0.5,0.8c0.3,0.2,0.5,0.5,0.5,0.7
				s0.2,0.3,0.2,0.4c0,0.1,0,0.3-0.1,0.4c-0.1,0.3-0.2,0.5-0.7,0.5c-0.3,0.2-0.6,0.1-0.9,0c-0.1,0-0.2-0.1-0.3-0.1
				c0,0-0.2-0.1-0.3-0.2c-0.2-0.1-0.3-0.2-0.3-0.2l-0.1,0c0,0-0.1,0-0.1,0.2l-0.1,0l0.4-1.2l0.1,0c-0.1,0.3-0.1,0.4-0.1,0.6
				s0,0.3,0.2,0.4c0.2,0.1,0.3,0.2,0.5,0.4s0.4,0.1,0.6,0.1c0.1,0,0.3-0.2,0.4-0.3c0-0.1,0-0.1,0-0.3c0-0.1,0-0.3-0.2-0.3
				c0-0.1-0.2-0.3-0.5-0.5c-0.2-0.3-0.4-0.5-0.5-0.7c0-0.1-0.2-0.3-0.2-0.4c0-0.1,0-0.3,0.1-0.4c0.1-0.3,0.2-0.5,0.5-0.5
				c0.3-0.2,0.6-0.1,0.9,0c0.2,0.1,0.3,0.2,0.5,0.4c0,0.1,0.2,0.1,0.2,0.1l0.1,0C63.5,11.7,63.4,11.5,63.6,11.5L63.6,11.5z"/>
			<path class="st0" d="M69.9,14.9L69.9,14.9l1.2,0.6l0,0.1l-0.3-0.1c-0.1,0-0.3,0-0.4,0.1c0,0-0.1,0.2-0.2,0.3l-0.8,1.3
				c-0.2,0.3-0.4,0.5-0.6,0.7C68.6,17.9,68.3,18,68,18s-0.6-0.1-0.9-0.3c-0.3-0.2-0.6-0.5-0.7-0.6c-0.2-0.3-0.2-0.4-0.1-0.7
				c0-0.1,0.2-0.5,0.5-0.8l0.8-1.3c0.1-0.2,0.2-0.3,0.1-0.4c0-0.1,0-0.1-0.2-0.3h0l0-0.1l1.4,0.8l0,0.1l-0.2-0.1
				c-0.2-0.1-0.3-0.1-0.3-0.1c-0.1,0-0.1,0.2-0.2,0.3l-1,1.4c-0.1,0.2-0.1,0.3-0.2,0.5C67,16.6,67,16.7,67,16.8c0,0.1,0,0.3,0.2,0.4
				c0,0.1,0.2,0.3,0.3,0.4s0.5,0.2,0.6,0.2c0.3,0,0.4-0.1,0.6-0.1c0.1-0.2,0.4-0.3,0.5-0.6l0.8-1.3c0.1-0.2,0.2-0.3,0.2-0.5
				C70.1,15.2,70.1,15,69.9,14.9L69.9,14.9z"/>
			<path class="st0" d="M73.5,17.3l-0.7,1l-0.2-0.1c0.1-0.2,0.2-0.5,0.2-0.6c0-0.1,0-0.3-0.1-0.6c0-0.1-0.2-0.3-0.3-0.4
				c-0.2-0.1-0.3-0.1-0.4-0.1c-0.1,0-0.3,0-0.4,0.2s-0.1,0.2-0.1,0.3c0,0.1,0.1,0.4,0.3,1c0.2,0.4,0.2,0.7,0.2,0.8
				c0,0.1,0,0.3,0.1,0.4c0,0.1-0.1,0.3-0.2,0.5c-0.1,0.2-0.4,0.3-0.7,0.4c-0.3,0-0.6-0.1-0.9-0.3c-0.2-0.1-0.2-0.1-0.2-0.3
				c0,0-0.2-0.1-0.2-0.3c-0.2-0.1-0.2-0.3-0.2-0.3s0,0-0.1,0c0,0-0.1,0-0.1,0.2L69.3,19l0.7-1l0.2,0.1c-0.1,0.3-0.2,0.5-0.2,0.6
				c0,0.1,0,0.3,0.1,0.4c0,0.1,0.2,0.3,0.3,0.4s0.3,0.2,0.6,0.2c0.1,0,0.3,0,0.4-0.2c0,0,0.1-0.2,0.1-0.3c0-0.1,0-0.3,0-0.3
				c0-0.1,0-0.3-0.2-0.7C71,18.1,71,17.8,71,17.6c0-0.1,0-0.3-0.1-0.4c0-0.1,0.1-0.3,0.2-0.5c0.1-0.2,0.4-0.3,0.7-0.4
				c0.3,0,0.6,0.1,0.7,0.2s0.3,0.2,0.4,0.5c0,0.1,0.2,0.1,0.2,0.1l0.1,0C73.4,17.3,73.4,17.3,73.5,17.3L73.5,17.3z"/>
			<path class="st0" d="M74.5,21.5l-1.1-1l-0.5,0.4c-0.1,0-0.3,0.2-0.3,0.2l0,0.1c0,0,0,0.1,0.2,0.3l-0.1,0l-0.8-0.8l0.1,0
				c0.2,0.1,0.3,0.1,0.3,0.1c0.1,0,0.3,0,0.5-0.2l3.1-1.3l0,0l-1.2,3.2c-0.2,0.3-0.2,0.5-0.2,0.6c0,0.1,0,0.3,0.2,0.3l-0.1,0l-1.1-1
				l0.1,0c0.2,0.1,0.2,0.1,0.3,0.1l0.1,0c0,0,0.1-0.2,0.2-0.3L74.5,21.5z M74.5,21.4l0.5-1.5l-1.5,0.6L74.5,21.4z"/>
		</g>
		<text transform="matrix(1.0124 -0.1286 0.126 0.992 63.941 17.8804)" class="st0 st1 st2">·</text>
		<path class="st0" d="M82.3,36.5c0,0-2.4,2.7-4.2,4.3c-1.8,1.5-10.5,7.8-12.3,9.9c-1.8,1.9-1.6,3.5-1.6,3.5l0.4,4.3
			c0,0-1.1,1.4-1.2,2s0.9,0.5,1.7,0.8c0.8,0.3,0,0.9,0.3,1.1c0.7,0.6,1.2,0,0.9,1.2c0,0.1,0.7,0.6,0.6,1.1c-0.1,0.4-0.3,0.9,0.3,1.3
			c0.6,0.5,2.3,1.1,6-0.2c4-1.4,7.1,1.5,9.2,1.9c0.7,0.1,3.1,0.6,6.4-2.8c1.4-1.5-1,0-4.9-1.1c-4-1.2-5.3-1.2-7.8-0.3
			c-2.2,0.7-3.9,1.4-4.7,1.2c-0.7-0.2-0.3-1.4-0.9-1.5c-1.2-0.3-0.6-0.9-1.2-1.1c-0.8-0.3-0.4-0.5-0.4-1.2c-0.1-0.6-0.6-0.4-1.5-0.7
			c-0.8-0.3,0.7-1.2,0.9-1.8c0.2-0.7-0.2-1.7-0.2-3c0-2.4,3.3-4.7,5-6c1.8-1.4,7.3-5.8,8.6-7C84.4,39.2,82.3,36.5,82.3,36.5z"/>
	</g>
</g>
</svg>
