<?xml version="1.0" encoding="utf-8"?>
<!-- Generator: Adobe Illustrator 22.0.1, SVG Export Plug-In . SVG Version: 6.00 Build 0)  -->
<svg version="1.1" id="Layer_2" xmlns="http://www.w3.org/2000/svg" xmlns:xlink="http://www.w3.org/1999/xlink" x="0px" y="0px"
	 viewBox="0 0 211 57" style="enable-background:new 0 0 211 57;" xml:space="preserve">
<style type="text/css">
	.st0{fill:#FFFFFF;}
	.st1{font-family:'TimesNewRomanPSMT';}
	.st2{font-size:5.8514px;}
</style>
<g>
	<g>
		<path class="st0" d="M43.2,16.2c0,0-0.7,1.4-2.2,2.6c-1.1,0.9-13.2,8.7-13.9,9.2c-0.6,0.5-1.7,1.8-2.6,5.6c-0.7,3.1-1.2,2-3.6,1.8
			c-1.4-0.1-5.3-1.2-5,2c0,0,0.5-0.7,5.8,0.1c2.1,0.3,3.8-0.4,4.3-2.1c0.5-1.7,1.2-4.5,2.3-5.9c0.5-0.7,10.2-6.9,13-8.6
			C42.3,20.4,45.4,18.4,43.2,16.2z"/>
		<path class="st0" d="M12.6,39.7c0,0,0.8-0.7,2.9,0.2c2.1,0.9,7.6,3.5,9.1,4.6c0.9,0.7,3.4,1.8,2.7,3.1c-0.7,1.2-4,1.8-3.4,4.5
			c0.7,2.7,4.4,1.6,4.9,0.9c0.5-0.7-1.7,0.4-2.4-1.6c-0.6-1.6,0.4-2.6,1.9-3.6c0.7-0.5,1.7-0.9,1.5-2.1c-0.1-0.9-1.6-1.6-3.1-2.5
			s-7.3-3.7-9.6-4.8C14.8,37.4,12.3,37.8,12.6,39.7z"/>
		<path class="st0" d="M45.5,19.5c-0.2,0.5-0.5,1.2-1.7,2.1c-2.1,1.5-10.6,6.9-12.6,8.2c-1.1,0.7-2,2-2.2,2.6
			c-0.3,0.7-0.7,2.2-0.9,5c0,0.5-1.3,1.4-1.2,1.8c0.2,0.4,1.2,0.2,1.2,0.5c0,0.2-0.3,0.7-0.3,0.9c0,0.3,0.6,0,0.4,0.3
			c-0.2,0.5,0.2,0.7,0.3,1c0.2,0.4-0.1,0.8,0.1,1.2c0.2,0.6,1.1,0.7,2.5,0.7c1.4,0,2,1,1.7,1.8c-0.4,1.2-1.3,1.2-2.7,2.1
			c-1.4,1-1.5,2.3-0.7,3.4c0.7,0.8,3.1,1.2,4.5-0.3c0.3-0.3-0.7,0.2-2.1-0.7c0,0-0.9-0.7-0.4-1.7c0.5-0.9,1.3-1.3,2.1-1.9
			c0.9-0.6,2.1-0.8,2-2c-0.1-1.2-1.2-1.3-1.7-1.3c-0.5,0-1.2,0-1.8,0c-1-0.1-1.3-0.6-1.3-2.5c0-0.7-0.9-0.3-0.4-1.2
			c0.2-0.4-0.5-0.2-1-0.5c-0.4-0.2,0.5-1.1,1.1-2c0.2-0.2-0.1-0.6,0-1.9c0.1-1.2,0.6-2.6,2.1-3.6c0.7-0.5,3.8-2.5,4.7-3.1
			c1.2-0.7,7.3-4.8,8.3-5.6C47.4,21.2,45.3,19.3,45.5,19.5z"/>
		<g>
			<path class="st0" d="M23.2,50.5L23.2,50.5L23.2,50.5c-0.2,0.1-0.2,0.1-0.2,0.2c0,0-0.1,0.1-0.1,0.2l-0.2,1.4c0,0.2,0,0.2,0,0.2
				c0,0.1,0.1,0.1,0.2,0.1H23v0.1l-0.9-0.1c-0.3,0-0.6-0.1-0.7-0.2c-0.2-0.1-0.2-0.2-0.3-0.4c-0.1-0.2-0.1-0.4-0.1-0.6
				c0-0.3,0.2-0.5,0.4-0.7c0.2-0.2,0.6-0.2,1-0.2L23.2,50.5z M22.6,50.6c-0.2-0.1-0.2-0.1-0.3-0.1c-0.2,0-0.5,0-0.7,0.2
				c-0.2,0.2-0.3,0.4-0.3,0.7c0,0.3,0,0.6,0.2,0.7c0.2,0.2,0.3,0.3,0.6,0.3c0.1,0,0.2,0,0.3,0L22.6,50.6z"/>
			<path class="st0" d="M19.7,52l0.2-0.8l-0.4-0.1c-0.1,0-0.2,0-0.2,0c-0.1,0-0.1,0.1-0.2,0.2h-0.1l0.2-0.7h0.1c0,0.1,0,0.2,0,0.2
				c0,0,0,0.1,0.1,0.1c0,0,0.1,0.1,0.2,0.1l0.5,0.1l0.2-0.7c0-0.1,0-0.2,0-0.2s0,0,0-0.1c0,0-0.1,0-0.1-0.1L19.7,50
				c-0.1,0-0.2,0-0.2,0c-0.1,0-0.1,0-0.2,0.1s-0.2,0.2-0.2,0.2h-0.1l0.3-0.5l1.7,0.4v0.1h-0.1c-0.1,0-0.1,0-0.2,0c0,0-0.1,0-0.1,0.1
				c0,0-0.1,0.1-0.1,0.2L20.2,52c0,0.2,0,0.2,0,0.2c0,0.1,0.1,0.1,0.2,0.1h0.1v0.1L18.8,52l0.1-0.5h0.1c0,0.1,0,0.2,0,0.2
				s0.1,0.1,0.1,0.1s0.1,0.1,0.2,0.1L19.7,52z"/>
			<path class="st0" d="M17.9,50.5l0.2-0.6c0.1-0.2,0.1-0.2,0-0.2c0-0.1-0.1-0.1-0.2-0.1h-0.1v-0.1l0.9,0.3v0.1h-0.1
				c-0.1,0-0.2,0-0.2,0c0,0-0.1,0.1-0.1,0.2l-0.5,1.3c-0.1,0.2-0.1,0.2-0.1,0.2c0,0.1,0.1,0.1,0.2,0.2h0.1V52l-0.7-0.2
				c-0.2-0.1-0.3-0.2-0.4-0.2c-0.1-0.1-0.2-0.2-0.2-0.2c-0.1-0.1,0-0.2,0-0.3c0.1-0.2,0.2-0.2,0.3-0.3c0.2-0.1,0.3-0.1,0.5,0
				c0.1,0,0.1,0,0.2,0.1C17.8,50.4,17.9,50.4,17.9,50.5z M17.9,50.6c-0.1,0-0.1-0.1-0.2-0.1c0,0-0.1,0-0.1-0.1c-0.1,0-0.2,0-0.3,0
				c-0.1,0.1-0.2,0.2-0.2,0.2c0,0.1-0.1,0.2,0,0.2c0,0.1,0.1,0.2,0.1,0.2c0.1,0.1,0.1,0.1,0.2,0.2c0.1,0,0.1,0,0.2,0L17.9,50.6z"/>
			<path class="st0" d="M15.7,49.2l0.7,0.3l0.2-0.2c0.1-0.1,0.1-0.1,0.2-0.2v-0.1c0,0-0.1-0.1-0.2-0.2v-0.1l0.7,0.2v0.1
				c-0.1,0-0.2,0-0.2,0c-0.1,0-0.2,0.1-0.3,0.2l-1.5,1.3h-0.1l0.1-2c0-0.2,0-0.2,0-0.3c0-0.1-0.1-0.1-0.2-0.2v-0.1l0.8,0.3v0.1
				c-0.1,0-0.2-0.1-0.2,0c0,0-0.1,0-0.1,0.1s0,0.1,0,0.2L15.7,49.2z M15.7,49.4v0.9l0.7-0.7L15.7,49.4z"/>
			<path class="st0" d="M13.2,47.1l0.5,0.3l0.1,1.2c0.1,0,0.1,0.1,0.1,0.1l0,0l0,0l0.3-0.6c0.1-0.1,0.1-0.2,0.1-0.2
				s-0.1-0.1-0.1-0.2l-0.1-0.1v-0.1l0.8,0.5v0.1h-0.1c-0.1-0.1-0.2-0.1-0.2,0c0,0-0.1,0.1-0.2,0.2L14,49.6c-0.1,0.1-0.1,0.2-0.1,0.2
				c0,0.1,0.1,0.1,0.2,0.2l0.1,0.1v0.1l-0.7-0.4c-0.2-0.1-0.3-0.2-0.4-0.3c-0.1-0.1-0.2-0.2-0.2-0.3c0-0.1,0-0.2,0.1-0.3
				c0.1-0.1,0.2-0.2,0.3-0.2c0.2,0,0.2,0,0.5,0l-0.3-0.7c0-0.2-0.1-0.3-0.1-0.4C13.4,47.3,13.3,47.3,13.2,47.1L13.2,47.1z
				 M14.1,48.8C14,48.8,14,48.8,14.1,48.8C14,48.8,14,48.8,14.1,48.8c-0.2-0.2-0.4-0.2-0.6-0.2s-0.2,0.1-0.3,0.2
				c-0.1,0.1-0.1,0.2-0.1,0.3c0,0.1,0.1,0.2,0.2,0.2c0.1,0,0.2,0.1,0.2,0.1L14.1,48.8z"/>
			<path class="st0" d="M10.6,47.8l0.2-0.4h0.1c-0.1,0.1-0.1,0.2-0.1,0.2c0,0.1,0,0.2,0,0.2c0,0.1,0.1,0.1,0.2,0.2l0.2,0.2l1-1.3
				c0.1-0.1,0.1-0.2,0.1-0.2s-0.1-0.1-0.1-0.2l-0.1-0.1v-0.1l0.7,0.6v0.1l0,0.1c-0.1-0.1-0.2-0.1-0.2-0.1c0,0-0.1,0.1-0.2,0.2
				l-1,1.4l0.2,0.2c0.1,0.1,0.2,0.1,0.2,0.1c0.1,0,0.1,0,0.2,0c0.1,0,0.2-0.1,0.2-0.2h0.1L12,48.9L10.6,47.8z"/>
			<path class="st0" d="M10.7,45.2l-0.7,1.9l1-1.1c0.1-0.1,0.2-0.2,0.2-0.2s0-0.1-0.1-0.2l-0.1-0.1v-0.1l0.6,0.5V46l-0.1-0.1
				c-0.1-0.1-0.2-0.1-0.2-0.1c-0.1,0-0.1,0.1-0.2,0.2l-1,1.1c-0.1,0.1-0.1,0.2-0.1,0.2v0.1c0,0.1,0.1,0.1,0.1,0.2v0.1l-0.5-0.4
				l0.6-1.7l-1.7,0.7l-0.4-0.4l0.1-0.1l0.1,0.1c0.1,0.1,0.2,0.1,0.2,0.1s0.1-0.1,0.2-0.2l1-1.1c0.1-0.1,0.2-0.2,0.2-0.2
				s0-0.1-0.1-0.2l-0.1-0.1L9.8,44l0.7,0.7l-0.1,0.1l-0.1-0.1c-0.1-0.1-0.2-0.1-0.2-0.1s-0.1,0.1-0.2,0.2l-1,1.1L10.7,45.2
				L10.7,45.2z"/>
			<path class="st0" d="M7.6,44.9l0.7-0.6L7.9,44c-0.1-0.1-0.2-0.2-0.2-0.2c-0.1,0-0.2,0-0.2,0.1v-0.1l0.6-0.5v0.1
				C8,43.5,8,43.6,7.9,43.6c0,0,0,0.1,0,0.2S8,43.9,8,43.9l0.3,0.3l0.6-0.5C9,43.7,9,43.7,9.1,43.7v-0.1c0,0,0-0.1-0.1-0.1l-0.2-0.2
				c-0.1-0.1-0.2-0.2-0.2-0.2c-0.1,0-0.1-0.1-0.2-0.1c-0.1,0-0.2,0-0.3,0L8,43l0.6-0.2l1.1,1.2H9.6l-0.1-0.1l-0.1-0.1H9.3
				c0,0-0.1,0.1-0.2,0.1l-1.1,0.9c-0.1,0.1-0.2,0.2-0.2,0.2c0,0.1,0,0.1,0.1,0.2l0.1,0.1H8L7,43.9l0.3-0.3l0.1,0.1
				c-0.1,0.1-0.1,0.2-0.2,0.2c0,0.1,0,0.1,0,0.2c0,0.1,0.1,0.1,0.2,0.2L7.6,44.9z"/>
			<path class="st0" d="M6.5,43.9l-0.3-0.5l0.6-2l-1,0.7c-0.1,0.1-0.2,0.2-0.2,0.2c0,0.1,0,0.1,0.1,0.2l0.1,0.1H5.6l-0.4-0.7h0.1
				l0.1,0.1C5.5,42,5.5,42,5.5,42c0.1,0,0.1,0,0.2-0.1l1.6-1V41l-0.8,2.1l1.1-0.7c0.1-0.1,0.2-0.2,0.2-0.2c0-0.1,0-0.1-0.1-0.2
				L7.8,42h0.1l0.4,0.7H8.2l-0.1-0.1C8,42.5,8,42.5,7.9,42.5s-0.1,0-0.2,0.1l-1.2,0.8c0,0.1,0,0.2,0,0.2s0,0.1,0,0.2
				C6.5,43.7,6.5,43.8,6.5,43.9L6.5,43.9z"/>
			<path class="st0" d="M4.1,40l0.4-0.2v0.1c-0.1,0.1-0.1,0.1-0.2,0.2c0,0.1-0.1,0.1-0.1,0.2c0,0.1,0,0.2,0.1,0.2l0.2,0.2L6,39.8
				c0.1-0.1,0.2-0.1,0.2-0.2c0-0.1,0-0.1,0-0.2v-0.1h0.1l0.4,0.8H6.5v-0.1C6.5,40.1,6.5,40,6.4,40c-0.1,0-0.1,0-0.2,0.1l-1.5,0.8
				l0.2,0.2c0.1,0.1,0.1,0.2,0.2,0.2c0.1,0,0.1,0.1,0.2,0.1c0.1,0,0.2,0,0.2-0.1v0.1l-0.5,0.2L4.1,40z"/>
			<path class="st0" d="M3.1,37.8C3,37.5,3,37.3,3.2,36.9c0.2-0.2,0.3-0.5,0.7-0.6c0.3-0.1,0.6-0.1,0.9,0c0.2,0.1,0.5,0.3,0.6,0.6
				c0.1,0.2,0.1,0.6,0,0.8C5.1,38,5,38.2,4.6,38.3c-0.3,0.1-0.7,0.1-0.9,0C3.3,38.3,3.2,38,3.1,37.8z M3.2,37.8
				c0.1,0.2,0.2,0.3,0.3,0.3C3.7,38.2,4,38.2,4.3,38c0.3-0.1,0.6-0.2,0.7-0.5c0.1-0.2,0.1-0.3,0.1-0.5c-0.1-0.2-0.2-0.3-0.4-0.4
				s-0.5-0.1-0.8,0.1c-0.3,0.2-0.6,0.3-0.7,0.5C3.1,37.4,3.1,37.6,3.2,37.8z"/>
			<path class="st0" d="M2.6,35.8l0.8-0.2l-0.1-0.4c0-0.1-0.1-0.2-0.1-0.2c-0.1,0-0.2,0-0.2,0v-0.1l0.7-0.2v0.1
				c-0.1,0-0.2,0.1-0.2,0.1l-0.1,0.1c0,0,0,0.1,0,0.2l0.1,0.4l0.7-0.2c0.1,0,0.2-0.1,0.2-0.1s0-0.1,0.1-0.1c0-0.1,0-0.1,0-0.2v-0.1
				h0.1l0.2,0.9H4.7v-0.1c0-0.1-0.1-0.2-0.2-0.2c0,0-0.1,0-0.2,0l-1.4,0.3c-0.1,0-0.2,0.1-0.2,0.1c0,0,0,0.1-0.1,0.1
				c0,0.1,0,0.1,0,0.2v0.1H2.5l-0.4-1.6l0.5-0.2v0.1c-0.1,0.1-0.2,0.1-0.2,0.2S2.3,34.9,2.3,35c0,0.1,0,0.2,0,0.2L2.6,35.8z"/>
			<path class="st0" d="M2.8,32.7l-0.1-1l-0.7,0.1c-0.1,0-0.2,0-0.2,0.1c0,0-0.1,0-0.1,0.1c0,0.1,0,0.1,0,0.2v0.1H1.7l-0.1-1h0.1
				v0.1c0,0.1,0,0.1,0.1,0.2l0.1,0.1c0,0,0.1,0,0.2,0l1.4-0.2c0.1,0,0.2,0,0.2-0.1c0,0,0.1,0,0.1-0.1s0-0.1,0-0.2V31h0.1L4,31.9H3.9
				v-0.1c0-0.1-0.1-0.2-0.1-0.2s-0.1,0-0.2,0l-0.7,0.1l0.1,1l0.7-0.1c0.1,0,0.2,0,0.2-0.1c0,0,0.1,0,0.1-0.1s0-0.1,0-0.2v-0.1h0.1
				l0.1,0.9H4.1V33C4.1,33,4,32.9,4,32.9s-0.1,0-0.2,0L2.3,33c-0.1,0-0.2,0-0.2,0.1c0,0-0.1,0-0.1,0.1s0,0.1,0,0.2v0.1H1.9l-0.1-0.9
				h0.1v0.1c0,0.1,0,0.1,0.1,0.2l0.1,0.1c0,0,0.1,0,0.2,0L2.8,32.7z"/>
			<path class="st0" d="M1.7,30.2h0.9v-0.5c0-0.1,0-0.2-0.1-0.2s-0.2-0.1-0.2-0.1v-0.1h0.7v0.1c-0.1,0-0.2,0-0.2,0.1l-0.1,0.1
				c0,0.1,0,0.1,0,0.2v0.5h0.7c0.1,0,0.2,0,0.2,0s0,0,0.1-0.1v-0.1v-0.3c0-0.1,0-0.2,0-0.2c0-0.1-0.1-0.1-0.1-0.2
				c-0.1-0.1-0.2-0.2-0.3-0.2v-0.1L4,29.2v1.7H3.9v-0.1c0-0.1,0-0.1,0-0.2l-0.1-0.1c0,0-0.1,0-0.2,0H2.2c-0.2,0-0.2,0-0.2,0.1
				c-0.1,0-0.1,0.1-0.1,0.2v0.1H1.7v-1.7h0.5v0.1c-0.1,0-0.2,0.1-0.2,0.1s-0.1,0.1-0.1,0.1c0,0.1,0,0.1,0,0.2L1.7,30.2z"/>
			<path class="st0" d="M3.2,27.4l-0.1,0.8l0.3,0.2c0.1,0.1,0.2,0.1,0.2,0.1h0.1c0,0,0.1-0.1,0.1-0.2h0.1l-0.1,0.7H3.6
				c0-0.1,0-0.2-0.1-0.2c-0.1-0.1-0.2-0.2-0.3-0.2l-1.7-0.9v-0.1l1.9-0.6c0.2-0.1,0.2-0.1,0.3-0.2c0.1-0.1,0.1-0.1,0.1-0.2h0.1
				l-0.1,0.8H3.7c0-0.1,0-0.2,0-0.2l-0.1-0.1c-0.1,0-0.2,0-0.2,0.1L3.2,27.4z M3.1,27.4l-0.9,0.2L3,28.1L3.1,27.4z"/>
			<path class="st0" d="M3.8,24.5L3.8,24.5l0.6,0.2l-0.3,1.7H4v-0.1c0-0.1,0-0.2-0.1-0.2c0,0-0.1-0.1-0.2-0.1l-1.4-0.2
				c-0.2,0-0.2,0-0.2,0c-0.1,0-0.1,0.1-0.1,0.2V26H1.8L2,25.1h0.1c0,0.1,0,0.2,0,0.2c0,0.1,0,0.1,0.1,0.1c0,0,0.1,0.1,0.2,0.1
				l1.3,0.2c0.1,0,0.2,0,0.2,0s0.1,0,0.1-0.1c0,0,0-0.1,0.1-0.2v-0.2c0-0.2,0.1-0.2,0-0.3c0-0.1-0.1-0.2-0.1-0.2
				C4,24.7,3.9,24.6,3.8,24.5z"/>
			<path class="st0" d="M2.7,22.4l0.5,0.1v0.1c-0.1,0-0.2,0-0.2,0c-0.1,0-0.2,0.1-0.2,0.1c-0.1,0.1-0.1,0.1-0.1,0.2l-0.1,0.3
				l1.7,0.5c0.2,0,0.2,0.1,0.2,0c0.1,0,0.1-0.1,0.1-0.2v-0.1h0.1l-0.2,0.9H4.5v-0.1c0-0.1,0-0.2,0-0.2c0,0-0.1-0.1-0.2-0.1l-1.7-0.5
				l-0.1,0.2c0,0.1-0.1,0.2,0,0.2c0,0.1,0,0.1,0.1,0.2s0.1,0.1,0.2,0.2v0.1l-0.5-0.2L2.7,22.4z"/>
			<path class="st0" d="M4.1,21.8l0.4-0.9l-0.6-0.2c-0.1,0-0.2-0.1-0.2-0.1H3.6c-0.1,0-0.1,0.1-0.1,0.1v0.1H3.4l0.3-0.8h0.1V20
				c0,0.1,0,0.1,0,0.2c0,0,0,0.1,0.1,0.1c0,0,0.1,0.1,0.2,0.1l1.3,0.5c0.1,0.1,0.2,0.1,0.2,0.1h0.1c0.1,0,0.1-0.1,0.1-0.1v-0.1h0.1
				l-0.3,0.8H5.5v-0.1c0-0.1,0-0.2,0-0.2c0,0-0.1-0.1-0.2-0.2l-0.7-0.2L4.1,21.8L4.8,22c0.1,0.1,0.2,0.1,0.2,0.1h0.1
				c0.1,0,0.1-0.1,0.1-0.1v-0.1h0.1L5,22.7H4.9v-0.1c0-0.1,0-0.2,0-0.2c0,0-0.1-0.1-0.2-0.2l-1.3-0.5c-0.1,0-0.2-0.1-0.2-0.1H3
				c-0.1,0-0.1,0.1-0.1,0.1v0.1H2.8L3.2,21h0.1v0.1c0,0.1,0,0.1,0,0.2c0,0,0,0.1,0.1,0.1c0,0,0.1,0.1,0.2,0.1L4.1,21.8z"/>
			<path class="st0" d="M5.9,17.8l0.3-0.6h0.1c-0.1,0.1-0.1,0.2-0.1,0.2c0,0.1,0.1,0.2,0.2,0.3c0.1,0.2,0.2,0.3,0.2,0.5
				c0.2,0,0.2-0.1,0.3-0.1c0.1,0,0.2-0.1,0.2-0.2s0.1-0.2,0.1-0.2c0-0.1,0-0.2-0.1-0.2h0.1c0.1,0.1,0.2,0.2,0.2,0.3s0,0.2-0.1,0.3
				s-0.1,0.2-0.2,0.2c-0.1,0.1-0.2,0.1-0.3,0.2c0,0.2,0,0.3,0,0.4c0,0.1-0.1,0.2-0.1,0.3c-0.1,0.2-0.2,0.2-0.3,0.2
				c-0.2,0-0.2,0-0.4-0.1c-0.1-0.1-0.2-0.2-0.2-0.3s-0.1-0.3-0.1-0.7c-0.1,0-0.2,0-0.3-0.1c-0.1,0-0.2-0.1-0.2-0.1
				c-0.2-0.1-0.2-0.2-0.2-0.4c0-0.2,0-0.2,0.1-0.3c0.1-0.1,0.2-0.2,0.2-0.2s0.2,0,0.3,0.1c0.1,0.1,0.2,0.2,0.2,0.2
				c0,0.1,0,0.2,0,0.5c0.2,0,0.6,0,0.8,0c-0.1-0.2-0.2-0.5-0.3-0.6c-0.1,0-0.1,0-0.2,0C6,17.8,6,17.8,5.9,17.8L5.9,17.8z M5.6,18.3
				c0-0.2,0-0.2,0-0.3c0-0.1-0.1-0.2-0.2-0.2c-0.1,0-0.2-0.1-0.2,0c-0.1,0-0.1,0.1-0.2,0.1c-0.1,0.1-0.1,0.2,0,0.2
				c0,0.1,0.1,0.2,0.2,0.2c0.1,0,0.1,0.1,0.2,0.1C5.4,18.3,5.5,18.3,5.6,18.3z M6.6,18.7c-0.2,0-0.4,0-0.5,0s-0.2,0-0.4,0
				c0,0.2,0,0.2,0.1,0.3c0.1,0.1,0.1,0.2,0.2,0.2c0.1,0.1,0.2,0.1,0.3,0.1c0.1,0,0.2-0.1,0.2-0.2c0-0.1,0.1-0.1,0.1-0.2
				S6.6,18.8,6.6,18.7z"/>
			<path class="st0" d="M7.7,15.8L8.4,15l-0.5-0.4c-0.1-0.1-0.2-0.1-0.2-0.2H7.6c-0.1,0-0.1,0.1-0.2,0.1l-0.1,0.2H7.3l0.6-0.7h0.1
				l-0.1,0.1c0,0-0.1,0.1-0.1,0.2v0.1c0,0,0.1,0.1,0.2,0.2L9,15.5c0.1,0.1,0.2,0.1,0.2,0.2h0.1c0.1,0,0.1-0.1,0.2-0.1l0.1-0.1h0.1
				L9,16H8.9L9,16c0.1-0.1,0.1-0.2,0.1-0.2c0-0.1-0.1-0.1-0.2-0.2l-0.5-0.4L7.8,16l0.5,0.4c0.1,0.1,0.2,0.1,0.2,0.2h0.1
				c0.1,0,0.1-0.1,0.2-0.1l0.1-0.1h0.1L8.3,17H8.2l0.1-0.1c0.1-0.1,0.1-0.2,0.1-0.2c0-0.1-0.1-0.1-0.2-0.2l-1.1-0.9
				c-0.2-0.2-0.2-0.2-0.3-0.2H6.7c-0.1,0-0.1,0.1-0.2,0.1l0,0H6.5L7,15h0.1L7,15C7,15,7,15.1,7,15.2v0.1c0,0,0.1,0.1,0.2,0.2
				L7.7,15.8z"/>
			<path class="st0" d="M9.4,12.7L9.4,12.7l0.5-0.6v0.1v0c-0.1,0.1-0.1,0.2-0.1,0.2c0,0,0.1,0.1,0.2,0.2l0.6,0.7
				c0.2,0.2,0.2,0.3,0.3,0.4c0.1,0.1,0.1,0.2,0,0.4c0,0.2-0.2,0.3-0.3,0.4c-0.2,0.2-0.3,0.2-0.5,0.2c-0.2,0-0.2,0-0.4-0.1
				c-0.1-0.1-0.2-0.2-0.4-0.3l-0.6-0.7c-0.1-0.1-0.2-0.2-0.2-0.2c-0.1,0-0.1,0-0.2,0.1l-0.1,0.1v-0.1l0.7-0.6v0.1l-0.1,0.1
				c-0.1,0.1-0.1,0.1-0.1,0.2c0,0.1,0.1,0.1,0.2,0.2l0.7,0.7c0.1,0.1,0.2,0.2,0.2,0.2c0.1,0.1,0.2,0.1,0.2,0.2c0.1,0,0.2,0,0.2,0
				c0.1,0,0.2-0.1,0.2-0.2c0.1-0.1,0.2-0.2,0.2-0.3c0.1-0.1,0.1-0.2,0-0.3c0-0.1-0.2-0.2-0.2-0.4l-0.7-0.6c-0.1-0.1-0.2-0.2-0.2-0.2
				C9.6,12.6,9.5,12.6,9.4,12.7L9.4,12.7z"/>
			<path class="st0" d="M12.6,13l-1.7-1.1l0.8,1.2c0.1,0.1,0.2,0.2,0.2,0.2c0.1,0,0.2,0,0.2-0.1l0.1-0.1v0.1l-0.6,0.6v-0.1l0.1-0.1
				c0.1-0.1,0.1-0.1,0.1-0.2c0,0,0-0.1-0.1-0.2L10.7,12c-0.1-0.1-0.1-0.2-0.2-0.2h-0.1c-0.1,0-0.1,0-0.2,0.1v-0.1l0.5-0.3l1.7,1
				l-0.3-1.8l0.5-0.3v0.1l-0.1,0.1c-0.1,0.1-0.1,0.1-0.1,0.2c0,0.1,0,0.1,0.1,0.2l0.8,1.2c0.1,0.1,0.2,0.2,0.2,0.2
				c0.1,0,0.2,0,0.2-0.1l0.1-0.1v0.1l-0.7,0.5v-0.1l0.1-0.1c0.1-0.1,0.1-0.1,0.1-0.2s0-0.1-0.1-0.2l-0.8-1.2L12.6,13L12.6,13z"/>
			<path class="st0" d="M15,10.8l-0.7,0.4v0.3c0,0.1,0,0.2,0,0.2l0.1,0.1c0,0,0.1,0,0.2-0.1v0.1l-0.7,0.3v-0.1
				C14,12,14,12,14.1,11.9c0-0.1,0-0.2,0-0.3l-0.1-2h0.1l1.5,1.2c0.1,0.1,0.2,0.2,0.2,0.2c0.1,0,0.2,0,0.2,0v0.1l-0.8,0.3v-0.1
				c0.1-0.1,0.1-0.1,0.2-0.1v-0.1c0-0.1-0.1-0.1-0.2-0.2L15,10.8z M14.8,10.8l-0.7-0.6l0.1,0.9L14.8,10.8z"/>
			<path class="st0" d="M15.3,9l0.6-0.2l1.8,1.1l-0.4-1.2c-0.1-0.2-0.1-0.2-0.2-0.2c-0.1,0-0.1,0-0.2,0h-0.1V8.4l0.7-0.2v0.1h-0.1
				c-0.1,0-0.2,0.1-0.2,0.2c0,0,0,0.1,0.1,0.2l0.7,1.7H18l-2-1.2l0.4,1.2c0.1,0.2,0.1,0.2,0.2,0.2c0.1,0,0.1,0,0.2,0h0.1v0.1
				l-0.7,0.2V11h0.1c0.1,0,0.2-0.1,0.2-0.2c0,0,0-0.1-0.1-0.2l-0.5-1.4c-0.1-0.1-0.2-0.1-0.2-0.1s-0.1,0-0.2,0
				C15.4,9.1,15.4,9.1,15.3,9L15.3,9z"/>
			<path class="st0" d="M20.2,7.6l0.2,0.7h-0.1c-0.1-0.2-0.1-0.2-0.2-0.3c-0.1-0.1-0.2-0.2-0.2-0.2c-0.1,0-0.2,0-0.3,0
				c-0.1,0-0.2,0.1-0.2,0.2c-0.1,0.1-0.1,0.2-0.1,0.2c0,0.1,0.1,0.1,0.1,0.2c0.1,0.1,0.2,0.2,0.5,0.2c0.2,0.1,0.4,0.2,0.5,0.2
				c0.2,0,0.2,0.1,0.2,0.2c0.1,0.1,0.1,0.2,0.1,0.2c0,0.2,0,0.3-0.1,0.4c-0.1,0.2-0.2,0.2-0.5,0.2c-0.1,0-0.1,0-0.2,0
				c0,0-0.1,0-0.2,0c-0.1,0-0.2,0-0.2,0h-0.1V10h-0.1l-0.2-0.7h0.1c0.1,0.2,0.1,0.2,0.2,0.3c0.2,0.1,0.3,0.2,0.4,0.2
				c0.1,0,0.2,0,0.3,0c0.2,0,0.2-0.1,0.3-0.2s0.1-0.2,0.1-0.2c0-0.1,0-0.1-0.1-0.2c0-0.1-0.1-0.1-0.2-0.1c-0.1,0-0.2-0.1-0.4-0.2
				c-0.2-0.1-0.3-0.1-0.4-0.2c-0.1-0.1-0.2-0.1-0.2-0.2c-0.1-0.1-0.1-0.2-0.1-0.2c0-0.2,0-0.3,0.1-0.4c0.1-0.2,0.2-0.2,0.4-0.2
				c0.1,0,0.2,0,0.4,0C20.1,7.7,20.1,7.7,20.2,7.6L20.2,7.6C20.2,7.7,20.2,7.7,20.2,7.6L20.2,7.6z"/>
			<path class="st0" d="M21.5,7.6l0.1,0.8l0.5-0.1c0.2,0,0.2,0,0.2-0.1c0.1-0.1,0.1-0.2,0.1-0.2h0.1l0.1,0.7h-0.1
				c0-0.1-0.1-0.2-0.1-0.2l-0.1-0.1c-0.1,0-0.1,0-0.2,0l-0.5,0.1l0.1,0.7c0,0.1,0,0.2,0,0.2s0,0,0.1,0.1c0,0,0.1,0,0.2,0h0.3
				c0.1,0,0.2,0,0.2-0.1c0.1,0,0.1-0.1,0.2-0.1c0.1-0.1,0.1-0.2,0.2-0.3h0.1l-0.2,0.6l-1.7,0.2V9.8h0.1c0.1,0,0.1,0,0.2-0.1l0.1-0.1
				c0,0,0-0.1,0-0.2l-0.2-1.4c0-0.2,0-0.2-0.1-0.2S21.1,7.6,21,7.6h-0.1V7.5l1.7-0.2l0.1,0.5h-0.1c0-0.1-0.1-0.2-0.1-0.2
				c0,0-0.1-0.1-0.2-0.1c-0.1,0-0.1,0-0.2,0L21.5,7.6z"/>
			<path class="st0" d="M25.3,9.6h-0.6l-0.7-1c-0.1,0-0.1,0-0.2,0c0,0,0,0-0.1,0c0,0,0,0-0.1,0v0.7c0,0.2,0,0.2,0,0.2
				c0,0.1,0.1,0.1,0.2,0.1h0.1v0.1H23V9.6h0.1c0.1,0,0.2,0,0.2-0.1c0,0,0-0.1,0-0.2V7.9c0-0.2,0-0.2,0-0.2c0-0.1-0.1-0.1-0.2-0.1H23
				V7.4h0.8c0.2,0,0.4,0,0.5,0.1c0.1,0,0.2,0.1,0.2,0.2c0.1,0.1,0.1,0.2,0.1,0.3c0,0.2-0.1,0.2-0.2,0.3c-0.1,0.1-0.2,0.2-0.4,0.2
				l0.4,0.7c0.1,0.2,0.2,0.2,0.2,0.2C25.1,9.4,25.2,9.5,25.3,9.6L25.3,9.6z M23.8,8.4L23.8,8.4C23.9,8.4,23.9,8.4,23.8,8.4
				c0.2,0,0.4,0,0.6-0.2c0.1-0.1,0.2-0.2,0.2-0.3c0-0.2,0-0.2-0.1-0.3c-0.1-0.1-0.2-0.2-0.3-0.2c-0.1,0-0.2,0-0.2,0L23.8,8.4z"/>
			<path class="st0" d="M27.6,7.7L27.6,7.7c-0.1,0.1-0.2,0.1-0.2,0.1c-0.1,0.1-0.2,0.1-0.2,0.2l-1,1.7h-0.1l-0.6-2
				c0-0.1-0.1-0.2-0.1-0.2l-0.1-0.1c0,0-0.1,0-0.2-0.1V7.4l0.9,0.1v0.1c-0.1,0-0.2,0-0.2,0l-0.1,0.1c0,0.1,0,0.2,0.1,0.2l0.3,1.4
				l0.7-1.2c0-0.2,0.1-0.2,0.1-0.2V7.8c0,0-0.1-0.1-0.2-0.1l0,0V7.6L27.6,7.7z"/>
			<path class="st0" d="M28.4,10L28.4,10l-0.9-0.2V9.8h0.1c0.1,0,0.2,0,0.2,0c0,0,0.1-0.1,0.1-0.2l0.3-1.4c0-0.1,0-0.2,0-0.2
				c0,0,0-0.1-0.1-0.1c0,0-0.1-0.1-0.2-0.1h-0.1V7.6l0.9,0.2v0.1h-0.1c-0.1,0-0.2,0-0.2,0c0,0-0.1,0.1-0.1,0.2l-0.3,1.4
				c0,0.1,0,0.2,0,0.2c0,0,0,0.1,0.1,0.1C28.3,9.9,28.3,10,28.4,10L28.4,10z"/>
			<path class="st0" d="M31.1,8.5L31,9.3h-0.1c0-0.2-0.1-0.4-0.2-0.5c-0.1-0.2-0.2-0.2-0.4-0.2c-0.2-0.1-0.2-0.1-0.4,0
				c-0.2,0-0.2,0.1-0.3,0.2c-0.1,0.2-0.2,0.3-0.2,0.6c-0.1,0.2-0.1,0.3-0.1,0.5s0.1,0.2,0.2,0.4c0.1,0.1,0.2,0.2,0.4,0.2
				c0.2,0,0.2,0.1,0.4,0c0.1,0,0.2-0.1,0.4-0.2v0.1c-0.2,0.2-0.3,0.2-0.5,0.3c-0.2,0.1-0.3,0-0.6,0c-0.3-0.1-0.6-0.3-0.7-0.7
				c-0.1-0.2-0.1-0.5,0-0.7c0.1-0.2,0.2-0.4,0.3-0.5c0.2-0.2,0.3-0.2,0.5-0.2c0.2-0.1,0.4,0,0.6,0c0.2,0.1,0.3,0.2,0.4,0.2l0.1,0.1
				h0.1C31,8.6,31,8.5,31.1,8.5L31.1,8.5z"/>
			<path class="st0" d="M32.1,9.1l-0.3,0.7l0.4,0.2c0.1,0.1,0.2,0.1,0.2,0.1s0.2-0.1,0.2-0.2h0.1l-0.3,0.7h-0.1c0-0.1,0-0.2,0-0.2
				c0-0.1,0-0.1-0.1-0.1c0,0-0.1-0.1-0.2-0.1l-0.4-0.2l-0.2,0.7c0,0.1-0.1,0.2-0.1,0.2V11l0.1,0.1l0.3,0.2c0.1,0.1,0.2,0.1,0.2,0.1
				s0.1,0,0.2,0c0.1,0,0.2-0.1,0.3-0.2h0.1l-0.2,0.2l-1.6-0.7v-0.1h0.1c0.1,0,0.1,0,0.2,0c0,0,0.1,0,0.1-0.1c0,0,0.1-0.1,0.1-0.2
				l0.6-1.3c0.1-0.2,0.1-0.2,0.1-0.2c0-0.1-0.1-0.1-0.2-0.2h-0.1V8.6l1.6,0.7L33,9.8h-0.1c0-0.1,0-0.2,0-0.2c0-0.1,0-0.1-0.1-0.2
				c0,0-0.1-0.1-0.2-0.1L32.1,9.1z"/>
			<path class="st0" d="M34.9,10.3l-0.3,0.7h-0.1c0.1-0.2,0.1-0.2,0.1-0.4c0-0.1,0-0.2-0.1-0.2c-0.1-0.1-0.2-0.2-0.2-0.2
				C34.2,10,34.1,10,34,10c-0.1,0-0.2,0.1-0.2,0.2c0,0.1,0,0.1,0,0.2c0,0.1,0.1,0.2,0.2,0.5c0.2,0.2,0.2,0.3,0.2,0.4
				c0,0.1,0.1,0.2,0.1,0.2c0,0.1,0,0.2-0.1,0.2C34.1,11.9,34,12,33.8,12c-0.2,0.1-0.3,0-0.5-0.1c-0.1,0-0.1-0.1-0.2-0.1
				c0,0-0.1-0.1-0.2-0.2c-0.1-0.1-0.2-0.2-0.2-0.2h-0.1c0,0-0.1,0-0.1,0.1h-0.1l0.3-0.7H33c-0.1,0.2-0.1,0.2-0.1,0.3
				c0,0.1,0,0.2,0.1,0.2c0.1,0.1,0.2,0.2,0.2,0.2s0.2,0.1,0.3,0.1c0.1,0,0.2-0.1,0.2-0.2c0-0.1,0-0.1,0-0.2c0-0.1,0-0.2-0.1-0.2
				c0-0.1-0.1-0.2-0.2-0.3c-0.1-0.2-0.2-0.3-0.2-0.4c0-0.1-0.1-0.2-0.1-0.2s0-0.2,0.1-0.2c0.1-0.2,0.2-0.2,0.3-0.2
				c0.2-0.1,0.3,0,0.5,0.1c0.1,0.1,0.2,0.2,0.2,0.2c0,0.1,0.1,0.1,0.1,0.1h0.1C34.9,10.3,34.9,10.3,34.9,10.3L34.9,10.3z"/>
			<path class="st0" d="M38.3,12.7L38.3,12.7l0.7,0.4v0.1l-0.2-0.1c-0.1,0-0.2,0-0.2,0c0,0-0.1,0.1-0.2,0.2l-0.6,0.7
				c-0.2,0.2-0.2,0.2-0.4,0.3c-0.1,0.1-0.2,0.1-0.4,0.1c-0.2,0-0.3-0.1-0.5-0.2c-0.2-0.2-0.3-0.3-0.3-0.4c-0.1-0.2-0.1-0.2,0-0.4
				c0-0.1,0.2-0.2,0.3-0.4l0.6-0.7c0.1-0.1,0.2-0.2,0.1-0.2c0-0.1,0-0.1-0.1-0.2h0v-0.1l0.7,0.6v0.1l-0.1-0.1
				c-0.1-0.1-0.2-0.1-0.2-0.1c-0.1,0-0.1,0.1-0.2,0.2l-0.7,0.7c-0.1,0.1-0.1,0.2-0.2,0.2c-0.1,0.1-0.1,0.2-0.1,0.2
				c0,0.1,0,0.2,0.1,0.2c0,0.1,0.1,0.2,0.2,0.2c0.1,0.1,0.2,0.2,0.3,0.2c0.2,0,0.2,0,0.3,0c0.1-0.1,0.2-0.2,0.3-0.3l0.6-0.7
				c0.1-0.1,0.2-0.2,0.2-0.2C38.4,12.8,38.4,12.7,38.3,12.7L38.3,12.7z"/>
			<path class="st0" d="M40.2,14.3l-0.5,0.5l-0.1-0.1c0.1-0.1,0.2-0.2,0.2-0.3s0-0.2,0-0.3c0-0.1-0.1-0.2-0.2-0.2
				c-0.1-0.1-0.2-0.1-0.2-0.1s-0.2,0-0.2,0.1c-0.1,0.1-0.1,0.1-0.1,0.2c0,0.1,0,0.2,0.1,0.6c0.1,0.2,0.1,0.4,0.1,0.5
				c0,0.1,0,0.2,0,0.2s-0.1,0.2-0.2,0.2c-0.1,0.1-0.2,0.2-0.4,0.2c-0.2,0-0.3-0.1-0.5-0.2c-0.1-0.1-0.1-0.1-0.1-0.2
				c0,0-0.1-0.1-0.1-0.2C37.9,15,37.9,15,37.9,15s0,0-0.1,0c0,0-0.1,0-0.1,0.1L37.7,15l0.5-0.5l0.1,0.1c-0.1,0.2-0.2,0.2-0.2,0.3
				s0,0.2,0,0.2c0,0.1,0.1,0.2,0.2,0.2c0.1,0.1,0.2,0.2,0.3,0.2c0.1,0,0.2,0,0.2-0.1c0,0,0.1-0.1,0.1-0.2c0-0.1,0-0.2,0-0.2
				c0-0.1,0-0.2-0.1-0.4c-0.1-0.2-0.1-0.3-0.1-0.4c0-0.1,0-0.2,0-0.2c0-0.1,0.1-0.2,0.2-0.2c0.1-0.1,0.2-0.2,0.4-0.2
				c0.2,0,0.3,0.1,0.4,0.2c0.1,0.1,0.2,0.2,0.2,0.3c0,0.1,0.1,0.1,0.1,0.1h0.1C40.1,14.3,40.1,14.3,40.2,14.3L40.2,14.3z"/>
			<path class="st0" d="M40.5,16.8l-0.6-0.7l-0.3,0.2c-0.1,0-0.2,0.1-0.2,0.1v0.1c0,0,0,0.1,0.1,0.2h-0.1L39,16.1h0.1
				c0.1,0.1,0.2,0.1,0.2,0.1c0.1,0,0.2,0,0.3-0.1l1.9-0.5l0,0l-0.9,1.7c-0.2,0.2-0.2,0.2-0.2,0.3s0,0.2,0.1,0.2h-0.1l-0.6-0.7h0.1
				c0.1,0.1,0.1,0.1,0.2,0.1h0.1c0,0,0.1-0.1,0.2-0.2L40.5,16.8z M40.5,16.7l0.4-0.8L40,16.1L40.5,16.7z"/>
		</g>
		<text transform="matrix(1.0205 0 0 1 34.6895 13.9312)" class="st0 st1 st2">·</text>
		<path class="st0" d="M43.9,25.9c0,0-1.6,1.4-2.7,2.1c-1.2,0.7-6.6,3.7-7.8,4.8c-1.2,1-1.2,1.9-1.2,1.9l-0.1,2.5
			c0,0-0.7,0.7-0.8,1.1c-0.1,0.3,0.5,0.3,0.9,0.6c0.4,0.2-0.1,0.5,0.1,0.7c0.3,0.4,0.7,0.1,0.4,0.7c0,0.1,0.3,0.4,0.2,0.7
			c-0.1,0.2-0.2,0.5,0.1,0.7c0.3,0.3,1.2,0.8,3.5,0.3c2.4-0.5,4,1.4,5.1,1.7c0.4,0.1,1.7,0.6,3.9-1.2c0.9-0.7-0.6-0.1-2.7-1
			c-2.2-1-3-1.1-4.5-0.7c-1.3,0.2-2.3,0.5-2.8,0.3c-0.4-0.2-0.1-0.8-0.4-0.9c-0.7-0.2-0.2-0.6-0.6-0.7c-0.4-0.2-0.2-0.3-0.2-0.7
			c0-0.3-0.3-0.2-0.8-0.5c-0.4-0.2,0.5-0.7,0.7-1c0.2-0.4,0-1,0.1-1.7c0.2-1.4,2.2-2.5,3.3-3.1c1.2-0.7,4.6-2.8,5.5-3.4
			C44.9,27.7,43.9,25.9,43.9,25.9z"/>
	</g>
</g>
<g>
	<path class="st0" d="M57.5,16.2c2.3,0,3.9,0.4,4.9,1.5c0.8,0.8,1.5,2.1,1.5,3.7c0,2.1-0.8,3.6-2.1,4.7c-1.3,1.1-3.1,1.5-5.2,1.5
		h-4.1V27c1.5-0.1,1.6-0.3,1.6-1.7v-6.9c0-1.5-0.1-1.6-1.5-1.6v-0.5C52.5,16.2,57.5,16.2,57.5,16.2z M55.6,25.1
		c0,1.3,0.5,1.6,1.9,1.6c3.2,0,4.7-2.4,4.7-5.2c0-1.7-0.7-3.3-2-4.1c-0.8-0.5-1.7-0.7-2.9-0.7c-0.7,0-1.2,0.1-1.3,0.3
		c-0.1,0.1-0.3,0.3-0.3,0.9C55.6,17.9,55.6,25.1,55.6,25.1z"/>
	<path class="st0" d="M71.8,25.9c-1.1,1.3-2.3,1.7-2.8,1.7c-2.1,0-3.3-1.7-3.3-3.7c0-1.2,0.4-2.3,1.2-3.1c0.7-0.8,1.6-1.2,2.5-1.2
		c1.5,0,2.7,1.3,2.7,2.7c0,0.4-0.1,0.5-0.4,0.5c-0.3,0-2.4,0.3-4.5,0.3c0,2.4,1.3,3.3,2.5,3.3c0.7,0,1.3-0.3,2-0.8L71.8,25.9z
		 M67.2,22.3c0.9,0,1.9,0,2.9,0c0.3,0,0.4-0.1,0.4-0.4c0-0.9-0.5-1.7-1.5-1.7C68.1,20.2,67.4,21,67.2,22.3z"/>
	<path class="st0" d="M77.3,19.9c0.3-0.1,0.7-0.3,0.8-0.3c1.9,0,3.1,1.6,3.1,3.3c0,2.7-2,4.3-4.3,4.7c-0.5,0-0.9-0.1-1.2-0.3v2.3
		c0,1.3,0.1,1.5,1.5,1.5v0.5H73v-0.5c1.1-0.1,1.2-0.3,1.2-1.3v-7.9c0-1.1-0.1-1.2-1.2-1.3v-0.4c0.7-0.1,1.7-0.4,2.5-0.8v1.3
		L77.3,19.9z M75.7,26c0.4,0.4,1.1,0.7,1.6,0.7c1.5,0,2.4-1.2,2.4-3.2c0-1.9-1.1-2.9-2.3-2.9c-0.5,0-1.2,0.4-1.7,0.7V26z"/>
	<path class="st0" d="M88.2,27.6c-0.3,0-0.7-0.1-0.8-0.3c-0.3-0.3-0.3-0.5-0.4-0.8c-0.7,0.5-1.5,1.1-2,1.1c-1.2,0-2.1-1.1-2.1-2.1
		c0-0.8,0.4-1.3,1.5-1.7c1.1-0.4,2.3-0.8,2.7-1.1v-0.3c0-1.2-0.5-2-1.5-2c-0.4,0-0.7,0.1-0.8,0.4c-0.3,0.3-0.4,0.7-0.5,1.2
		c-0.1,0.3-0.3,0.4-0.5,0.4c-0.3,0-0.8-0.4-0.8-0.8c0-0.3,0.3-0.4,0.5-0.7c0.5-0.4,1.6-1.1,2.7-1.2c0.5,0,1.1,0.1,1.5,0.5
		c0.7,0.5,0.8,1.2,0.8,2.1v3.2c0,0.8,0.3,1.1,0.7,1.1c0.3,0,0.4-0.1,0.7-0.1l0.1,0.4L88.2,27.6z M87,23.2c-0.4,0.1-1.2,0.5-1.6,0.7
		c-0.7,0.3-1.1,0.7-1.1,1.2c0,0.9,0.7,1.3,1.2,1.3c0.4,0,1.1-0.3,1.3-0.7v-2.5H87z"/>
	<path class="st0" d="M93.1,21.4c0.5-0.9,1.2-1.9,2.1-1.9c0.5,0,1.1,0.4,1.1,0.9c0,0.4-0.3,0.7-0.5,0.8c-0.3,0.1-0.4,0.1-0.5,0
		c-0.3-0.3-0.4-0.4-0.7-0.4c-0.4,0-1.1,0.5-1.3,1.5v3.2c0,1.2,0.1,1.2,1.5,1.3v0.4h-4v-0.4c1.1-0.1,1.2-0.3,1.2-1.3v-3.6
		c0-1.2-0.1-1.2-1.1-1.3v-0.4c0.8-0.1,1.6-0.4,2.4-0.7L93.1,21.4L93.1,21.4z"/>
	<path class="st0" d="M101,27.4c-0.3,0.1-0.5,0.3-0.7,0.3c-1.1,0-1.7-0.7-1.7-2v-5.1h-1.2l-0.1-0.1l0.5-0.5h0.8v-1.3l1.1-1.2h0.3
		v2.4h2c0.1,0.1,0.1,0.5-0.1,0.7h-1.9v4.4c0,1.5,0.5,1.6,1.1,1.6s0.8-0.1,1.1-0.3l0.1,0.4L101,27.4z"/>
	<path class="st0" d="M112.9,27.4V27c1.1-0.1,1.2-0.1,1.2-1.5v-2.9c0-1.2-0.4-2-1.5-2c-0.7,0-1.3,0.4-2,0.9c0,0.3,0,0.4,0,0.7v3.3
		c0,1.1,0.1,1.2,1.1,1.3v0.4h-3.6v-0.4c1.1-0.1,1.2-0.1,1.2-1.3v-2.9c0-1.3-0.4-2-1.5-2c-0.7,0-1.3,0.5-1.9,0.9v4.1
		c0,1.1,0.1,1.2,0.9,1.3v0.4h-3.6V27c1.2-0.1,1.3-0.3,1.3-1.3V22c0-1.1,0-1.2-1.1-1.3v-0.4c0.8-0.1,1.6-0.4,2.4-0.7v1.5
		c0.4-0.3,0.8-0.5,1.2-0.9c0.4-0.3,0.9-0.5,1.5-0.5c0.8,0,1.6,0.5,1.9,1.5c0.5-0.4,1.1-0.7,1.5-0.9c0.4-0.3,0.8-0.4,1.3-0.4
		c1.3,0,2.3,0.9,2.3,2.7v3.3c0,1.2,0.1,1.2,1.1,1.3v0.4h-3.7V27.4z"/>
	<path class="st0" d="M124,25.9c-1.1,1.3-2.3,1.7-2.8,1.7c-2.1,0-3.3-1.7-3.3-3.7c0-1.2,0.4-2.3,1.2-3.1c0.7-0.8,1.6-1.2,2.5-1.2
		c1.5,0,2.7,1.3,2.7,2.7c0,0.4-0.1,0.5-0.4,0.5c-0.3,0-2.4,0.3-4.5,0.3c0,2.4,1.3,3.3,2.5,3.3c0.7,0,1.3-0.3,2-0.8L124,25.9z
		 M119.2,22.3c0.9,0,1.9,0,2.9,0c0.3,0,0.4-0.1,0.4-0.4c0-0.9-0.5-1.7-1.5-1.7C120.3,20.2,119.5,21,119.2,22.3z"/>
	<path class="st0" d="M130.3,27.4V27c1.1-0.1,1.2-0.3,1.2-1.5v-2.9c0-1.2-0.4-2-1.6-2c-0.7,0-1.3,0.4-1.9,0.9v4.1
		c0,1.2,0.1,1.2,1.1,1.3v0.4h-3.7V27c1.2-0.1,1.2-0.3,1.2-1.3V22c0-1.1-0.1-1.2-1.1-1.3v-0.4c0.8-0.1,1.6-0.4,2.4-0.7V21
		c0.4-0.3,0.7-0.5,1.2-0.8c0.5-0.3,0.9-0.5,1.5-0.5c1.3,0,2.3,0.9,2.3,2.7v3.3c0,1.2,0.1,1.2,1.1,1.3v0.4H130.3z"/>
	<path class="st0" d="M138.3,27.4c-0.3,0.1-0.5,0.3-0.7,0.3c-1.1,0-1.7-0.7-1.7-2v-5.1h-1.2l-0.1-0.1l0.5-0.5h0.8v-1.3l1.1-1.2h0.3
		v2.4h2c0.1,0.1,0.1,0.5-0.1,0.7h-1.9v4.4c0,1.5,0.5,1.6,1.1,1.6c0.5,0,0.8-0.1,1.1-0.3l0.1,0.4L138.3,27.4z"/>
	<path class="st0" d="M152.4,23.5c0,2.8-2,4.1-3.7,4.1c-2.4,0-3.7-1.9-3.7-3.9c0-2.8,2.3-4.1,3.7-4.1
		C150.8,19.6,152.4,21.4,152.4,23.5z M146.5,23.2c0,2.1,0.9,3.9,2.4,3.9c1.1,0,2-0.8,2-3.2c0-2-0.8-3.7-2.3-3.7
		C147.5,20.2,146.5,21.2,146.5,23.2z"/>
	<path class="st0" d="M154.9,19.8v-0.4c0-0.5,0.1-1.1,0.1-1.5c0-0.4,0.4-1.2,1.3-2c0.7-0.5,1.2-0.8,1.9-0.9c0.5,0,1.1,0.3,1.3,0.5
		c0.1,0.1,0.1,0.4,0.1,0.7c0,0.1-0.1,0.3-0.3,0.4c-0.1,0.1-0.3,0.1-0.5,0c-0.4-0.3-0.8-0.7-1.5-0.7c-0.4,0-0.7,0.3-0.9,0.5
		c-0.3,0.3-0.4,1.2-0.4,2.7v0.7h2c0.1,0.1,0,0.5-0.1,0.7h-1.9v4.9c0,1.3,0.1,1.3,1.5,1.5v0.4h-4.1v-0.4c1.1-0.1,1.2-0.1,1.2-1.3
		v-5.1h-1.2l-0.1-0.1l0.5-0.5H154.9z"/>
	<path class="st0" d="M175.6,16.6c-1.5,0.1-1.6,0.3-1.6,1.6v7.1c0,1.5,0.1,1.6,1.6,1.6v0.5h-4.7v-0.5c1.5-0.1,1.6-0.1,1.6-1.6v-3.5
		h-5.9v3.5c0,1.5,0.1,1.6,1.6,1.6v0.5h-4.5v-0.5c1.3-0.1,1.5-0.1,1.5-1.6v-7.1c0-1.5-0.1-1.5-1.6-1.6V16h4.5v0.5
		c-1.3,0.1-1.5,0.3-1.5,1.6V21h5.9v-2.8c0-1.5-0.1-1.5-1.5-1.6V16h4.5L175.6,16.6L175.6,16.6z"/>
	<path class="st0" d="M183,25.9c-1.1,1.3-2.3,1.7-2.8,1.7c-2.1,0-3.3-1.7-3.3-3.7c0-1.2,0.4-2.3,1.2-3.1c0.7-0.8,1.6-1.2,2.5-1.2
		c1.5,0,2.7,1.3,2.7,2.7c0,0.4-0.1,0.5-0.4,0.5c-0.3,0-2.4,0.3-4.5,0.3c0,2.4,1.3,3.3,2.5,3.3c0.7,0,1.3-0.3,2-0.8L183,25.9z
		 M178.2,22.3c0.9,0,1.9,0,2.9,0c0.3,0,0.4-0.1,0.4-0.4c0-0.9-0.5-1.7-1.5-1.7C179.3,20.2,178.5,21,178.2,22.3z"/>
	<path class="st0" d="M190,27.6c-0.3,0-0.7-0.1-0.8-0.3c-0.3-0.3-0.3-0.5-0.4-0.8c-0.7,0.5-1.5,1.1-2,1.1c-1.2,0-2.1-1.1-2.1-2.1
		c0-0.8,0.4-1.3,1.5-1.7s2.3-0.8,2.7-1.1v-0.3c0-1.2-0.5-2-1.5-2c-0.4,0-0.7,0.1-0.8,0.4c-0.3,0.3-0.4,0.7-0.5,1.2
		c-0.1,0.3-0.3,0.4-0.5,0.4c-0.3,0-0.8-0.4-0.8-0.8c0-0.3,0.3-0.4,0.5-0.7c0.5-0.4,1.6-1.1,2.7-1.2c0.5,0,1.1,0.1,1.5,0.5
		c0.7,0.5,0.8,1.2,0.8,2.1v3.2c0,0.8,0.3,1.1,0.7,1.1c0.3,0,0.4-0.1,0.7-0.1l0.1,0.4L190,27.6z M188.8,23.2
		c-0.4,0.1-1.2,0.5-1.6,0.7c-0.7,0.3-1.1,0.7-1.1,1.2c0,0.9,0.7,1.3,1.2,1.3c0.4,0,1.1-0.3,1.3-0.7v-2.5H188.8z"/>
	<path class="st0" d="M192.2,27.4V27c1.1-0.1,1.2-0.3,1.2-1.3v-8.1c0-1.2-0.1-1.2-1.2-1.3v-0.4c0.9-0.1,2-0.4,2.5-0.7v10.5
		c0,1.2,0.1,1.2,1.2,1.3v0.4H192.2z"/>
	<path class="st0" d="M200.5,27.4c-0.3,0.1-0.5,0.3-0.7,0.3c-1.1,0-1.7-0.7-1.7-2v-5.1h-1.2l-0.1-0.1l0.5-0.5h0.8v-1.3l1.1-1.2h0.3
		v2.4h2c0.1,0.1,0.1,0.5-0.1,0.7h-1.9v4.4c0,1.5,0.5,1.6,1.1,1.6s0.8-0.1,1.1-0.3l0.1,0.4L200.5,27.4z"/>
	<path class="st0" d="M207.4,27.4V27c1.1-0.1,1.2-0.3,1.2-1.3v-2.9c0-1.5-0.5-2.1-1.7-2.1c-0.7,0-1.3,0.3-1.9,0.9v4.1
		c0,1.1,0.1,1.2,1.1,1.3v0.4h-3.7V27c1.1-0.1,1.2-0.1,1.2-1.3v-8.3c0-1.1,0-1.2-1.2-1.3v-0.4c0.8-0.1,1.9-0.4,2.5-0.7v5.9
		c0.7-0.7,1.6-1.2,2.5-1.2c1.5,0,2.4,0.9,2.4,2.9v3.1c0,1.2,0.1,1.2,1.2,1.3v0.4C211,27.4,207.4,27.4,207.4,27.4z"/>
	<path class="st0" d="M57.9,46.4c-0.3,0-0.7-0.1-0.8-0.3c-0.3-0.3-0.3-0.5-0.4-0.8c-0.7,0.5-1.5,1.1-2,1.1c-1.2,0-2.1-1.1-2.1-2.1
		c0-0.8,0.4-1.3,1.5-1.7c1.1-0.4,2.3-0.8,2.7-1.1v-0.3c0-1.2-0.5-2-1.5-2c-0.4,0-0.7,0.1-0.8,0.4c-0.3,0.3-0.4,0.7-0.5,1.2
		c-0.1,0.3-0.3,0.4-0.5,0.4c-0.3,0-0.8-0.4-0.8-0.8c0-0.3,0.3-0.4,0.5-0.7c0.5-0.4,1.6-1.1,2.7-1.2c0.5,0,1.1,0.1,1.5,0.5
		c0.7,0.5,0.8,1.2,0.8,2.1v3.2c0,0.8,0.3,1.1,0.7,1.1c0.3,0,0.4-0.1,0.7-0.1l0.1,0.4L57.9,46.4z M56.7,42c-0.4,0.1-1.2,0.5-1.6,0.7
		c-0.7,0.3-1.1,0.7-1.1,1.2c0,0.9,0.7,1.3,1.2,1.3c0.4,0,1.1-0.3,1.3-0.7V42H56.7z"/>
	<path class="st0" d="M65.2,46.1v-0.4c1.1-0.1,1.2-0.3,1.2-1.5v-2.9c0-1.2-0.4-2-1.6-2c-0.7,0-1.3,0.4-1.9,0.9v4.1
		c0,1.2,0.1,1.2,1.1,1.3v0.4h-3.9v-0.4c1.2-0.1,1.2-0.3,1.2-1.3v-3.6c0-1.1-0.1-1.2-1.1-1.3v-0.4c0.8-0.1,1.6-0.4,2.4-0.7v1.3
		c0.4-0.3,0.7-0.5,1.2-0.8c0.5-0.3,0.9-0.5,1.5-0.5c1.3,0,2.3,0.9,2.3,2.7v3.3c0,1.2,0.1,1.2,1.1,1.3v0.4H65.2z"/>
	<path class="st0" d="M78.4,45.7c-0.4,0.1-1.7,0.3-2.7,0.7v-1.1l-1.1,0.5c-0.7,0.4-1.2,0.5-1.3,0.5c-1.3,0-3.2-1.2-3.2-3.7
		c0-2.4,2.1-4.3,4.5-4.3c0.3,0,0.8,0,1.2,0.1v-2.4c0-1.2-0.1-1.2-1.3-1.3v-0.4c0.9-0.1,2-0.4,2.7-0.7v10.4c0,0.9,0.1,0.9,0.8,1.1
		h0.5v0.5H78.4z M75.7,39.9c-0.4-0.7-1.1-0.9-1.7-0.9c-0.8,0-2.3,0.7-2.3,3.2c0,2,1.2,3.1,2.4,3.1c0.7,0,1.2-0.3,1.6-0.5V39.9z"/>
	<path class="st0" d="M95.8,35.4c-1.5,0.1-1.6,0.3-1.6,1.6V44c0,1.5,0.1,1.6,1.6,1.6v0.5h-4.7v-0.5c1.5-0.1,1.6-0.1,1.6-1.6v-3.5
		h-5.9V44c0,1.5,0.1,1.6,1.6,1.6v0.5H84v-0.5c1.3-0.1,1.5-0.1,1.5-1.6V37c0-1.5-0.1-1.5-1.6-1.6v-0.5h4.5v0.5
		c-1.3,0.1-1.5,0.3-1.5,1.6v2.8h5.9V37c0-1.5-0.1-1.5-1.5-1.6v-0.5h4.5V35.4z"/>
	<path class="st0" d="M105.1,45.7c-0.8,0.1-1.7,0.4-2.5,0.7l-0.1-0.1v-1.2c-0.4,0.3-0.8,0.7-1.3,0.9c-0.5,0.3-0.8,0.4-1.3,0.4
		c-1.2,0-2.1-0.7-2.1-2.5v-3.3c0-0.9-0.1-1.1-1.1-1.2v-0.4c0.8,0,1.6-0.1,2.5-0.3c0,0.5,0,1.3,0,2.5v2.3c0,1.6,0.8,2,1.5,2
		c0.7,0,1.3-0.3,1.9-0.8v-4c0-0.9-0.1-1.1-1.3-1.2v-0.4c0.9,0,1.9-0.1,2.7-0.3v5.7c0,0.8,0.1,0.9,0.8,1.1h0.5V45.7z"/>
	<path class="st0" d="M115.8,46.1v-0.4c1.1-0.1,1.2-0.1,1.2-1.5v-2.9c0-1.2-0.4-2-1.5-2c-0.7,0-1.3,0.4-2,0.9c0,0.3,0,0.4,0,0.7v3.3
		c0,1.1,0.1,1.2,1.1,1.3V46h-3.7v-0.4c1.1-0.1,1.2-0.1,1.2-1.3v-2.9c0-1.3-0.4-2-1.5-2c-0.7,0-1.3,0.5-1.9,0.9v4.1
		c0,1.1,0.1,1.2,0.9,1.3v0.4h-3.6v-0.4c1.2-0.1,1.3-0.3,1.3-1.3v-3.6c0-1.1,0-1.2-1.1-1.3v-0.4c0.8-0.1,1.6-0.4,2.4-0.7v1.5
		c0.4-0.3,0.8-0.5,1.2-0.9c0.4-0.3,0.8-0.5,1.5-0.5c0.8,0,1.6,0.5,1.9,1.5c0.5-0.4,1.1-0.7,1.5-0.9c0.4-0.3,0.8-0.4,1.3-0.4
		c1.3,0,2.3,0.9,2.3,2.7v3.3c0,1.2,0.1,1.2,1.1,1.3v0.4h-3.6V46.1z"/>
	<path class="st0" d="M126.2,46.4c-0.3,0-0.7-0.1-0.8-0.3c-0.3-0.3-0.3-0.5-0.4-0.8c-0.7,0.5-1.5,1.1-2,1.1c-1.2,0-2.1-1.1-2.1-2.1
		c0-0.8,0.4-1.3,1.5-1.7c1.1-0.4,2.3-0.8,2.7-1.1v-0.3c0-1.2-0.5-2-1.5-2c-0.4,0-0.7,0.1-0.8,0.4c-0.3,0.3-0.4,0.7-0.5,1.2
		c-0.1,0.3-0.3,0.4-0.5,0.4c-0.3,0-0.8-0.4-0.8-0.8c0-0.3,0.3-0.4,0.5-0.7c0.5-0.4,1.6-1.1,2.7-1.2c0.5,0,1.1,0.1,1.5,0.5
		c0.7,0.5,0.8,1.2,0.8,2.1v3.2c0,0.8,0.3,1.1,0.7,1.1c0.3,0,0.4-0.1,0.7-0.1l0.1,0.4L126.2,46.4z M124.8,42
		c-0.4,0.1-1.2,0.5-1.6,0.7c-0.7,0.3-1.1,0.7-1.1,1.2c0,0.9,0.7,1.3,1.2,1.3c0.4,0,1.1-0.3,1.3-0.7V42H124.8z"/>
	<path class="st0" d="M133.4,46.1v-0.4c1.1-0.1,1.2-0.3,1.2-1.5v-2.9c0-1.2-0.4-2-1.6-2c-0.7,0-1.3,0.4-1.9,0.9v4.1
		c0,1.2,0.1,1.2,1.1,1.3v0.4h-3.7v-0.4c1.2-0.1,1.2-0.3,1.2-1.3v-3.6c0-1.1-0.1-1.2-1.1-1.3v-0.4c0.8-0.1,1.6-0.4,2.4-0.7v1.3
		c0.4-0.3,0.7-0.5,1.2-0.8c0.5-0.3,0.9-0.5,1.5-0.5c1.3,0,2.3,0.9,2.3,2.7v3.3c0,1.2,0.1,1.2,1.1,1.3v0.4H133.4z"/>
	<path class="st0" d="M148.5,37.5c-0.3-1.1-0.8-2.3-2.3-2.3c-1.3,0-1.9,0.9-1.9,1.9c0,1.2,0.8,1.9,2.3,2.5c1.3,0.7,2.9,1.5,2.9,3.5
		c0,1.9-1.6,3.3-3.9,3.3c-0.7,0-1.2-0.1-1.7-0.3c-0.4-0.1-0.7-0.3-0.8-0.4c-0.1-0.4-0.4-1.9-0.5-2.7l0.5-0.1
		c0.3,1.1,1.1,2.8,2.8,2.8c1.3,0,2.1-0.8,2.1-2.1c0-1.3-0.9-1.9-2.3-2.5c-1.1-0.5-2.8-1.5-2.8-3.5c0-1.6,1.3-3.1,3.6-3.1
		c0.8,0,1.5,0.1,2.1,0.4c0.1,0.7,0.1,1.3,0.3,2.4L148.5,37.5z"/>
	<path class="st0" d="M157.6,44.7c-1.1,1.3-2.3,1.7-2.8,1.7c-2.1,0-3.3-1.7-3.3-3.7c0-1.2,0.4-2.3,1.2-3.1c0.7-0.8,1.6-1.2,2.5-1.2
		c1.5,0,2.7,1.3,2.7,2.7c0,0.4-0.1,0.5-0.4,0.5c-0.3,0-2.4,0.3-4.5,0.3c0,2.4,1.3,3.3,2.5,3.3c0.7,0,1.3-0.3,2-0.8L157.6,44.7z
		 M152.9,41.1c0.9,0,1.9,0,2.9,0c0.3,0,0.4-0.1,0.4-0.4c0-0.9-0.5-1.7-1.5-1.7C153.9,38.9,153.2,39.7,152.9,41.1z"/>
	<path class="st0" d="M161.7,40.1c0.5-0.9,1.2-1.9,2.1-1.9c0.5,0,1.1,0.4,1.1,0.9c0,0.4-0.3,0.7-0.5,0.8c-0.3,0.1-0.4,0.1-0.5,0
		c-0.3-0.3-0.4-0.4-0.7-0.4c-0.4,0-1.1,0.5-1.3,1.5v3.2c0,1.2,0.1,1.2,1.5,1.3V46h-4v-0.4c1.1-0.1,1.2-0.3,1.2-1.3v-3.6
		c0-1.2-0.1-1.2-1.1-1.3v-0.4c0.8-0.1,1.6-0.4,2.4-0.7L161.7,40.1L161.7,40.1z"/>
	<path class="st0" d="M174,38.9c-0.9,0.1-1.1,0.3-1.5,1.3c-0.5,1.3-1.5,3.5-2.4,6h-0.5c-0.8-2.1-1.6-4-2.4-6.1
		c-0.4-1.1-0.5-1.1-1.5-1.2v-0.4h3.6v0.4c-0.9,0.1-0.9,0.3-0.7,1.1c0.4,1.2,1.2,3.1,1.6,4.3c0.7-1.5,1.2-3.1,1.6-4.1
		c0.3-0.8,0.1-1.1-0.8-1.2v-0.4h3.1v0.4H174z"/>
	<path class="st0" d="M174.8,46.1v-0.4c1.1-0.1,1.2-0.3,1.2-1.3v-3.6c0-1.1,0-1.2-1.1-1.3v-0.4c0.9-0.1,1.7-0.4,2.4-0.7v6
		c0,1.2,0.1,1.3,1.2,1.3v0.4H174.8z M175.7,36c0-0.5,0.4-0.9,0.9-0.9s0.9,0.4,0.9,0.9c0,0.5-0.4,0.9-0.9,0.9
		C176.1,36.8,175.7,36.4,175.7,36z"/>
	<path class="st0" d="M186.2,44.5c-0.8,1.1-1.9,1.7-2.9,1.7c-2.1,0-3.5-1.7-3.5-3.6c0-1.3,0.5-2.5,1.7-3.3c0.9-0.7,2-0.9,2.7-0.9
		s1.2,0.3,1.6,0.4c0.3,0.1,0.3,0.4,0.3,0.5c0,0.4-0.4,0.8-0.5,0.8s-0.1,0-0.3-0.1c-0.5-0.5-1.1-0.7-1.7-0.7c-1.2,0-2.1,0.9-2.1,2.8
		c0,2.4,1.6,3.2,2.7,3.2c0.8,0,1.3-0.3,2.1-0.9V44.5z"/>
	<path class="st0" d="M193.7,44.7c-1.1,1.3-2.3,1.7-2.8,1.7c-2.1,0-3.3-1.7-3.3-3.7c0-1.2,0.4-2.3,1.2-3.1c0.7-0.8,1.6-1.2,2.5-1.2
		c1.5,0,2.7,1.3,2.7,2.7c0,0.4-0.1,0.5-0.4,0.5s-2.4,0.3-4.5,0.3c0,2.4,1.3,3.3,2.5,3.3c0.7,0,1.3-0.3,2-0.8L193.7,44.7z
		 M188.9,41.1c0.9,0,1.9,0,2.9,0c0.3,0,0.4-0.1,0.4-0.4c0-0.9-0.5-1.7-1.5-1.7C190,38.9,189.2,39.7,188.9,41.1z"/>
	<path class="st0" d="M199.7,40.7c-0.3-1.1-0.9-1.7-1.7-1.7c-0.7,0-1.1,0.5-1.1,1.2c0,0.8,0.7,1.2,1.5,1.5c1.3,0.5,2.1,1.2,2.1,2.4
		c0,1.6-1.5,2.4-2.8,2.4c-0.9,0-1.7-0.3-2-0.5c-0.1-0.3-0.3-1.5-0.3-2l0.4-0.1c0.3,1.2,1.1,2.1,2.1,2.1c0.7,0,1.2-0.5,1.2-1.2
		c0-0.8-0.5-1.2-1.3-1.6c-1.1-0.5-2.1-1.1-2.1-2.4c0-1.2,1.1-2.3,2.7-2.3c0.7,0,1.2,0.1,1.6,0.3c0.1,0.4,0.3,1.5,0.4,1.9L199.7,40.7
		z"/>
</g>
</svg>
