<?xml version="1.0" encoding="utf-8"?>
<!-- Generator: Adobe Illustrator 22.0.1, SVG Export Plug-In . SVG Version: 6.00 Build 0)  -->
<svg version="1.1" id="Layer_3" xmlns="http://www.w3.org/2000/svg" xmlns:xlink="http://www.w3.org/1999/xlink" x="0px" y="0px"
	 viewBox="0 0 177 58" style="enable-background:new 0 0 177 58;" xml:space="preserve">
<style type="text/css">
	.st0{fill:#FFFFFF;}
</style>
<path id="SAMHSA" class="st0" d="M52.8,16.2h-9.1c-3.1,0-6.2,1.5-7.5,3.5c-1.5,2.3-2.8,4.5-3.3,6.5c-0.4,1.7,0,3.2,1.3,4.2
	c1.7,1.5,6.6,1.5,7.1,3.7c0.6,2.3-1.7,5.3-4.1,5.3h-6.5c-1.5,0-2.4-0.3-2.2-1.7h-0.5l-2,5.1c-0.3,0.7-0.1,1.3,1.2,1.3h10.8
	c2.6,0,4.9-1,6.4-2.7c2.2-2.3,3.4-5.3,4.1-8.2c0.6-2.8-0.7-4.1-2.6-4.9c-1.6-0.7-5.5-1.6-5.8-2.9c-0.5-1.7,1-4.5,3-4.5h5.1
	c1.2,0,2.9,0.1,3.5-1.6L52.8,16.2 M72.4,17.3c0-0.6-0.1-1.2-1-1.2h-7.9v0l-0.2,0.4c1.3,0.2,0.3,1.8-0.3,2.5l-17.2,23
	C44.8,43.2,45.2,44,46,44h6.1l0.1-0.4c-1,0-1-0.9-0.7-1.4l3.7-5.1h8.9l-0.5,5.1c0,0.7-0.3,1.8,1.3,1.8h5.2l0.1-0.4
	c-0.7,0-0.8-0.8-0.7-1.4L72.4,17.3L72.4,17.3z M64.7,32.9h-6.6l7.7-11.1L64.7,32.9z M86.2,24.5l-8.6,17.7c-0.3,0.5,0,1.4,0.7,1.4
	L78.2,44h-5.2c-1.6,0-1.2-1.1-0.8-1.8l11.9-23c0.4-0.8,1.2-2.3,0-2.6l0.2-0.4h6.6c0.9,0,1,0.7,1,1.2L90.9,33l7.6-13.8
	c0.4-0.8,1.5-2.3,0.2-2.6l0.2-0.4h6.9c0.9,0,1,0.7,1,1.2l-3.2,24.8c-0.1,0.6,0,1.4,0.7,1.4l-0.1,0.4h-5.4c-1.6,0-1.4-1.1-1.3-1.8
	l2.9-17.7L89.2,44.1h-4.3C84.9,44.1,86.2,24.5,86.2,24.5z M154,16.2h-9.1c-3.1,0-6.2,1.5-7.5,3.5c-1.5,2.3-2.8,4.5-3.3,6.5
	c-0.4,1.7,0,3.2,1.3,4.2c1.7,1.5,6.6,1.5,7.1,3.7c0.6,2.3-1.7,5.3-4.1,5.3H132c-1.5,0-2.4-0.3-2.2-1.7h-0.5l-2,5.1
	c-0.3,0.7-0.1,1.3,1.2,1.3h10.8c2.6,0,4.9-1,6.4-2.7c2.2-2.3,3.4-5.3,4.1-8.2c0.6-2.8-0.7-4.1-2.6-4.9c-1.6-0.7-5.5-1.6-5.8-2.9
	c-0.5-1.7,1-4.5,3-4.5h5.1c1.2,0,2.9,0.1,3.5-1.6L154,16.2L154,16.2z M120.7,17.3l-3.5,9.1h8.6l2.9-7.3c0.3-0.8,1-2.4,0-2.6l0.2-0.4
	h6c0.9,0,1,0.7,0.8,1.2l-9.5,24.8c-0.2,0.5,0,1.4,0.7,1.4l-0.1,0.4h-6.1c-1.6,0-1.1-1-0.8-1.8l4.4-11.3h-8.5l-4.3,11.3
	c-0.2,0.5,0,1.4,0.7,1.4l-0.1,0.4h-6.1c-1.6,0-1.1-1-0.8-1.8l8.8-23c0.3-0.8,1-2.4,0-2.6l0.2-0.4h6
	C120.8,16.2,120.9,16.8,120.7,17.3z M174.2,17.4c0-0.6-0.1-1.2-1-1.2h-7.9l-0.2,0.4c1.3,0.2,0.3,1.8-0.3,2.5l-17.2,23.1
	c-0.9,1.1-0.6,1.9,0.3,1.9h6.1l0.1-0.4c-1,0-1.1-0.9-0.7-1.4l3.7-5.1h8.9l-0.5,5.1c0,0.7-0.3,1.8,1.3,1.8h5.2l0.1-0.4
	c-0.7,0-0.8-0.8-0.7-1.4L174.2,17.4L174.2,17.4z M166.5,32.9h-6.6l7.7-11.1L166.5,32.9z"/>
<g id="Icon">
	<path class="st0" d="M18.7,30c-0.4-0.7-1.1-1.6-2.1-1.6c-0.4,0-1,0.3-1.6,0.8c-0.6,0.5-1.3,1.2-2,2.1s-1.5,1.9-2.3,3
		C9.5,36.1,8.3,38,7.1,40c-1.2,1.9-2.3,3.8-3.3,5.6c-1,1.7-1.8,3.2-2.4,4.3c-0.6,1.1-0.9,1.7-0.9,1.7s1.8-2.2,4.3-4.8
		c2.5-2.7,5.5-5.9,7.9-8c1.5-1.3,2.8-2.2,3.4-2.2c0.7,0,1.6,0.7,2.3,1.7c1.9,2.6,3.6,7,3.6,7s0-0.7-0.1-1.8
		c-0.1-1.1-0.3-2.6-0.6-4.3c-0.3-1.6-0.6-3.4-1-5.1C19.9,32.6,19.3,31.1,18.7,30 M15,26.7c0.4,0.7,1.1,1.6,2.1,1.6
		c0.4,0,1-0.3,1.6-0.8s1.3-1.2,2-2.1s1.5-1.9,2.3-3c1.2-1.7,2.4-3.7,3.7-5.6s2.3-3.8,3.3-5.6c1-1.7,1.8-3.2,2.4-4.3s0.9-1.7,0.9-1.7
		S31.5,7.3,29,9.9c-2.5,2.6-5.5,5.9-7.9,7.9c-1.5,1.3-2.8,2.2-3.4,2.2c-0.7,0-1.6-0.7-2.3-1.7c-1.9-2.6-3.6-7-3.6-7s0,0.7,0.1,1.8
		c0.1,1.1,0.3,2.6,0.6,4.3c0.3,1.6,0.6,3.4,1,5.1C14,24.1,14.5,25.6,15,26.7"/>
	<ellipse class="st0" cx="18.2" cy="14.9" rx="2.7" ry="2.8"/>
</g>
</svg>
