<?xml version="1.0" encoding="utf-8"?>
<!-- Generator: Adobe Illustrator 22.0.1, SVG Export Plug-In . SVG Version: 6.00 Build 0)  -->
<svg version="1.1" id="Layer_2" xmlns="http://www.w3.org/2000/svg" xmlns:xlink="http://www.w3.org/1999/xlink" x="0px" y="0px"
	 viewBox="0 0 105 34" style="enable-background:new 0 0 105 34;" xml:space="preserve">
<style type="text/css">
	.st0{fill:#FFFFFF;}
</style>
<path class="st0" d="M14.1,10.4h9.8v0.5h-0.5c-0.7,0-1.2,0.1-1.5,0.2c-0.3,0.1-0.5,0.4-0.6,0.6c-0.1,0.3-0.2,0.9-0.2,2v9.1
	c0,1.7,0.1,2.8,0.4,3.3c0.3,0.5,0.7,1,1.3,1.4c0.6,0.4,1.3,0.5,2.2,0.5c1,0,1.9-0.2,2.6-0.7c0.7-0.5,1.3-1.1,1.6-1.9
	c0.4-0.8,0.5-2.2,0.5-4.2v-7.7c0-0.8-0.1-1.4-0.3-1.8c-0.2-0.4-0.4-0.6-0.7-0.7c-0.4-0.2-1-0.3-1.8-0.3v-0.5h6.6v0.5h-0.4
	c-0.5,0-1,0.1-1.3,0.3c-0.4,0.2-0.6,0.5-0.8,1c-0.1,0.3-0.2,0.8-0.2,1.6v7.1c0,2.2-0.1,3.8-0.5,4.7c-0.3,1-1,1.9-2.1,2.7
	c-1.1,0.8-2.7,1.2-4.7,1.2c-1.6,0-2.9-0.2-3.8-0.6c-1.2-0.6-2.1-1.3-2.6-2.2c-0.5-0.9-0.7-2.1-0.7-3.7v-9.1c0-1.1,0-1.7-0.2-2
	c-0.1-0.3-0.3-0.5-0.6-0.6c-0.3-0.1-0.9-0.2-1.6-0.2L14.1,10.4L14.1,10.4z"/>
<path class="st0" d="M45.2,9.9l0.1,6.2h-0.6c-0.3-1.6-0.9-2.8-2-3.7c-1-1-2.2-1.4-3.4-1.4c-1,0-1.7,0.2-2.2,0.7s-0.8,1.1-0.8,1.7
	c0,0.4,0.1,0.8,0.3,1.1c0.3,0.4,0.7,0.9,1.3,1.3c0.5,0.3,1.5,0.8,3,1.6c2.2,1.1,3.7,2.1,4.5,3.1c0.8,1,1.1,2.1,1.1,3.3
	c0,1.6-0.6,2.9-1.8,4c-1.2,1.1-2.8,1.7-4.7,1.7c-0.6,0-1.1,0-1.7-0.2c-0.5-0.1-1.2-0.4-2-0.7c-0.5-0.2-0.8-0.3-1.1-0.3
	c-0.2,0-0.5,0.1-0.8,0.3c-0.3,0.2-0.5,0.5-0.6,0.8h-0.5v-7h0.5c0.4,2,1.2,3.5,2.4,4.5c1.2,1,2.4,1.6,3.8,1.6c1,0,1.9-0.3,2.5-0.8
	s0.9-1.2,0.9-2c0-0.5-0.1-0.9-0.4-1.3c-0.2-0.4-0.6-0.8-1.1-1.2c-0.5-0.4-1.3-0.9-2.6-1.5c-1.7-0.8-3-1.6-3.7-2.1
	c-0.7-0.6-1.3-1.2-1.7-2c-0.4-0.7-0.6-1.5-0.6-2.4c0-1.5,0.5-2.7,1.6-3.8s2.5-1.6,4.2-1.6c0.6,0,1.2,0.1,1.8,0.2
	c0.5,0.1,1,0.3,1.6,0.6c0.6,0.3,1,0.5,1.3,0.5c0.2,0,0.4-0.1,0.6-0.2c0.1-0.1,0.3-0.5,0.4-1C44.8,9.9,45.2,9.9,45.2,9.9z"/>
<path class="st0" d="M57.2,23.7h-6.7l-0.8,1.8c-0.3,0.6-0.4,1.1-0.4,1.5c0,0.5,0.2,0.9,0.6,1.1c0.2,0.1,0.9,0.3,1.9,0.3V29h-6.3
	v-0.5c0.7-0.1,1.2-0.4,1.7-0.8c0.5-0.5,1-1.4,1.6-2.8L55.5,10h0.3l6.8,15.3c0.6,1.5,1.2,2.4,1.6,2.7c0.3,0.3,0.8,0.5,1.3,0.5V29
	h-9.1v-0.5h0.4c0.7,0,1.2-0.1,1.6-0.3c0.2-0.1,0.3-0.4,0.3-0.6c0-0.2,0-0.3-0.1-0.5c0-0.1-0.1-0.4-0.4-1L57.2,23.7z M56.7,22.7
	l-2.8-6.4l-2.9,6.4C50.9,22.7,56.7,22.7,56.7,22.7z"/>
<path class="st0" d="M1.7,14c0,0,8.2-8.2,26.1-10.1c0,0,1.3,1,1.3,1.6C29,5.5,15.3,6.5,1.7,14z"/>
<polygon class="st0" points="34.6,0.2 34.2,3.4 37.1,3.4 33.6,5.6 33.6,8.9 31.4,6.8 27.7,8.9 30.2,5.9 28.2,3.6 31.4,3.6 "/>
<path class="st0" d="M68,25.5c0.5,0,1,0.2,1.4,0.5c0.4,0.4,0.6,0.8,0.6,1.3c0,0.5-0.2,1-0.6,1.3c-0.4,0.4-0.9,0.5-1.4,0.5
	c-0.5,0-1-0.2-1.4-0.5c-0.4-0.4-0.6-0.8-0.6-1.3c0-0.5,0.2-1,0.6-1.3C67,25.7,67.5,25.5,68,25.5z"/>
<path class="st0" d="M72.1,30.1l1.9,0.3c0.1,0.6,0.4,1.1,0.8,1.4c0.5,0.3,1,0.5,1.8,0.5c0.9,0,1.6-0.2,2.1-0.5
	c0.5-0.4,0.9-0.9,1-1.6c0.1-0.4,0.2-1.3,0.2-2.6c-0.4,0.5-0.9,0.9-1.4,1.1c-0.5,0.3-1.1,0.4-1.7,0.4c-1.4,0-2.5-0.5-3.4-1.5
	c-1-1.1-1.6-2.6-1.6-4.5c0-1.3,0.2-2.4,0.7-3.3s1-1.6,1.8-2.1c0.7-0.5,1.6-0.7,2.5-0.7c0.7,0,1.3,0.1,1.9,0.4c0.5,0.3,1,0.7,1.5,1.2
	v-1.4h1.8v10.2c0,1.8-0.2,3.1-0.5,3.9c-0.4,0.8-0.9,1.4-1.7,1.8s-1.8,0.7-2.9,0.7c-1.5,0-2.6-0.3-3.4-1C72.4,32.2,72,31.3,72.1,30.1
	z M73.6,23c0,1.6,0.3,2.7,0.9,3.4c0.6,0.7,1.4,1,2.2,1s1.6-0.4,2.2-1c0.6-0.7,0.9-1.8,0.9-3.3c0-1.5-0.3-2.6-1-3.3
	c-0.6-0.7-1.4-1.1-2.3-1.1c-0.8,0-1.5,0.4-2.1,1.1C74,20.6,73.6,21.6,73.6,23z"/>
<path class="st0" d="M83.2,23.3c0-2,0.5-3.6,1.5-4.6c1-1,2.3-1.6,3.9-1.6c1.6,0,2.8,0.5,3.8,1.6c1,1,1.6,2.5,1.6,4.5
	c0,2.1-0.5,3.7-1.5,4.7c-1,1-2.3,1.6-3.9,1.6c-1.6,0-2.8-0.5-3.8-1.6C83.7,26.8,83.2,25.3,83.2,23.3z M85.2,23.3
	c0,1.5,0.3,2.6,1,3.4c0.6,0.7,1.5,1.1,2.5,1.1c0.9,0,1.7-0.4,2.4-1.1c0.6-0.7,1-1.9,1-3.4c0-1.5-0.3-2.6-1-3.4
	c-0.6-0.7-1.5-1.1-2.5-1.1c-0.9,0-1.7,0.4-2.4,1.1C85.5,20.6,85.2,21.7,85.2,23.3z"/>
<path class="st0" d="M97.9,29.1L94,17.4h1.8l2.2,7c0.3,0.8,0.5,1.6,0.6,2.4c0.1-0.6,0.4-1.4,0.6-2.2l2.3-7.2h1.8l-3.9,11.8
	C99.4,29.1,97.9,29.1,97.9,29.1z"/>
</svg>
